<?xml version="1.0" encoding="utf-8"?>
<!-- Generator: Adobe Illustrator 23.1.0, SVG Export Plug-In . SVG Version: 6.00 Build 0)  -->
<svg version="1.1" id="Capa_1" xmlns="http://www.w3.org/2000/svg" xmlns:xlink="http://www.w3.org/1999/xlink" x="0px" y="0px"
	 viewBox="0 0 226.77 226.77" style="enable-background:new 0 0 226.77 226.77;" xml:space="preserve">
<g>
	<path d="M135.56,152.46c-0.11,0-0.22,0-0.33,0.02c-0.3,0.04-0.59,0.12-0.89,0.25c-0.26,0.12-0.52,0.28-0.82,0.52
		c-0.26,0.21-0.47,0.49-0.61,0.71c-0.16,0.25-0.29,0.57-0.39,0.95c-0.07,0.27-0.1,0.57-0.11,0.93c-0.01,0.37,0.06,0.75,0.12,1.06
		c0.09,0.44,0.25,0.89,0.48,1.33c0.16,0.63,0.43,1.25,0.79,1.81c0.3,0.47,0.82,1.1,1.59,1.45c0.29,0.13,0.61,0.21,0.97,0.24l0.13,0
		c0.31,0,0.65-0.07,0.98-0.2c0.35-0.14,0.67-0.34,1.06-0.65c0.33-0.27,0.6-0.6,0.81-0.98c0.46-0.8,0.5-1.73,0.45-2.36
		c-0.06-0.82-0.31-1.66-0.72-2.49c-0.25-0.49-0.58-0.96-1-1.4c-0.38-0.4-0.83-0.72-1.3-0.92c-0.25-0.11-0.48-0.18-0.71-0.22
		C135.89,152.47,135.73,152.46,135.56,152.46"/>
	<path d="M132.98,155.42c-0.07,0.04-0.14,0.11-0.15,0.19c-0.02,0.14-0.04,0.28-0.06,0.42c-0.02,0.21-0.02,0.43-0.02,0.65
		c0.01,0.35,0.08,0.7,0.17,1.04c0.09,0.34,0.24,0.67,0.41,0.98c0.17,0.32,0.38,0.6,0.61,0.88c0.09,0.11,0.27,0.12,0.38,0.05
		c0.14-0.08,0.21-0.29,0.11-0.43c-0.13-0.18-0.25-0.36-0.36-0.55c-0.11-0.17-0.19-0.36-0.27-0.55c-0.08-0.19-0.14-0.38-0.2-0.56
		c-0.06-0.18-0.1-0.37-0.13-0.56c-0.02-0.15-0.04-0.31-0.04-0.47c-0.02-0.21,0-0.43,0.02-0.64c0-0.03,0.01-0.06,0.01-0.09
		c0.02-0.09,0.02-0.17-0.03-0.25c-0.04-0.07-0.11-0.13-0.19-0.15c-0.03-0.01-0.06-0.01-0.09-0.01
		C133.08,155.38,133.03,155.39,132.98,155.42"/>
	<path d="M135.14,168.38c-0.15,0-0.3,0.01-0.45,0.03c-0.4,0.05-0.78,0.15-1.18,0.32c-0.44,0.19-0.85,0.47-1.26,0.85
		c-0.31,0.3-0.6,0.68-0.88,1.18c-0.25,0.43-0.45,0.94-0.62,1.54c-0.12,0.42-0.19,0.9-0.24,1.5c-0.02,0.21-0.02,0.41-0.01,0.62
		c-0.09,0.68-0.07,1.28,0.08,1.83c0.16,0.61,0.51,1.13,0.99,1.48c0.5,0.36,1.15,0.54,1.95,0.54c0.47,0,0.95-0.09,1.31-0.17
		c0.37-0.08,0.73-0.21,1.12-0.41c0.58-0.31,1.1-0.8,1.55-1.46c0.37-0.54,0.65-1.21,0.82-2c0.16-0.71,0.2-1.43,0.12-2.16
		c-0.09-0.89-0.45-2.51-1.83-3.33C136.18,168.51,135.68,168.38,135.14,168.38"/>
	<path d="M115.36,159.4l-0.11,0l-0.1,0c-0.81,0.04-1.58,0.26-2.25,0.66c-0.24,0.15-0.47,0.33-0.69,0.54
		c-0.45,0.24-0.84,0.63-1.09,1.09c-0.64,1.16-0.28,2.55-0.02,3.27c0.21,0.57,0.51,1.12,0.89,1.62c0.18,0.25,0.38,0.49,0.59,0.71
		c0.21,0.21,0.45,0.41,0.75,0.63c0.48,0.35,1.04,0.6,1.61,0.72c0.24,0.05,0.49,0.08,0.74,0.08c0.37,0,0.74-0.06,1.1-0.17
		c0.58-0.18,1.15-0.54,1.69-1.05c0.24-0.23,0.48-0.5,0.76-0.87c0.33-0.43,0.56-0.81,0.74-1.19c0.19-0.38,0.31-0.78,0.38-1.17
		c0.04-0.22,0.05-0.43,0.06-0.65c0-0.22-0.03-0.43-0.06-0.63c-0.06-0.38-0.21-0.74-0.34-1.01c-0.14-0.3-0.36-0.6-0.67-0.94
		c-0.26-0.29-0.59-0.53-0.84-0.7c-0.35-0.24-0.73-0.41-1.09-0.55c-0.31-0.12-0.66-0.22-1.03-0.28
		C116.03,159.43,115.69,159.4,115.36,159.4"/>
	<path d="M108.13,177.1c-0.25,0-0.51,0.03-0.76,0.06c-0.79,0.11-1.55,0.48-2.13,1.04c-0.49,0.48-0.86,1.15-1.06,1.96
		c-0.13,0.52-0.17,1.1-0.14,1.71c0.03,0.56,0.14,1.15,0.34,1.75c0.38,1.17,1.06,2.19,1.92,2.88c0.09,0.07,0.16,0.11,0.27,0.11
		c0.1,0,0.2-0.04,0.27-0.11c0.09-0.09,0.13-0.24,0.1-0.36l0.54,0.11c0.31,0.06,0.61,0.11,0.92,0.16c0.48,0.07,0.86,0.11,1.21,0.11
		c0.18,0,0.36-0.01,0.54-0.03c0.52-0.06,0.98-0.24,1.37-0.52c0.36-0.26,0.66-0.64,0.9-1.13c0.45-0.92,0.43-1.93,0.33-2.62
		c-0.13-0.93-0.47-1.84-1-2.7c-0.5-0.82-1.16-1.49-1.91-1.93c-0.33-0.2-0.72-0.35-1.12-0.43
		C108.55,177.12,108.35,177.1,108.13,177.1"/>
	<path d="M147.35,174.22c-0.32,0-0.66,0.04-1,0.12c-0.47,0.11-0.93,0.31-1.32,0.59c-0.4,0.28-0.73,0.64-0.96,1.05
		c-0.23,0.42-0.36,0.92-0.36,1.47c0,0.55,0.14,1.14,0.45,1.81c0.31,0.68,0.76,1.34,1.48,2.14c0.04,0.05,0.1,0.07,0.17,0.07
		c0.13,0.06,0.22,0.1,0.31,0.1c0.46-0.15,0.84-0.27,1.22-0.39c0.38-0.12,0.76-0.24,1.13-0.38c0.38-0.14,0.72-0.29,1.04-0.45
		c0.3-0.16,0.6-0.38,0.92-0.67c0.09-0.09,0.14-0.23,0.11-0.37c0.19-0.74,0.26-1.41,0.21-2.02c-0.05-0.6-0.22-1.13-0.5-1.59
		c-0.25-0.4-0.61-0.75-1.05-1.01c-0.38-0.23-0.85-0.37-1.38-0.44C147.66,174.23,147.5,174.22,147.35,174.22"/>
	<path d="M149.93,153.85L149.93,153.85h-0.02c-0.33,0-0.68,0.08-1.02,0.22c-0.57,0.24-1.06,0.69-1.5,1.36
		c-0.21,0.33-0.37,0.68-0.49,0.98c-0.14,0.33-0.26,0.7-0.39,1.2c-0.19,0.75-0.29,1.57-0.33,2.46c-0.02,0.76,0.04,1.48,0.18,2.15
		c0.06,0.28,0.16,0.57,0.32,0.92c0.18,0.39,0.45,0.79,0.82,1.22c0.33,0.39,0.73,0.71,1.04,0.94c0.37,0.27,0.79,0.5,1.34,0.73
		c0.39,0.16,0.81,0.26,1.32,0.32c0.13,0.02,0.27,0.02,0.4,0.02c0.33,0,0.67-0.05,1.01-0.14c0.46-0.12,0.9-0.37,1.33-0.74
		c0.2-0.17,0.36-0.38,0.55-0.63c0.09-0.11,0.16-0.24,0.23-0.36c0.07-0.12,0.09-0.16,0.1-0.22c0.04-0.09,0.07-0.18,0.1-0.27
		c0.05-0.11-0.02-0.24-0.12-0.29c-0.08-1.37-0.47-2.81-1.2-4.54c-0.65-1.52-1.44-3.01-2.2-4.44l-0.13-0.24
		c0.07-0.23-0.04-0.43-0.24-0.49C150.65,153.92,150.29,153.85,149.93,153.85"/>
	<path d="M96.39,154.44c-0.06,0-0.13,0-0.18,0c-0.31,0.01-0.66,0.07-0.99,0.19c-0.34,0.11-0.66,0.3-0.93,0.54
		c-0.27,0.23-0.5,0.52-0.71,0.9c-0.19,0.34-0.32,0.76-0.41,1.28c-0.02,0.1,0,0.19,0.06,0.27c-0.02,0.08-0.03,0.17-0.04,0.26
		c-0.06,0.62,0.02,1.24,0.25,1.79c0.25,0.61,0.68,1.15,1.23,1.55c0.62,0.45,1.38,0.76,2.34,0.93c0.4,0.07,0.79,0.11,1.15,0.11
		c0.59,0,1.12-0.1,1.59-0.29c0.28-0.12,0.5-0.25,0.69-0.4c0.12-0.09,0.23-0.19,0.33-0.29c0.09-0.1,0.16-0.2,0.24-0.31
		c0.17-0.24,0.26-0.47,0.35-0.72c0.1-0.27,0.13-0.56,0.15-0.83c0.02-0.22,0.01-0.45-0.03-0.74c-0.05-0.32-0.12-0.61-0.23-0.89
		c-0.21-0.57-0.56-1.13-1.03-1.65c-0.41-0.46-0.96-0.86-1.59-1.17c-0.34-0.17-0.74-0.31-1.19-0.41
		C97.09,154.48,96.74,154.44,96.39,154.44"/>
	<path d="M93.91,156.32c-0.08,0.07-0.15,0.15-0.22,0.24c-0.04,0.06-0.09,0.12-0.13,0.18c-0.13,0.18-0.19,0.39-0.25,0.6
		c-0.02,0.07-0.03,0.14-0.03,0.2c0,0.05-0.01,0.1-0.02,0.14c0,0.1,0,0.2,0.01,0.3l0.04,0.21c0.03,0.16,0.09,0.31,0.15,0.46
		c0.03,0.06,0.06,0.11,0.12,0.15c0.06,0.03,0.13,0.04,0.19,0.02c0.12-0.04,0.22-0.19,0.17-0.31c-0.05-0.1-0.09-0.2-0.11-0.31
		c-0.03-0.08-0.04-0.16-0.06-0.25c0-0.04-0.01-0.09-0.01-0.14c0-0.09,0-0.18,0.01-0.27c0,0.01,0,0.02,0,0.03
		c0.01-0.09,0.04-0.17,0.06-0.26c-0.01,0.02-0.02,0.04-0.02,0.06c0.03-0.09,0.07-0.18,0.11-0.27c0.05-0.08,0.1-0.16,0.15-0.23
		c-0.01,0.01-0.02,0.02-0.02,0.03c0.07-0.09,0.14-0.16,0.21-0.24c0.1-0.1,0.09-0.26-0.01-0.35c-0.05-0.05-0.11-0.07-0.17-0.07
		C94.02,156.24,93.96,156.27,93.91,156.32 M93.76,157.89c0,0.01,0,0.02,0,0.03C93.77,157.92,93.76,157.91,93.76,157.89
		 M93.77,157.58c0-0.01,0-0.01,0-0.02C93.77,157.57,93.77,157.58,93.77,157.58"/>
	<path d="M93.81,156.37c-0.05,0.06-0.1,0.12-0.15,0.19c-0.03,0.04-0.06,0.09-0.09,0.13c-0.06,0.09-0.11,0.18-0.16,0.28
		c-0.03,0.07-0.06,0.14-0.09,0.21c-0.02,0.05-0.04,0.1-0.05,0.14c-0.03,0.1-0.05,0.2-0.07,0.3c-0.05,0.23-0.04,0.46-0.02,0.68
		c0.02,0.24,0.09,0.48,0.18,0.7c0.04,0.13,0.18,0.21,0.31,0.17c0.13-0.04,0.22-0.18,0.17-0.31c-0.05-0.15-0.09-0.31-0.13-0.46
		c-0.02-0.09-0.02-0.18-0.03-0.27c0-0.1,0-0.19,0.01-0.29c0.01-0.08,0.03-0.16,0.05-0.25c0.02-0.08,0.05-0.17,0.08-0.25
		c0.07-0.14,0.13-0.27,0.22-0.39c0,0,0,0,0,0.01c0.05-0.07,0.11-0.15,0.17-0.21c0.09-0.11,0.1-0.27-0.01-0.38
		c-0.05-0.04-0.12-0.07-0.19-0.07C93.93,156.28,93.86,156.31,93.81,156.37 M93.68,157.84c0,0.01,0,0.02,0,0.03
		C93.68,157.87,93.68,157.86,93.68,157.84"/>
	<path d="M93.65,156.51c-0.06,0.04-0.09,0.09-0.11,0.16c-0.04,0.11-0.08,0.22-0.11,0.34c-0.05,0.17-0.07,0.35-0.09,0.52
		c-0.03,0.26-0.01,0.52,0.02,0.78c0.01,0.07,0.02,0.12,0.07,0.17c0.05,0.05,0.12,0.07,0.18,0.07c0.13,0,0.26-0.12,0.24-0.26
		c-0.02-0.12-0.03-0.23-0.03-0.36c0-0.12,0-0.23,0.01-0.36c0,0.02,0,0.04-0.01,0.07c0.01-0.12,0.02-0.23,0.05-0.35
		c0.03-0.18,0.09-0.35,0.14-0.52c0.02-0.06,0-0.13-0.03-0.18c-0.03-0.06-0.09-0.1-0.16-0.11c-0.02,0-0.04-0.01-0.06-0.01
		C93.74,156.47,93.69,156.49,93.65,156.51"/>
	<path d="M84.91,147.68c-0.31,0-0.64,0.03-0.97,0.09c-0.69,0.12-1.32,0.31-1.88,0.58c-0.35,0.16-0.66,0.34-0.95,0.54
		c-0.09-0.05-0.15-0.08-0.21-0.08c-0.07,0-0.14,0.03-0.19,0.08c-0.36,0.33-0.62,0.66-0.8,1c-0.16,0.31-0.24,0.66-0.22,1.02
		c0.03,0.74,0.57,1.32,1.01,1.68c0.57,0.46,1.3,0.8,2.23,1.04c0.35,0.09,0.74,0.15,1.23,0.18c0.11,0.01,0.21,0.01,0.32,0.01
		c0.3,0,0.61-0.03,0.96-0.09c0.35-0.06,0.7-0.19,1.09-0.4c0.53-0.28,1.01-0.66,1.39-1.09c0.13-0.14,0.26-0.32,0.38-0.54
		c0.11-0.18,0.18-0.39,0.23-0.56c0.11-0.34,0.13-0.74,0.04-1.19c-0.04-0.17-0.11-0.33-0.18-0.49c-0.09-0.21-0.22-0.37-0.32-0.49
		c-0.26-0.32-0.61-0.59-1.04-0.82c-0.2-0.1-0.42-0.18-0.63-0.25c-0.23-0.08-0.48-0.13-0.72-0.16
		C85.42,147.7,85.17,147.68,84.91,147.68"/>
	<path d="M81.86,160.38c-0.18,0-0.36,0.02-0.54,0.04c-0.45,0.07-0.87,0.19-1.23,0.36c-0.8,0.38-1.49,1.04-2.13,2.01
		c-0.26,0.4-0.49,0.86-0.67,1.35c-0.07,0.21-0.14,0.41-0.19,0.63c-0.05,0.23-0.08,0.46-0.1,0.69c-0.01,0.13,0.09,0.23,0.19,0.28
		c0.03,0.8,0.3,1.48,0.77,1.95c0.16,0.16,0.36,0.29,0.57,0.38c0.24,0.11,0.5,0.17,0.84,0.19l0.13,0c0.26,0,0.53-0.05,0.72-0.09
		c0.36-0.08,0.69-0.22,1.08-0.4c0.63-0.3,1.18-0.71,1.63-1.21c0.22-0.25,0.42-0.54,0.61-0.86c0.19-0.32,0.32-0.66,0.43-0.96
		c0.21-0.57,0.32-1.21,0.3-1.83c-0.02-0.63-0.21-1.2-0.52-1.63c-0.08-0.11-0.17-0.2-0.26-0.3c-0.09-0.09-0.21-0.17-0.32-0.25
		c-0.21-0.14-0.48-0.25-0.82-0.31C82.19,160.39,82.03,160.38,81.86,160.38"/>
	<path d="M79.85,160.9c-0.25,0.13-0.47,0.3-0.68,0.48c-0.22,0.18-0.43,0.38-0.61,0.59c-0.39,0.43-0.71,0.93-0.97,1.46
		c-0.43,0.89-0.7,1.97-0.42,2.96c0.13,0.43,0.4,0.82,0.77,1.07c0.43,0.29,0.95,0.38,1.46,0.38c0.17,0,0.31-0.16,0.3-0.32
		c-0.01-0.18-0.15-0.29-0.32-0.3c-0.04,0-0.09,0-0.14,0c0.01,0,0.03,0,0.04,0c-0.02,0-0.03,0-0.05,0c-0.01,0-0.02,0-0.04,0
		c0.01,0,0.02,0,0.03,0c-0.19-0.02-0.37-0.06-0.54-0.12c-0.12-0.05-0.23-0.11-0.34-0.18c-0.09-0.07-0.17-0.15-0.24-0.23
		c-0.06-0.09-0.11-0.18-0.16-0.27c-0.05-0.12-0.08-0.25-0.11-0.37c-0.04-0.24-0.04-0.49-0.02-0.73c0,0.03-0.01,0.06-0.01,0.1
		c0.04-0.4,0.14-0.78,0.27-1.16c0.19-0.49,0.44-0.95,0.74-1.38c0.27-0.37,0.58-0.7,0.93-0.99c0.22-0.17,0.46-0.32,0.71-0.45
		c0.21-0.09,0.43-0.16,0.66-0.21c0.2-0.03,0.39-0.03,0.59-0.02c0.19,0.03,0.37,0.07,0.55,0.14c0.11,0.05,0.22,0.1,0.32,0.16
		c0.16,0.09,0.38,0.03,0.47-0.14c0.09-0.17,0.02-0.38-0.14-0.47c-0.23-0.13-0.47-0.23-0.72-0.3c-0.25-0.07-0.53-0.1-0.8-0.1
		C80.84,160.48,80.31,160.66,79.85,160.9 M78.09,164.16c-0.01,0.02-0.01,0.04-0.02,0.06C78.08,164.2,78.08,164.18,78.09,164.16
		 M78.36,166.93c0.01,0,0.01,0.01,0.02,0.01C78.38,166.94,78.37,166.94,78.36,166.93 M78.68,167.1c0.02,0.01,0.03,0.01,0.05,0.02
		C78.71,167.11,78.7,167.1,78.68,167.1 M79.23,167.21L79.23,167.21C79.23,167.21,79.22,167.21,79.23,167.21
		C79.22,167.21,79.22,167.21,79.23,167.21"/>
	<path d="M91.25,168.63c-0.45,0-0.86,0.08-1.24,0.24c-0.16,0.07-0.31,0.14-0.47,0.23c-0.15,0.09-0.29,0.2-0.42,0.31
		c-0.24,0.2-0.46,0.44-0.71,0.81c-0.2,0.29-0.35,0.62-0.48,0.93c-0.04,0.1-0.08,0.2-0.11,0.31c-0.19,0.3-0.36,0.64-0.49,1.01
		c-0.22,0.64-0.31,1.36-0.25,2.15c0.05,0.71,0.24,1.42,0.56,2.11c0.31,0.66,0.77,1.23,1.34,1.66c0.28,0.21,0.59,0.39,0.91,0.52
		c0.35,0.14,0.72,0.22,1.17,0.27c0.14,0.01,0.27,0.02,0.41,0.02c0.68,0,1.38-0.18,2.01-0.51c0.31-0.16,0.61-0.38,0.92-0.68
		c0.28-0.26,0.54-0.58,0.79-0.98c0.18-0.29,0.35-0.64,0.51-1.08c0.14-0.38,0.24-0.8,0.3-1.28c0.11-0.85,0.05-1.69-0.18-2.49
		c-0.23-0.81-0.66-1.54-1.26-2.13c-0.27-0.27-0.6-0.51-1.05-0.76c-0.41-0.23-0.85-0.41-1.32-0.54
		C91.88,168.67,91.56,168.63,91.25,168.63"/>
	<path d="M122.44,175.31c-0.39,0-0.76,0.08-1.08,0.23c-0.41,0.19-0.75,0.51-0.97,0.93c-0.19,0.37-0.28,0.82-0.26,1.34
		c-0.12,0.29-0.19,0.58-0.21,0.9c-0.04,0.5,0.12,1.04,0.45,1.49c0.61,0.82,1.69,1.32,2.89,1.34h0c0.59,0,1.11-0.13,1.55-0.37
		c0.2-0.11,0.4-0.27,0.58-0.46c0.19-0.21,0.33-0.46,0.44-0.77c0.08-0.24,0.13-0.52,0.13-0.87c0-0.34-0.06-0.71-0.19-1.14
		c-0.06-0.21-0.15-0.41-0.23-0.61c-0.09-0.21-0.21-0.39-0.36-0.6c-0.26-0.35-0.6-0.66-1.01-0.91c-0.2-0.13-0.44-0.22-0.65-0.31
		c-0.27-0.11-0.55-0.15-0.78-0.18C122.64,175.31,122.54,175.31,122.44,175.31"/>
	<path d="M120.99,175.97c-0.29,0.29-0.53,0.62-0.71,0.99c-0.17,0.34-0.25,0.71-0.28,1.09c-0.02,0.16,0,0.33,0.02,0.48
		c0.03,0.21,0.08,0.4,0.16,0.59c0.07,0.17,0.16,0.32,0.26,0.47c0.13,0.18,0.29,0.34,0.45,0.49c0.13,0.11,0.32,0.13,0.45,0
		c0.13-0.13,0.12-0.32,0-0.45c-0.06-0.06-0.12-0.13-0.18-0.2c-0.12-0.16-0.22-0.33-0.3-0.51c-0.05-0.15-0.09-0.29-0.12-0.45
		c-0.02-0.18-0.02-0.36,0-0.55c0.03-0.19,0.08-0.38,0.15-0.56c0.09-0.21,0.21-0.4,0.34-0.58c0.08-0.11,0.18-0.2,0.27-0.3
		c0.14-0.14,0.15-0.38,0-0.52c-0.07-0.07-0.17-0.11-0.26-0.11C121.16,175.86,121.06,175.9,120.99,175.97"/>
	<path d="M120.98,176.02c-0.16,0.13-0.29,0.25-0.43,0.41c-0.11,0.13-0.21,0.28-0.29,0.43c-0.08,0.15-0.14,0.31-0.19,0.47
		c-0.05,0.16-0.07,0.33-0.09,0.49c-0.02,0.18,0,0.36,0.02,0.53c0.02,0.17,0.06,0.33,0.12,0.5c0.11,0.34,0.31,0.63,0.53,0.89
		c0.09,0.11,0.27,0.11,0.38,0.05c0.14-0.09,0.19-0.28,0.11-0.43c-0.07-0.12-0.13-0.24-0.19-0.36c-0.07-0.19-0.13-0.38-0.17-0.57
		c-0.02-0.18-0.02-0.35-0.01-0.53c0.03-0.15,0.07-0.29,0.11-0.44c0.06-0.14,0.14-0.27,0.23-0.4c0.14-0.17,0.29-0.31,0.46-0.45
		c0.08-0.06,0.12-0.19,0.12-0.29c0-0.11-0.04-0.21-0.12-0.29c-0.08-0.07-0.18-0.12-0.29-0.12
		C121.16,175.91,121.07,175.95,120.98,176.02"/>
	<path d="M72.08,169.56c-0.26,0-0.52,0.04-0.76,0.12c-0.9,0.29-1.47,1.11-1.79,1.75c-0.08,0.16-0.04,0.34,0.11,0.43
		c-0.04,0.81-0.06,1.87,0.25,2.9c0.14,0.46,0.4,0.91,0.82,1.42c0.16,0.19,0.36,0.38,0.59,0.55c0.11,0.07,0.21,0.15,0.32,0.21
		c0.12,0.07,0.25,0.13,0.38,0.18c0.26,0.11,0.5,0.14,0.71,0.15c0.04,0,0.08,0,0.12,0c0.2,0,0.39-0.04,0.54-0.08
		c0.23-0.05,0.44-0.16,0.63-0.27c0.21-0.13,0.4-0.3,0.58-0.47c0.2-0.2,0.37-0.46,0.51-0.66c0.12-0.19,0.22-0.39,0.3-0.6
		c0.18-0.43,0.27-0.87,0.3-1.36c0.02-0.36-0.03-0.77-0.14-1.21c-0.09-0.35-0.24-0.71-0.46-1.11c-0.17-0.3-0.41-0.61-0.71-0.92
		c-0.28-0.28-0.6-0.52-0.97-0.71c-0.3-0.16-0.63-0.27-0.99-0.32C72.3,169.57,72.19,169.56,72.08,169.56"/>
	<path d="M115.21,40.29c-1.57,0-3.23,0.1-4.91,0.3c-4.47,0.53-9.05,1.73-13.63,3.56c-4.31,1.71-8.19,3.8-11.53,6.2
		c-2.12,1.51-4.13,3.25-5.99,5.16c-1.81,1.87-3.46,3.94-4.91,6.17c-2.57,3.94-4.53,8.58-5.82,13.79c-0.57,2.28-1.02,4.78-1.39,7.63
		c-0.3,2.33-0.52,4.87-0.66,7.76c-0.12,2.33-0.18,4.87-0.21,7.99c-0.03,3.35-0.02,6.34,0.03,9.15c0.1,6.18,0.42,12.34,0.68,17.02
		c0.16,2.88,0.35,5.75,0.53,8.63c0.18,2.87,0.36,5.73,0.53,8.6c0.02,0.31,0.25,0.54,0.54,0.54c0.04,0.02,0.07,0.05,0.1,0.07
		c3.44,2.29,7.33,4.23,11.58,5.77c-0.33,0.12-0.67,0.28-0.99,0.45c-0.52,0.28-1.07,0.64-1.72,1.13c-1.83,1.38-3.39,3.13-4.62,5.18
		c-1.59,2.63-2.66,5.88-3.16,9.65c-0.22,1.65-0.31,3.36-0.29,5.22c0.01,0.78,0.05,1.61,0.12,2.52l0.01,0.11
		c0.1,0.83,0.19,1.66,0.29,2.49l0.02,0.19l0.02,0.18c4.23,2.89,9.05,5.16,14.81,7c4.94,1.58,10.41,2.72,16.23,3.4
		c2.66,0.31,5.46,0.51,8.56,0.63c1.44,0.06,2.9,0.08,4.34,0.08c1.66,0,3.33-0.04,4.98-0.11c6.23-0.27,12.4-1.1,18.35-2.45
		c3.04-0.7,6.12-1.57,9.14-2.59c1.52-0.51,2.96-1.07,4.3-1.67c1.57-0.7,2.93-1.41,4.15-2.17c0.21-0.1,0.31-0.24,0.32-0.4
		c0.11-1.59,0.21-3.17,0.29-4.76c0.09-1.84,0.11-3.36,0.07-4.79c-0.04-1.63-0.18-3.2-0.41-4.67c-0.2-1.24-0.5-2.5-0.9-3.75
		c-0.78-2.46-1.88-4.6-3.25-6.36c-0.73-0.93-1.57-1.74-2.5-2.39c-0.4-0.29-0.87-0.55-1.46-0.84c-0.61-0.29-1.28-0.53-2.05-0.74
		c0.66-0.21,1.36-0.44,2.04-0.69c2.24-0.79,4.42-1.7,6.47-2.69c1.12-0.54,2.18-1.1,3.16-1.67c0.57-0.33,1.07-0.65,1.54-0.98
		c0.43-0.31,0.92-0.68,1.31-1.13c0.12-0.08,0.19-0.12,0.25-0.18c0.1-0.1,0.14-0.22,0.16-0.38c0.05-0.63,0.09-1.26,0.12-1.89
		l0.02-0.38l0.07-1.25l0.07-1.21c0.08-1.58,0.16-3.16,0.22-4.74c0.12-2.78,0.22-5.82,0.32-9.54c0.18-7.1,0.19-13.38,0.04-19.19
		c-0.08-3.06-0.23-6.19-0.46-9.57c-0.21-3.19-0.5-6.39-0.86-9.5c-0.35-3.07-0.79-6.22-1.32-9.36c-0.3-1.78-0.67-3.87-1.19-5.95
		c-1.06-4.22-2.37-7.79-3.99-10.93c-0.95-1.82-2.03-3.46-3.23-4.86c-1.25-1.47-2.65-2.62-4.16-3.42c-0.98-0.52-2.01-0.88-3.05-1.07
		c-0.5-0.1-1.04-0.15-1.61-0.16l-0.11,0c-0.24,0-0.48,0.01-0.72,0.03c0.37-0.54,0.74-1.13,1.01-1.78c0.21-0.51,0.31-0.92,0.35-1.3
		c0.03-0.27,0.03-0.53,0.01-0.79c-0.02-0.25-0.08-0.49-0.15-0.72c-0.04-0.12-0.15-0.2-0.27-0.2c-0.59,0.16-1.05,0.37-1.48,0.67
		c-0.38,0.26-0.74,0.6-1.14,1.06c-0.56,0.65-0.98,1.4-1.29,1.99c-0.11-1.33-0.43-2.41-0.96-3.31c-0.06-0.1-0.17-0.16-0.29-0.16
		c-0.09,0-0.18,0.03-0.25,0.09c-0.27,0.24-0.51,0.52-0.72,0.85c-0.2,0.3-0.35,0.67-0.49,1.16c-0.12,0.39-0.16,0.8-0.19,1.14
		c-0.02,0.25-0.02,0.51-0.02,0.76c-0.63-0.74-1.3-1.42-1.99-2.02c-0.76-0.67-1.62-1.31-2.55-1.91c-1.69-1.09-3.65-1.96-5.82-2.6
		c-1.95-0.57-4.08-0.92-6.5-1.05C116.51,40.31,115.87,40.29,115.21,40.29 M94.1,81.52c0.33-0.41,0.68-0.76,1.05-1.06
		c-0.15,0.66-0.29,1.35-0.41,2.04c-0.18,1.04-0.28,2.09-0.32,3.13c-0.04,1.02,0.03,2.08,0.19,3.14c0.18,1.11,0.52,2.14,0.98,2.98
		c0.06,0.1,0.16,0.18,0.28,0.22c0.09,0.06,0.16,0.08,0.24,0.11c0.14,0.05,0.24,0.07,0.33,0.08c0.12,0.02,0.23,0.02,0.35,0.03
		c0.02,0,0.03,0,0.05,0c0.08,0,0.12,0,0.16-0.01c2.93,0.16,5.96,0.26,9.27,0.3c2.68,0.04,5.36,0.04,8.04,0.04l1.85,0
		c1.65,0,3.3,0,4.94,0.02l1.22,0.01c0.69,0.01,1.39,0.02,2.08,0.02c0.46,0,0.91,0,1.37-0.01c1.85-0.04,3.73-0.14,5.54-0.24
		c1.18-0.07,2.36-0.13,3.54-0.18c1.18-0.05,2.27-0.07,3.32-0.07c0.83,0,1.67,0.02,2.5,0.05c0.9,0.04,1.85,0.11,2.82,0.21
		c0.88,0.1,1.77,0.25,2.62,0.41c0.1,0.14,0.18,0.2,0.27,0.23c0.03,0,0.06,0,0.08,0c0.11,0,0.16-0.02,0.21-0.04l0.17-0.07
		c0.56-0.23,1.09-0.38,1.62-0.45c0.19-0.02,0.37-0.03,0.56-0.03c0.15,0,0.3,0.01,0.45,0.02c0.29,0.04,0.56,0.11,0.82,0.21
		c0.29,0.13,0.52,0.26,0.74,0.42c0.23,0.18,0.45,0.4,0.66,0.66c0.26,0.34,0.48,0.72,0.68,1.17c0.25,0.62,0.41,1.25,0.51,1.95
		c0.12,0.92,0.12,1.92,0,2.93h0c-0.14,1.06-0.41,2.08-0.8,3.04l0,0c-0.34,0.81-0.76,1.53-1.23,2.15c-0.38,0.48-0.8,0.9-1.25,1.26
		c-0.22,0.17-0.4,0.29-0.59,0.4c-0.31,0.19-0.64,0.34-0.92,0.46l0.01,0c-0.31,0.13-0.62,0.24-0.94,0.34
		c-0.35,0.11-0.72,0.2-1.14,0.27c-0.28,0.03-0.55,0.05-0.84,0.05l-0.23,0c-0.04,0-0.08,0-0.11,0.02l0.04-0.18l0.03-0.22
		c0.1-0.83,0.18-1.68,0.24-2.6c0.04-0.46,0.06-0.91,0.08-1.37c0.01-0.24,0.01-0.49,0.02-0.73c0-0.2,0.01-0.41,0.01-0.61
		c0-0.11-0.04-0.21-0.12-0.29c-0.08-0.09-0.19-0.13-0.31-0.13c-0.23,0-0.41,0.18-0.43,0.42c-0.03,0.49-0.09,0.97-0.14,1.46
		l-0.06,0.57c-0.07,0.69-0.15,1.37-0.25,2.06c-0.48,3.43-1.25,7.92-3.01,12.18c0,0-0.02,0.07-0.02,0.07c0,0-0.01,0.05-0.01,0.05
		c-1.19,2.74-2.73,5.35-4.59,7.76l0.09-0.08c-1.84,2.34-3.86,4.38-6.02,6.06c-0.93,0.71-1.89,1.37-2.87,1.96
		c-1.03,0.61-2.11,1.16-3.23,1.64c-0.94,0.4-1.85,0.72-2.77,0.99c-0.94,0.27-1.96,0.49-3.03,0.64c-0.42,0.05-0.92,0.1-1.41,0.14
		c-0.15,0.01-0.26,0.12-0.26,0.26c0,0.14,0.12,0.26,0.25,0.26c1.21-0.08,2.42-0.25,3.6-0.51c1.15-0.25,2.3-0.6,3.52-1.06l0.19-0.07
		l0.02,0.77c0.03,0.66,0.06,1.33,0.12,1.99c0.04,0.43,0.11,0.88,0.21,1.33c0.09,0.4,0.24,0.82,0.45,1.27
		c-0.11,0.14-0.23,0.27-0.36,0.4c-0.22,0.21-0.46,0.41-0.69,0.6c-0.53,0.41-1.04,0.75-1.57,1.07c-0.45,0.27-0.95,0.53-1.54,0.79
		c-1.18,0.5-2.47,0.86-3.83,1.07c-0.76,0.09-1.49,0.14-2.22,0.14c-0.8,0-1.62-0.05-2.43-0.16c-0.86-0.12-1.69-0.29-2.47-0.51
		c-0.75-0.2-1.55-0.47-2.37-0.81c-1.38-0.58-2.68-1.33-3.87-2.22c-0.21-0.16-0.42-0.33-0.62-0.5c0.14-0.27,0.25-0.55,0.32-0.85
		c0.04-0.14,0.06-0.28,0.08-0.42l0.02-0.12c0.03-0.21,0.05-0.42,0.06-0.64c0.06-0.82-0.01-1.63-0.07-2.25
		c0.65,0.21,1.28,0.38,1.91,0.52c1.45,0.32,2.92,0.49,4.38,0.5c0.15,0,0.27-0.12,0.27-0.27c0-0.14-0.12-0.27-0.27-0.27
		c-0.81,0-1.63-0.06-2.44-0.16c-1.72-0.24-3.58-0.76-5.45-1.53c-2.38-1.01-4.73-2.41-7.02-4.18c-2.49-1.93-4.79-4.22-6.78-6.75
		c-0.87-1.13-1.68-2.31-2.38-3.51c-0.83-1.41-1.48-2.87-2.01-4.12c-1.67-3.99-2.82-8.14-3.4-12.26l-0.01-0.1
		c-0.12-0.94-0.22-1.88-0.28-2.8c-0.01-0.15-0.05-0.26-0.14-0.34c-0.09-0.09-0.22-0.14-0.34-0.14c-0.26,0-0.48,0.22-0.48,0.48
		c0,2.24,0.26,4.6,0.78,7.03c-0.39-0.11-0.79-0.21-1.19-0.34c-0.78-0.28-1.53-0.65-2.22-1.08c-0.42-0.28-0.79-0.6-1.13-0.97
		c-0.43-0.5-0.79-1.02-1.1-1.6c-0.43-0.85-0.75-1.78-0.96-2.77c-0.2-1.01-0.27-2.01-0.23-2.99h0c0.05-0.88,0.2-1.72,0.45-2.49
		c0.17-0.51,0.39-0.95,0.64-1.36c0.26-0.38,0.49-0.64,0.73-0.87c0.23-0.2,0.48-0.38,0.75-0.52c0.31-0.15,0.61-0.26,0.91-0.32
		c0.27-0.05,0.56-0.08,0.85-0.08c0.09,0,0.18,0,0.27,0.01c0.49,0.04,0.99,0.15,1.53,0.33l0.11,0.04c0.12,0.04,0.18,0.06,0.24,0.06
		c0.04,0,0.08-0.01,0.12-0.02c0.09-0.03,0.17-0.1,0.22-0.19c0.05-0.09,0.05-0.22,0.01-0.33c-0.04-0.09-0.1-0.16-0.18-0.19
		c-0.28-0.1-0.57-0.19-0.86-0.27c0.19-0.04,0.39-0.09,0.59-0.13c0.92-0.16,1.83-0.18,2.61-0.18l0.63,0l0.63,0
		c0.5,0,1.01-0.03,1.51-0.06c1.89-0.12,3.92-0.45,6.41-1.02c0.16-0.04,0.24-0.19,0.27-0.31c0.05-0.07,0.07-0.16,0.07-0.24
		c-0.08-1.08-0.03-2.24,0.13-3.55l0,0c0.22-1.64,0.59-3.06,1.13-4.36C93.27,82.78,93.65,82.11,94.1,81.52L94.1,81.52z M125.7,141.29
		L125.7,141.29c-0.1-0.33-0.19-0.67-0.28-1.01c-0.05-0.23-0.11-0.46-0.14-0.69c0.01,0.03,0.04,0.05,0.07,0.07
		c0.1,0.04,0.21,0.08,0.31,0.13l0.16,0.07l0.31,0.18c0.24,0.14,0.47,0.31,0.69,0.48c0.31,0.26,0.57,0.52,0.8,0.8
		c0.19,0.25,0.34,0.51,0.47,0.81c0.08,0.21,0.14,0.43,0.17,0.65c0.02,0.23,0.02,0.46,0,0.69c-0.04,0.27-0.11,0.52-0.21,0.75
		c-0.13,0.3-0.3,0.58-0.5,0.85c-0.29,0.38-0.65,0.73-1.09,1.08c-0.55,0.41-1.17,0.77-1.83,1.07c-0.49,0.21-1.03,0.39-1.58,0.52
		c-0.09,0.02-0.17,0.08-0.21,0.16c-0.05,0.09-0.07,0.19-0.04,0.29c0.02,0.09,0.08,0.17,0.17,0.22c0.05,0.03,0.11,0.05,0.18,0.05
		c0.03,0,0.07,0,0.1-0.01c0.31-0.06,0.62-0.13,0.92-0.21c0.3-0.08,0.61-0.19,0.98-0.34c0.56-0.23,1.11-0.52,1.61-0.88
		c0.46-0.33,0.88-0.71,1.23-1.14c0.14-0.17,0.26-0.34,0.38-0.52c0.04,0.16,0.1,0.33,0.15,0.49c0.1,0.31,0.17,0.63,0.22,1.03
		c0.01,0.1,0.02,0.27,0.02,0.44c0,0.18-0.02,0.35-0.04,0.52c-0.06,0.42-0.17,0.82-0.33,1.22c-0.16,0.37-0.37,0.72-0.62,1.07
		c-0.35,0.45-0.77,0.87-1.26,1.26c-0.75,0.57-1.58,1.04-2.56,1.47c-1.85,0.77-3.85,1.28-6.18,1.6c-1.14,0.15-2.31,0.24-3.44,0.25h0
		c-1.29,0-2.57-0.09-3.88-0.26c-1.96-0.26-3.7-0.71-5.26-1.35c-0.91-0.39-1.68-0.83-2.37-1.35c-0.43-0.33-0.86-0.75-1.22-1.21
		c-0.26-0.35-0.51-0.77-0.69-1.2c-0.16-0.41-0.27-0.83-0.34-1.26c-0.06-0.51-0.06-1.03,0-1.56c0.04-0.26,0.08-0.51,0.14-0.76
		c0.1,0.18,0.24,0.35,0.38,0.5c0.18,0.2,0.4,0.4,0.69,0.62c0.53,0.41,1.16,0.77,1.96,1.14c0.73,0.33,1.49,0.61,2.23,0.88
		c0.58,0.21,1.16,0.42,1.73,0.66c0.14,0.06,0.18,0.08,0.23,0.08c0.13-0.03,0.18-0.07,0.21-0.13c0.04-0.06,0.04-0.15,0.02-0.23
		c-0.02-0.06-0.06-0.11-0.11-0.13c-0.64-0.28-1.29-0.52-1.95-0.75c-0.59-0.22-1.19-0.43-1.77-0.68c-0.92-0.4-1.63-0.79-2.24-1.25
		c-0.29-0.24-0.54-0.49-0.76-0.75c-0.17-0.23-0.32-0.47-0.44-0.75c-0.13-0.33-0.22-0.64-0.27-0.97c-0.03-0.32-0.03-0.63,0.01-0.92
		c0.04-0.26,0.11-0.51,0.2-0.75c0.11-0.26,0.24-0.48,0.39-0.69c0.14-0.17,0.3-0.33,0.48-0.48c0.16-0.12,0.34-0.22,0.53-0.31
		c0.22-0.08,0.4-0.14,0.59-0.17c-0.04,0.18-0.07,0.38-0.1,0.58c-0.02,0-0.05,0-0.07,0c-0.09,0-0.15,0.03-0.2,0.08
		c-0.06,0.06-0.09,0.14-0.09,0.23c0,0.08,0.03,0.16,0.09,0.21c0.74,0.67,1.55,1.29,2.39,1.84c0.88,0.57,1.86,1.09,2.9,1.54
		c0.99,0.42,2.03,0.77,3.1,1.04c1,0.25,2.09,0.41,3.25,0.5c0.38,0.03,0.76,0.04,1.14,0.04c0.7,0,1.42-0.04,2.15-0.13
		c1.1-0.14,2.16-0.38,3.15-0.72c1-0.35,1.98-0.83,2.89-1.44c0.47-0.31,0.94-0.68,1.39-1.09c0.44-0.4,0.87-0.88,1.31-1.47
		c0.1-0.14,0.05-0.35-0.06-0.46c-0.07-0.07-0.18-0.11-0.29-0.11L125.7,141.29z M81.19,149.27L81.19,149.27
		c1.14-0.39,2.34-0.64,3.67-0.77c0.57-0.04,1.18-0.07,1.8-0.07c2.1,0,4.2,0.25,6.23,0.5c2.03,0.24,4.13,0.5,6.2,0.5
		c0.38,0,0.76-0.01,1.14-0.03c0.08,0.24,0.19,0.47,0.31,0.7c0.33,0.62,0.83,1.22,1.47,1.77c0.57,0.5,1.24,0.93,2.06,1.34
		c1.42,0.71,3.1,1.23,5.14,1.59c1.66,0.29,3.39,0.44,5.14,0.44c1.4,0,2.93-0.13,4.65-0.4c2.06-0.31,3.84-0.79,5.44-1.47
		c0.89-0.38,1.65-0.79,2.31-1.26c0.33-0.24,0.64-0.49,0.92-0.75c0.27-0.25,0.54-0.56,0.81-0.93c0.35-0.48,0.6-1.03,0.76-1.63
		c0.03,0.07,0.1,0.12,0.16,0.14c1.01,0.28,2.11,0.46,3.37,0.55c0.61,0.04,1.22,0.06,1.82,0.06c0.63,0,1.26-0.02,1.89-0.03l0.72-0.02
		c0.85-0.03,1.69-0.05,2.54-0.05c1.55,0,2.8,0.09,3.94,0.3c0.46,0.09,0.91,0.2,1.37,0.34c0.47,0.14,0.95,0.32,1.48,0.57
		c0.46,0.23,0.82,0.43,1.14,0.64c0.29,0.19,0.6,0.42,0.93,0.7c0.75,0.66,1.44,1.42,2.09,2.34c0.96,1.41,1.72,2.91,2.35,4.65
		c0.31,0.88,0.59,1.8,0.81,2.72c0.29,1.18,0.5,2.47,0.63,3.95c0.14,1.76,0.16,3.61,0.07,5.9c-0.04,0.94-0.09,1.87-0.15,2.81
		c-0.06,1.03-0.12,2.07-0.16,3.1l-0.31,0.15l-0.31,0.15l-0.74,0.36l-0.67,0.32c-1.45,0.69-2.88,1.31-4.3,1.86
		c-1.4,0.55-2.91,1.07-4.75,1.63c-3.12,0.96-6.4,1.77-9.75,2.41c-6.17,1.17-12.78,1.77-19.54,1.77c-3.07,0-6.21-0.12-9.36-0.37
		c-3.82-0.3-7.54-0.82-11.11-1.54c-3.85-0.76-7.56-1.79-11.05-3.03c-4.56-1.66-8.6-3.67-12.06-6.02c-0.04-0.91-0.08-1.82-0.11-2.73
		c-0.02-0.9-0.02-1.86,0.01-2.95c0.05-2.04,0.25-3.99,0.58-5.81c0.45-2.33,1.12-4.42,2-6.26c0.68-1.38,1.53-2.7,2.51-3.87l0,0
		c0.93-1.07,1.98-2.02,3.12-2.81c0.83-0.56,1.73-1.03,2.7-1.39c0,0,0.02-0.01,0.04-0.02l0,0l0,0c0,0,0.01,0,0.01,0l0,0l0,0
		c0.01,0,0.01-0.01,0.01-0.01c0,0,0.03-0.02,0.04-0.02C81.18,149.25,81.18,149.26,81.19,149.27
		C81.18,149.26,81.18,149.27,81.19,149.27"/>
	<path d="M108.8,94.42c-0.04,2.37-0.06,4.75-0.37,7.1l0.01-0.07c-0.11,0.77-0.25,1.54-0.43,2.29c-0.19,0.77-0.44,1.53-0.74,2.27
		c0,0,0,0,0,0c-0.15,0.35-0.31,0.69-0.49,1.02c-0.17,0.32-0.37,0.62-0.59,0.91c-0.32,0.42-0.69,0.81-1.03,1.22
		c-0.27,0.32-0.54,0.66-0.69,1.06c-0.07,0.17-0.12,0.35-0.13,0.54c-0.02,0.24,0.01,0.46,0.06,0.7c0.05,0.23,0.15,0.45,0.25,0.66
		c0.16,0.34,0.39,0.66,0.62,0.96c0.16,0.21,0.34,0.41,0.52,0.6c0.22,0.22,0.48,0.42,0.73,0.61c0.49,0.36,1.06,0.63,1.63,0.85
		c0.58,0.22,1.19,0.34,1.81,0.41c0.64,0.07,1.29,0.02,1.92-0.11c0.2-0.04,0.31-0.27,0.26-0.46c-0.03-0.09-0.09-0.18-0.17-0.22
		c-0.09-0.05-0.18-0.05-0.29-0.04c-0.09,0.02-0.18,0.03-0.27,0.04c0.04,0,0.07-0.01,0.1-0.01c-0.28,0.03-0.56,0.05-0.84,0.05
		c-0.29,0-0.58-0.03-0.86-0.06l0.11,0.01c-0.34-0.05-0.67-0.11-1-0.2c-0.33-0.09-0.65-0.21-0.96-0.34
		c-0.44-0.21-0.86-0.45-1.25-0.74c0.02,0.02,0.04,0.03,0.06,0.05c-0.03-0.02-0.05-0.04-0.08-0.06c0,0,0,0,0,0c0,0,0,0,0,0
		c-0.16-0.13-0.31-0.26-0.46-0.4c-0.16-0.16-0.3-0.33-0.44-0.5c0,0,0.01,0.01,0.01,0.02c-0.23-0.31-0.44-0.63-0.6-0.98
		c-0.06-0.16-0.11-0.32-0.14-0.49c-0.01-0.12-0.01-0.23,0-0.34c0.02-0.13,0.05-0.25,0.1-0.37c0.1-0.21,0.22-0.41,0.36-0.59
		c0.31-0.4,0.65-0.77,0.96-1.17c0.16-0.2,0.31-0.41,0.45-0.62c0.2-0.29,0.37-0.61,0.52-0.93c0.62-1.25,1-2.6,1.27-3.96
		c0.27-1.39,0.4-2.82,0.48-4.24c0.08-1.47,0.09-2.95,0.11-4.42c0-0.14-0.11-0.25-0.25-0.25C108.92,94.17,108.81,94.28,108.8,94.42
		 M106.19,107.94c-0.01,0.01-0.01,0.02-0.02,0.03C106.18,107.96,106.19,107.95,106.19,107.94 M105.55,109.72
		c0,0.01-0.01,0.01-0.02,0.02C105.54,109.74,105.54,109.73,105.55,109.72 M105.75,112.47c0.01,0.02,0.03,0.03,0.04,0.05
		C105.77,112.5,105.76,112.49,105.75,112.47 M108,114.21c0.02,0.01,0.03,0.01,0.05,0.02C108.03,114.22,108.02,114.22,108,114.21
		 M106.69,113.43c0.01,0,0.01,0.01,0.02,0.01C106.7,113.44,106.69,113.44,106.69,113.43"/>
	<path d="M78.1,98.57c-0.06,0.03-0.09,0.08-0.12,0.15c-0.1,0.26-0.19,0.52-0.25,0.79c-0.08,0.29-0.12,0.59-0.16,0.89
		c-0.07,0.58-0.03,1.17,0.06,1.74c0.09,0.57,0.29,1.13,0.54,1.64c0.27,0.56,0.67,1.06,1.13,1.47c0.1,0.09,0.25,0.1,0.35,0
		c0.09-0.09,0.1-0.26,0-0.35c-0.2-0.18-0.38-0.37-0.55-0.58c0.01,0.01,0.01,0.01,0.01,0.02c-0.01-0.01-0.02-0.03-0.03-0.04
		c0,0-0.01-0.01-0.01-0.01c0,0,0,0,0,0c-0.13-0.17-0.24-0.35-0.35-0.53c-0.11-0.19-0.2-0.38-0.29-0.58c0,0.01,0.01,0.01,0.01,0.02
		c-0.09-0.21-0.16-0.43-0.23-0.66c-0.07-0.25-0.11-0.52-0.15-0.78c0,0.01,0,0.02,0,0.02c0-0.01,0-0.03,0-0.04c0-0.01,0-0.02,0-0.03
		c0,0.01,0,0.01,0,0.02c-0.02-0.22-0.04-0.44-0.04-0.65c-0.01-0.26,0.01-0.52,0.04-0.78c0,0,0,0.01,0,0.01c0-0.01,0-0.01,0-0.02
		c0-0.02,0-0.03,0-0.05c0,0,0,0.01,0,0.02c0.03-0.21,0.07-0.42,0.12-0.63c0.06-0.27,0.16-0.53,0.26-0.78c0.02-0.06,0-0.14-0.03-0.2
		c-0.03-0.05-0.08-0.1-0.15-0.11c-0.02-0.01-0.04-0.01-0.06-0.01C78.18,98.54,78.14,98.55,78.1,98.57 M79.09,104.31
		c0.01,0.01,0.01,0.01,0.02,0.02C79.1,104.32,79.1,104.31,79.09,104.31C79.09,104.3,79.09,104.3,79.09,104.31 M78.08,101.75
		c0,0.01,0,0.01,0,0.02C78.08,101.76,78.08,101.76,78.08,101.75C78.08,101.75,78.08,101.75,78.08,101.75 M78.08,100.3
		c0,0,0,0.01,0,0.01c0-0.01,0-0.03,0-0.04C78.08,100.28,78.08,100.29,78.08,100.3"/>
	<path d="M75.9,97.05c-0.41,0.07-0.82,0.23-1.18,0.43c-0.13,0.07-0.16,0.24-0.09,0.36c0.04,0.06,0.09,0.1,0.16,0.12
		c0.07,0.02,0.13,0,0.2-0.02c0.05-0.03,0.11-0.05,0.16-0.07l0,0c0,0,0,0,0,0c0.02-0.01,0.03-0.01,0.05-0.02
		c-0.01,0-0.02,0.01-0.03,0.01c0.31-0.12,0.62-0.21,0.95-0.27c0.11-0.01,0.23-0.02,0.34-0.03c0.14-0.01,0.28,0.01,0.41,0.02
		c0.14,0.03,0.28,0.07,0.42,0.12c0.11,0.05,0.2,0.11,0.3,0.18c0.08,0.07,0.15,0.14,0.21,0.21c0.04,0.05,0.08,0.1,0.11,0.16
		c0.03,0.06,0.06,0.12,0.09,0.18c0-0.01-0.01-0.02-0.01-0.02c0.04,0.08,0.06,0.16,0.09,0.25c0.04,0.13,0.17,0.21,0.31,0.18
		c0.13-0.04,0.22-0.18,0.18-0.31c-0.06-0.19-0.13-0.36-0.22-0.53c-0.08-0.15-0.19-0.29-0.31-0.41c-0.11-0.12-0.25-0.22-0.39-0.3
		c-0.17-0.11-0.37-0.17-0.56-0.22C76.89,97.02,76.72,97,76.54,97c-0.03,0-0.06,0-0.1,0C76.26,96.99,76.08,97.02,75.9,97.05
		 M77.59,97.89c0.01,0.01,0.02,0.01,0.03,0.02C77.61,97.91,77.6,97.9,77.59,97.89 M75.13,97.86L75.13,97.86c0,0,0.01,0,0.02-0.01
		C75.14,97.85,75.14,97.86,75.13,97.86"/>
	<path d="M146.65,96.68c-0.13,0.07-0.15,0.22-0.09,0.34c0.05,0.11,0.11,0.22,0.15,0.33c0.1,0.25,0.19,0.51,0.26,0.77
		c0.09,0.32,0.15,0.65,0.2,0.98c0,0,0,0,0-0.01c0,0,0,0.01,0,0.01c0,0,0,0.01,0,0.01c0,0,0-0.01,0-0.01
		c0.03,0.28,0.05,0.57,0.05,0.85c0,0.35-0.02,0.69-0.07,1.03c0-0.02,0.01-0.04,0.01-0.07c-0.04,0.26-0.09,0.51-0.15,0.76
		c-0.07,0.27-0.16,0.53-0.26,0.79c-0.08,0.19-0.17,0.37-0.27,0.55c-0.11,0.21-0.24,0.4-0.38,0.58c-0.1,0.13-0.21,0.25-0.32,0.37
		c-0.14,0.15-0.29,0.28-0.45,0.41c-0.13,0.09-0.25,0.18-0.39,0.27c-0.12,0.07-0.16,0.22-0.09,0.34c0.07,0.12,0.23,0.16,0.34,0.09
		c0.31-0.19,0.59-0.41,0.86-0.66c0.28-0.27,0.53-0.59,0.74-0.93c0.2-0.3,0.34-0.63,0.48-0.96c0.16-0.39,0.27-0.81,0.35-1.23
		c0.14-0.76,0.15-1.55,0.05-2.32c-0.05-0.38-0.13-0.75-0.23-1.12c-0.11-0.38-0.26-0.75-0.43-1.1c-0.04-0.08-0.13-0.12-0.22-0.12
		C146.73,96.65,146.68,96.66,146.65,96.68 M147.17,99.11C147.17,99.11,147.17,99.11,147.17,99.11
		C147.17,99.11,147.17,99.11,147.17,99.11C147.17,99.11,147.17,99.11,147.17,99.11"/>
	<path d="M149.14,95.13c-0.17,0-0.34,0.04-0.5,0.07c-0.2,0.04-0.38,0.11-0.56,0.18c-0.27,0.11-0.52,0.26-0.75,0.44
		c-0.16,0.13-0.31,0.26-0.45,0.4c-0.13,0.13-0.23,0.27-0.33,0.41c-0.04,0.05-0.04,0.14-0.02,0.2c0.02,0.06,0.06,0.12,0.11,0.15
		c0.06,0.04,0.13,0.04,0.19,0.02c0.07-0.02,0.11-0.06,0.15-0.11c0.02-0.03,0.04-0.06,0.06-0.09c0.09-0.11,0.19-0.22,0.3-0.33
		c0.1-0.09,0.2-0.18,0.31-0.26c0.08-0.05,0.15-0.11,0.23-0.16c0.12-0.08,0.25-0.14,0.38-0.2c0.12-0.05,0.24-0.09,0.37-0.13
		c0.13-0.04,0.27-0.06,0.4-0.08c0.09-0.01,0.18-0.01,0.27-0.02c0.13,0,0.27,0.01,0.4,0.03c0.1,0.01,0.19,0.03,0.29,0.06
		c0.13,0.03,0.27-0.04,0.31-0.17c0.04-0.13-0.04-0.28-0.17-0.31c-0.13-0.03-0.25-0.05-0.37-0.07c-0.1-0.02-0.2-0.02-0.3-0.03
		c-0.04,0-0.08,0-0.13,0C149.25,95.12,149.2,95.12,149.14,95.13 M149.05,95.63c-0.01,0-0.01,0-0.02,0L149.05,95.63z"/>
	<path d="M76.89,107.07c0,0.55,0.45,1,1,1c0.55,0,1-0.45,1-1c0-0.55-0.45-1-1-1C77.34,106.07,76.89,106.52,76.89,107.07"/>
	<path d="M145.54,106c0,0.55,0.45,1,1,1c0.55,0,1-0.45,1-1s-0.45-1-1-1C146,105,145.54,105.45,145.54,106"/>
	<path d="M129.25,95.26c-0.5,0-0.99,0.04-1.45,0.11c-0.96,0.15-1.74,0.35-2.46,0.64c-0.84,0.33-1.52,0.68-2.1,1.07
		c-0.69,0.47-1.27,0.98-1.72,1.51c-0.5,0.58-0.93,1.21-1.28,1.9c-0.05,0.11-0.06,0.23-0.02,0.34c0.04,0.11,0.12,0.21,0.23,0.26
		c0.06,0.03,0.13,0.05,0.2,0.05c0.17,0,0.33-0.09,0.41-0.25c0.1-0.21,0.22-0.41,0.35-0.6l-0.01,0.01c0.3-0.43,0.64-0.81,1.03-1.16
		c0.52-0.43,1.11-0.81,1.74-1.12c0.27-0.12,0.55-0.23,0.83-0.33c-0.14,0.86-0.15,1.61-0.06,2.28c0.11,0.8,0.3,1.41,0.6,1.91
		c0.32,0.53,0.72,0.93,1.16,1.16c0.24,0.13,0.48,0.21,0.7,0.25c0.15,0.02,0.31,0.04,0.47,0.04c0.07,0,0.14,0,0.21-0.01
		c0.22-0.02,0.48-0.06,0.71-0.17c0.26-0.11,0.47-0.24,0.66-0.38c0.43-0.35,0.77-0.79,0.98-1.3c0.15-0.37,0.24-0.66,0.29-0.95
		c0.07-0.39,0.1-0.76,0.09-1.12c-0.01-0.61-0.1-1.23-0.27-1.9c0.37,0.1,0.76,0.2,1.14,0.33c0.89,0.34,1.72,0.75,2.45,1.23l0.3,0.22
		c0.28,0.21,0.56,0.43,0.88,0.58c0.1,0.05,0.21,0.08,0.32,0.08c0.07,0,0.14-0.01,0.2-0.03l0.23-0.02c0.16-0.03,0.31-0.05,0.45-0.09
		c0.28-0.1,0.61-0.22,0.92-0.42c0.31-0.2,0.57-0.4,0.79-0.6c0.27-0.24,0.52-0.5,0.76-0.77c0.09-0.1,0.12-0.2,0.1-0.31
		c-0.02-0.08-0.07-0.16-0.14-0.21c-0.05-0.04-0.11-0.05-0.18-0.05c-0.16,0.03-0.22,0.09-0.27,0.15l-0.1,0.12
		c-0.09,0.11-0.22,0.26-0.37,0.38c-0.12,0.1-0.23,0.19-0.36,0.28c-0.27,0.18-0.63,0.36-1.04,0.51l-0.26,0.08
		c-0.01-0.03,0.04-0.06,0.09-0.09c0.16-0.09,0.31-0.19,0.45-0.31c0.12-0.11,0.23-0.21,0.34-0.33c0.05-0.05,0.1-0.12,0.1-0.22
		c0-0.08-0.02-0.16-0.08-0.23c-0.05-0.06-0.13-0.1-0.21-0.1c-0.08,0-0.17,0.02-0.23,0.08c-0.1,0.12-0.21,0.23-0.33,0.33
		c-0.08,0.06-0.15,0.12-0.23,0.18c-0.07,0.05-0.15,0.09-0.23,0.13l-0.12-0.19c0.1-0.05,0.21-0.11,0.31-0.19
		c0.13-0.09,0.25-0.19,0.37-0.3c0.1-0.09,0.11-0.26,0.02-0.37c-0.05-0.05-0.12-0.09-0.2-0.09c-0.07,0-0.12,0.02-0.17,0.07
		c-0.11,0.1-0.23,0.19-0.35,0.28c-0.13,0.09-0.22,0.15-0.32,0.2c-0.3-0.35-0.57-0.6-0.83-0.8c-0.69-0.51-1.37-0.89-2.1-1.15
		c-0.34-0.12-0.78-0.27-1.25-0.37c-0.38-0.08-0.76-0.13-1.14-0.17C129.92,95.28,129.59,95.26,129.25,95.26 M126.65,98.18
		c0,0-0.01-0.01,0-0.01c0,0,0-0.03,0-0.03c-0.01-0.16,0-0.32,0.01-0.49c0.02-0.13,0.04-0.25,0.07-0.37
		c0.27-0.02,0.54-0.05,0.81-0.06c-0.01,0.11-0.02,0.23-0.03,0.35c-0.04,0.2-0.08,0.39-0.15,0.58c-0.04,0.09-0.09,0.18-0.15,0.27
		c-0.04,0.05-0.09,0.1-0.14,0.14c-0.03,0.02-0.06,0.04-0.09,0.05h0c-0.01,0-0.11,0-0.11,0l-0.1-0.08l0.01,0
		C126.7,98.41,126.68,98.31,126.65,98.18L126.65,98.18"/>
	<path d="M93.28,95.76c-0.34,0-0.67,0.02-1.01,0.05c-0.38,0.04-0.76,0.09-1.14,0.17c-0.47,0.1-0.91,0.25-1.25,0.37
		c-0.73,0.26-1.41,0.64-2.1,1.15c-0.26,0.2-0.53,0.45-0.81,0.76c-0.1,0-0.17-0.05-0.24-0.09l-0.1-0.06l-0.16-0.13l-0.18-0.15
		c-0.05-0.04-0.11-0.07-0.17-0.07c-0.07,0-0.15,0.03-0.2,0.08c-0.05,0.05-0.07,0.12-0.07,0.19c0,0.07,0.03,0.13,0.08,0.18
		c0.12,0.11,0.24,0.21,0.37,0.3c0.1,0.07,0.21,0.14,0.31,0.2l-0.1,0.12c-0.01,0-0.02,0-0.03,0c-0.08,0-0.15-0.04-0.22-0.08
		c-0.08-0.06-0.16-0.12-0.23-0.18c-0.13-0.1-0.23-0.21-0.34-0.33c-0.05-0.06-0.15-0.08-0.21-0.08c-0.1,0-0.18,0.04-0.23,0.1
		c-0.06,0.06-0.08,0.14-0.08,0.23c0,0.1,0.06,0.17,0.11,0.22c0.11,0.12,0.21,0.22,0.34,0.33c0.13,0.12,0.29,0.22,0.45,0.31
		c0.05,0.03,0.1,0.06,0.16,0.08l-0.33-0.07l0,0c-0.41-0.15-0.78-0.33-1.11-0.55c-0.05-0.04-0.17-0.14-0.28-0.23
		c-0.15-0.12-0.27-0.27-0.4-0.42l-0.07-0.09c-0.05-0.06-0.11-0.12-0.21-0.14h-0.04c-0.1,0-0.15,0.02-0.2,0.04
		c-0.07,0.04-0.13,0.12-0.14,0.21c-0.02,0.11,0.01,0.2,0.1,0.31c0.24,0.27,0.49,0.52,0.76,0.77c0.22,0.2,0.48,0.39,0.79,0.6
		c0.31,0.2,0.64,0.32,0.92,0.42c0.14,0.05,0.29,0.07,0.44,0.09l0.13,0.01l0.12,0.01c0.06,0.02,0.13,0.03,0.2,0.03
		c0.11,0,0.23-0.03,0.32-0.08c0.32-0.16,0.61-0.38,0.89-0.59l0.29-0.22c0.74-0.48,1.56-0.89,2.46-1.23
		c0.38-0.13,0.76-0.23,1.15-0.32c-0.18,0.63-0.27,1.27-0.28,1.89c-0.01,0.36,0.02,0.74,0.09,1.12c0.05,0.29,0.14,0.58,0.29,0.95
		c0.21,0.51,0.55,0.96,0.98,1.3c0.19,0.15,0.39,0.27,0.66,0.38c0.24,0.11,0.49,0.15,0.71,0.17c0.07,0.01,0.14,0.01,0.21,0.01
		c0.16,0,0.31-0.02,0.47-0.04c0.22-0.04,0.46-0.12,0.7-0.25c0.45-0.23,0.85-0.63,1.16-1.16c0.3-0.5,0.49-1.1,0.6-1.91
		c0.09-0.67,0.08-1.42-0.05-2.29c0.27,0.1,0.54,0.22,0.81,0.34c0.63,0.31,1.2,0.67,1.74,1.12c0.39,0.35,0.73,0.73,1.03,1.15h0
		c0.13,0.19,0.25,0.39,0.35,0.6c0.08,0.15,0.24,0.25,0.41,0.25c0.07,0,0.14-0.02,0.2-0.05c0.11-0.05,0.19-0.15,0.23-0.26
		c0.04-0.12,0.03-0.24-0.02-0.34c-0.35-0.68-0.78-1.32-1.28-1.9c-0.46-0.53-1.04-1.04-1.72-1.51c-0.57-0.39-1.26-0.74-2.1-1.07
		c-0.72-0.28-1.5-0.49-2.46-0.64C94.26,95.8,93.77,95.76,93.28,95.76 M94.12,99.05l-0.01-0.01l-0.09-0.01L93.99,99l-0.08-0.06
		l-0.03-0.07c-0.04-0.11-0.06-0.17-0.08-0.23c-0.02-0.14-0.02-0.26,0-0.4c0.03-0.18,0.07-0.35,0.12-0.52c0.18,0,0.37,0,0.55,0
		l0.31,0c0,0.13-0.01,0.26-0.03,0.39c-0.03,0.19-0.07,0.32-0.12,0.46c-0.04,0.09-0.09,0.17-0.15,0.25
		c-0.03,0.04-0.07,0.08-0.11,0.12c-0.04,0.03-0.08,0.05-0.13,0.08c-0.03,0.01-0.07,0.02-0.1,0.02L94.12,99.05L94.12,99.05z"/>
	<path d="M144.79,91.24c-0.04-0.02-0.08-0.03-0.12-0.03c-0.13,0-0.25,0.11-0.25,0.25c0.08,2.29,0.12,4.59,0.12,6.88
		c0,0.14,0.11,0.25,0.25,0.25c0.14,0,0.25-0.11,0.25-0.25c0.01-1.12,0.07-2.23,0.12-3.35c0.05-1.18,0.07-2.36,0.01-3.54
		c-0.01-0.14-0.11-0.25-0.25-0.25C144.88,91.2,144.83,91.22,144.79,91.24"/>
	<path d="M144.57,91.26c0.07,1.24,0.09,2.48,0.11,3.72c0.01,0.59,0.02,1.17,0.02,1.76c0.01,0.65,0.03,1.3,0.03,1.95
		c0,0.13,0.09,0.25,0.22,0.28c0.15,0.04,0.31-0.05,0.35-0.2c0.15-0.55,0.28-1.11,0.43-1.66c0.17-0.62,0.34-1.23,0.52-1.85
		c0.17-0.62,0.33-1.24,0.47-1.86c0.14-0.61,0.24-1.23,0.34-1.86c0.02-0.07,0.02-0.14,0-0.21c-0.03-0.1-0.09-0.19-0.18-0.24
		c-0.18-0.11-0.45-0.05-0.55,0.14c-0.12,0.24-0.23,0.49-0.33,0.74c-0.06-0.09-0.16-0.15-0.25-0.18c-0.12-0.03-0.25-0.02-0.35,0.05
		c-0.01,0.01-0.03,0.02-0.04,0.03c-0.02,0-0.04-0.01-0.07-0.01c-0.06,0-0.12,0.01-0.17,0.04c-0.01-0.21-0.02-0.42-0.03-0.64
		c0-0.13-0.1-0.25-0.25-0.25C144.69,91.01,144.57,91.12,144.57,91.26 M145.22,96.39c0.01,0,0.03,0,0.04,0l-0.04,0.15
		C145.22,96.49,145.22,96.44,145.22,96.39"/>
	<path d="M146.16,90.77c-0.16,0.66-0.3,1.33-0.44,1.99c-0.16,0.73-0.33,1.47-0.49,2.21c-0.07,0.32-0.14,0.63-0.21,0.95
		c-0.03-0.36-0.06-0.72-0.09-1.09c-0.1-1.26-0.23-2.53-0.4-3.78c-0.03-0.18-0.26-0.28-0.42-0.24c-0.09,0.02-0.16,0.08-0.2,0.16
		c-0.05,0.09-0.05,0.16-0.04,0.26c0.01,0.06,0.02,0.13,0.03,0.19c0-0.03-0.01-0.06-0.01-0.09c0.16,1.29,0.21,2.59,0.25,3.89
		c0.02,0.65,0.03,1.3,0.04,1.95c0.01,0.32,0.02,0.65,0.03,0.97c0.01,0.39,0.03,0.77,0.03,1.16c0,0.26,0.18,0.5,0.43,0.57
		c0.24,0.06,0.55-0.04,0.66-0.27c0.16-0.32,0.27-0.66,0.38-1c0.12-0.35,0.22-0.71,0.32-1.07c0.2-0.72,0.39-1.45,0.55-2.19
		c0.16-0.74,0.3-1.48,0.43-2.22c0.13-0.73,0.25-1.45,0.35-2.18c0-0.11-0.03-0.21-0.08-0.31c-0.08-0.14-0.21-0.24-0.36-0.28
		c-0.05-0.01-0.1-0.02-0.16-0.02C146.49,90.33,146.23,90.51,146.16,90.77"/>
	<path d="M80.79,91.98c-0.08,0.26-0.16,0.51-0.23,0.77c-0.02-0.19-0.18-0.35-0.38-0.35c-0.2,0-0.4,0.18-0.38,0.39l0,0.15
		c-0.04-0.05-0.1-0.08-0.18-0.08c-0.13,0-0.25,0.11-0.25,0.25c0,0.25,0.02,0.49,0.03,0.74c-0.1-0.23-0.22-0.46-0.34-0.68
		c-0.15-0.25-0.33-0.48-0.52-0.71c-0.12-0.15-0.37-0.13-0.5,0c-0.07,0.06-0.1,0.15-0.1,0.25c0,0.1,0.04,0.17,0.1,0.25
		c0.03,0.03,0.05,0.07,0.08,0.1c0.29,0.38,0.52,0.79,0.72,1.23c0.31,0.78,0.48,1.6,0.6,2.44c0.06,0.46,0.12,0.93,0.18,1.39
		c0.05,0.43,0.11,0.86,0.2,1.29c0.02,0.11,0.14,0.18,0.24,0.18c0.12,0,0.21-0.08,0.25-0.18c0.08-0.25,0.17-0.5,0.25-0.76
		c0.09-0.32,0.17-0.64,0.24-0.96c0.13-0.58,0.22-1.17,0.3-1.75c0.17-1.28,0.21-2.58,0.2-3.87c0-0.11-0.08-0.21-0.18-0.24
		c-0.02,0-0.04-0.01-0.06-0.01C80.92,91.8,80.83,91.87,80.79,91.98 M80.74,94.13c-0.04,0.65-0.09,1.29-0.18,1.93
		c0-0.01,0-0.03,0-0.04c0,0.04-0.01,0.07-0.02,0.11c0.04-0.45,0.04-0.9,0.04-1.34C80.64,94.56,80.69,94.35,80.74,94.13 M80.44,96.4
		c0.05-0.05,0.08-0.11,0.1-0.18c-0.09,0.63-0.2,1.26-0.36,1.87c-0.02-0.2-0.04-0.41-0.05-0.61c-0.03-0.33-0.06-0.67-0.1-1.01
		c0.05,0.02,0.1,0.04,0.16,0.04C80.28,96.51,80.37,96.47,80.44,96.4"/>
	<path d="M80.82,92.04c-0.06,0.04-0.13,0.11-0.14,0.18c-0.15,0.96-0.26,1.92-0.35,2.89c-0.11-0.72-0.23-1.44-0.4-2.16
		c-0.01-0.04-0.03-0.07-0.05-0.11c-0.02-0.15-0.03-0.31-0.05-0.46c-0.01-0.07-0.02-0.13-0.07-0.18c-0.05-0.05-0.11-0.07-0.18-0.07
		c-0.13,0-0.27,0.11-0.25,0.25c0,0.03,0.01,0.06,0.01,0.09c-0.05,0.03-0.09,0.07-0.12,0.12c-0.05,0.08-0.05,0.16-0.03,0.25
		c0.06,0.28,0.11,0.56,0.17,0.84c0.08,0.55,0.16,1.11,0.25,1.66c0.01,0.04,0.02,0.07,0.04,0.1c0,0.01,0,0.02,0,0.03
		c0.11,0.99,0.24,1.97,0.39,2.96c0.02,0.12,0.15,0.2,0.26,0.2c0.07,0,0.14-0.03,0.19-0.08c0.05-0.06,0.07-0.12,0.08-0.19
		c0.05-0.38,0.09-0.76,0.13-1.15c0.15-0.75,0.27-1.5,0.36-2.27c0.1-0.88,0.16-1.77,0.21-2.66c0.01-0.13-0.1-0.26-0.22-0.29
		c-0.03-0.01-0.05-0.01-0.08-0.01C80.93,91.99,80.87,92.01,80.82,92.04"/>
	<path d="M79.08,92.18c-0.13,0.04-0.21,0.18-0.17,0.31c0,0.01,0.01,0.03,0.01,0.04c-0.04,0.06-0.05,0.13-0.03,0.2
		c0.08,0.3,0.16,0.61,0.25,0.91c0.09,0.32,0.21,0.63,0.34,0.94c0.04,0.1,0.18,0.14,0.28,0.11c0.13-0.04,0.21-0.18,0.18-0.31
		l-0.14-0.53l0-0.01c0,0,0-0.01,0-0.01c-0.13-0.49-0.26-0.98-0.41-1.47c-0.03-0.11-0.13-0.18-0.25-0.18
		C79.12,92.17,79.1,92.18,79.08,92.18"/>
	<path d="M80.92,91.45c-0.11,0.11-0.13,0.22-0.15,0.36c-0.1,0.83-0.17,1.66-0.22,2.49c-0.06,0.81-0.11,1.62-0.22,2.43
		c0-0.01,0-0.02,0-0.03c-0.04,0.32-0.1,0.64-0.16,0.95c-0.1-0.46-0.19-0.92-0.27-1.38c-0.19-1.08-0.32-2.16-0.48-3.25
		c-0.02-0.16-0.22-0.24-0.36-0.21c-0.17,0.05-0.23,0.2-0.21,0.36c0.02,0.12,0.04,0.23,0.05,0.36c0-0.03-0.01-0.05-0.01-0.08
		c0.13,1.03,0.21,2.06,0.31,3.09c0.05,0.52,0.11,1.04,0.19,1.56c0.08,0.53,0.2,1.05,0.29,1.59c0.03,0.18,0.2,0.32,0.37,0.37
		c0.23,0.06,0.47-0.04,0.59-0.24c0.32-0.56,0.5-1.19,0.66-1.81c0.16-0.65,0.24-1.32,0.31-1.99c0.15-1.4,0.12-2.8,0.17-4.2
		c0.01-0.28-0.24-0.51-0.51-0.51C81.15,91.3,81.02,91.35,80.92,91.45"/>
	<path d="M114.56,120.31L114.56,120.31c-0.17,0-0.27,0.01-0.38,0.02c-0.29,0.03-0.51,0.08-0.76,0.19c-0.2,0.08-0.4,0.18-0.59,0.29
		l-0.14,0.08c-0.18,0.1-0.32,0.17-0.47,0.24c-0.12,0.05-0.24,0.09-0.36,0.13c-0.16,0.05-0.33,0.08-0.49,0.12
		c-0.15,0.02-0.26,0.03-0.37,0.03h0c-0.05,0-0.09,0-0.15-0.01c-0.08-0.02-0.15-0.04-0.23-0.07c-0.09-0.04-0.2-0.08-0.31-0.13
		c-0.2-0.08-0.41-0.14-0.62-0.19c-0.24-0.06-0.47-0.09-0.71-0.11c-0.09,0-0.18-0.01-0.27-0.01c-0.19,0-0.38,0.02-0.57,0.04
		c-0.66,0.08-1.27,0.36-1.86,0.62l-0.14,0.07l-0.34,0.15c-0.21,0.09-0.41,0.16-0.63,0.23c-0.24,0.08-0.5,0.14-0.81,0.19
		c-0.11,0.02-0.27,0.03-0.42,0.04c-0.43-0.17-0.77-0.36-1.05-0.53c0.02-0.05,0-0.12-0.05-0.17c-0.05-0.06-0.13-0.1-0.22-0.1
		c-0.06,0-0.12,0.02-0.17,0.06l-0.1,0.09l-0.14,0.14c-0.1,0.11-0.16,0.24-0.23,0.38c-0.04,0.08-0.04,0.14-0.02,0.21
		c0.03,0.08,0.09,0.13,0.16,0.16c0.05,0.01,0.09,0.01,0.12,0.01c0.16-0.05,0.19-0.11,0.22-0.17l0.1-0.18
		c0.44,0.25,0.89,0.49,1.34,0.71c-0.01,0.02,0,0.06,0.03,0.11c0.21,0.31,0.43,0.61,0.67,0.9c0.23,0.28,0.49,0.54,0.81,0.83
		c0.56,0.5,1.2,0.96,1.93,1.34c0.61,0.32,1.3,0.59,2.06,0.79c0.69,0.19,1.47,0.3,2.31,0.32h0.22c0.63,0,1.29-0.07,1.96-0.2
		c0.72-0.14,1.45-0.4,2.19-0.76c0.63-0.3,1.25-0.72,1.86-1.25c0.32-0.28,0.63-0.6,0.96-0.98c0.16-0.18,0.3-0.38,0.43-0.59
		c0.13-0.2,0.26-0.44,0.4-0.74l0.03-0.1c0.06-0.1,0.1-0.2,0.14-0.3c0.3-0.24,0.58-0.54,0.87-0.92l0.13,0.14
		c0.06,0.06,0.11,0.09,0.18,0.1c0.08,0,0.14-0.02,0.2-0.06c0.06-0.05,0.09-0.13,0.1-0.21c0-0.07-0.02-0.13-0.06-0.18
		c-0.05-0.05-0.1-0.11-0.15-0.15l-0.11-0.1c-0.09-0.07-0.17-0.12-0.25-0.16c-0.06-0.04-0.1-0.06-0.16-0.06
		c-0.12,0.02-0.19,0.05-0.23,0.12c-0.04,0.07-0.06,0.14-0.05,0.21l-0.08,0.09l-0.13,0.16c-0.12,0.14-0.25,0.27-0.38,0.4l-0.12,0
		c-0.14,0.04-0.27,0.07-0.42,0.09c-0.07,0.01-0.14,0.01-0.21,0.01c-0.16,0-0.26-0.01-0.36-0.02c-0.18-0.03-0.33-0.06-0.49-0.11
		c-0.17-0.05-0.35-0.12-0.51-0.19c-0.25-0.11-0.5-0.23-0.75-0.35c-0.19-0.09-0.39-0.19-0.59-0.27c-0.43-0.19-0.93-0.39-1.46-0.44
		C114.77,120.32,114.66,120.31,114.56,120.31z"/>
</g>
</svg>
