<?xml version="1.0" encoding="utf-8"?>
<!-- Generator: Adobe Illustrator 23.1.0, SVG Export Plug-In . SVG Version: 6.00 Build 0)  -->
<svg version="1.1" id="Capa_1" xmlns="http://www.w3.org/2000/svg" xmlns:xlink="http://www.w3.org/1999/xlink" x="0px" y="0px"
	 viewBox="0 0 226.77 226.77" style="enable-background:new 0 0 226.77 226.77;" xml:space="preserve">
<g>
	<path d="M118.29,117.09c-0.57,0-1.13,0.25-1.55,0.46c-0.38,0.19-0.77,0.44-1.16,0.72c-0.21,0.15-0.4,0.34-0.59,0.52l-0.12,0.11
		c-0.04,0.04-0.08,0.07-0.12,0.1c-0.19,0.05-0.28,0.06-0.39,0.06c-0.29-0.01-0.58-0.03-0.86-0.1c-0.3-0.11-0.58-0.25-0.83-0.39
		c-0.32-0.19-0.58-0.34-0.86-0.46c-0.28-0.12-0.58-0.19-0.86-0.19h-0.01c-0.2,0-0.36,0.02-0.53,0.06c-0.16,0.03-0.31,0.09-0.45,0.15
		c-0.25,0.1-0.49,0.25-0.69,0.38c-0.27,0.17-0.52,0.38-0.77,0.58l-0.12,0.1c-0.41,0.34-0.83,0.68-1.3,0.95
		c-0.19,0.1-0.38,0.17-0.59,0.23c-0.18,0.04-0.34,0.06-0.5,0.06c-0.19-0.01-0.34-0.04-0.48-0.07c-0.24-0.07-0.49-0.18-0.77-0.34
		l-0.11-0.06l0.01-0.01c-0.07-0.09-0.11-0.15-0.15-0.19c-0.04-0.04-0.1-0.06-0.16-0.06c-0.08,0-0.15,0.03-0.21,0.09
		c-0.07,0.07-0.13,0.15-0.19,0.24c-0.07,0.1-0.13,0.21-0.18,0.33c-0.06,0.13,0,0.29,0.13,0.35c0.03,0.02,0.07,0.03,0.11,0.03
		c0.1,0,0.19-0.06,0.23-0.15c0.03-0.08,0.06-0.15,0.11-0.22c0.27,0.18,0.52,0.32,0.77,0.42c0.25,0.1,0.53,0.16,0.83,0.18l0.12,0
		c0.12,0,0.25-0.01,0.37-0.03c-0.03,0.07-0.02,0.17,0.03,0.24c1.01,1.52,2.23,2.79,3.63,3.75c1.41,0.97,2.95,1.53,4.45,1.63
		c0.12,0.01,0.24,0.01,0.36,0.01c0.25,0,0.49-0.01,0.73-0.04c0.32-0.03,0.66-0.1,1.08-0.21c0.73-0.2,1.48-0.57,2.21-1.11
		c0.66-0.49,1.28-1.13,1.9-1.97c0.29-0.39,0.55-0.82,0.82-1.33c0.27-0.5,0.49-1.06,0.68-1.71c0.51-0.13,1.02-0.28,1.53-0.43
		c0.03-0.01,0.06-0.03,0.09-0.06c0.13-0.04,0.26-0.09,0.38-0.15c0.23-0.1,0.47-0.23,0.72-0.41l0.08,0.06
		c0.13,0.09,0.25,0.19,0.36,0.29c0.05,0.05,0.13,0.08,0.21,0.08c0.07,0,0.14-0.02,0.2-0.06c0.07-0.05,0.12-0.13,0.13-0.21
		c0.01-0.07,0-0.18-0.05-0.25l-0.12-0.12l0.01-0.01c-0.06-0.06-0.12-0.12-0.18-0.17c-0.14-0.13-0.33-0.22-0.5-0.3
		c-0.05-0.02-0.1-0.03-0.14-0.03c-0.13,0-0.25,0.08-0.31,0.2c-0.02,0.05-0.03,0.09-0.03,0.14l-0.11,0.06
		c-0.21,0.12-0.33,0.18-0.47,0.24c-0.18,0.08-0.37,0.13-0.56,0.18c-0.17,0.03-0.32,0.05-0.47,0.07c-0.07,0.01-0.14,0.01-0.21,0.01
		c-0.12-0.04-0.19-0.07-0.27-0.09c-0.05-0.01-0.11-0.02-0.16-0.04c-0.44-0.13-0.85-0.31-1.25-0.54c-0.29-0.19-0.57-0.4-0.85-0.61
		c-0.14-0.11-0.28-0.21-0.42-0.31c-0.2-0.15-0.42-0.28-0.64-0.39c-0.2-0.1-0.43-0.17-0.7-0.2
		C118.44,117.09,118.37,117.09,118.29,117.09"/>
	<path d="M116.15,118.22c-0.91,0.52-1.82,1.04-2.72,1.59c-0.12,0.07-0.14,0.23-0.07,0.35c0.08,0.11,0.23,0.14,0.35,0.07
		c0.89-0.55,1.81-1.07,2.71-1.59c0.12-0.07,0.14-0.24,0.07-0.34c-0.05-0.07-0.12-0.11-0.2-0.11
		C116.24,118.18,116.19,118.19,116.15,118.22"/>
	<path d="M116.36,117.96c-0.52,0.27-1.02,0.57-1.5,0.9c-0.54,0.35-1.07,0.71-1.62,1.05c-0.12,0.07-0.15,0.24-0.07,0.35
		c0.08,0.12,0.23,0.14,0.35,0.07c0.5-0.3,0.98-0.63,1.47-0.95c0.54-0.36,1.08-0.7,1.65-0.99c0.06-0.03,0.09-0.1,0.11-0.16
		c0.02-0.06,0-0.13-0.03-0.19c-0.04-0.05-0.09-0.09-0.16-0.1c-0.02,0-0.03-0.01-0.05-0.01C116.45,117.92,116.4,117.93,116.36,117.96
		"/>
	<path d="M116.39,118.04c-0.55,0.27-1.07,0.57-1.59,0.9c-0.52,0.33-1.02,0.67-1.53,1.01c-0.11,0.07-0.14,0.23-0.07,0.34
		c0.08,0.11,0.23,0.15,0.35,0.07c0.51-0.34,1.01-0.68,1.53-1.01c0.51-0.33,1.04-0.63,1.59-0.9c0.06-0.03,0.09-0.1,0.11-0.16
		c0.02-0.06,0-0.13-0.03-0.19c-0.04-0.05-0.09-0.09-0.16-0.11c-0.02,0-0.03,0-0.04,0C116.48,118,116.44,118.02,116.39,118.04"/>
	<path d="M132.76,94.96c-0.26,0-0.52,0.01-0.78,0.03c-1.46,0.14-2.84,0.65-3.92,1.46c-0.56,0.43-1.05,0.92-1.45,1.48
		c-0.42,0.59-0.75,1.24-1,1.95c-0.08,0.24,0.05,0.52,0.29,0.6c0.05,0.02,0.1,0.02,0.15,0.02c0.2,0,0.38-0.13,0.45-0.32
		c0.09-0.26,0.2-0.51,0.32-0.76c0.23-0.44,0.49-0.82,0.78-1.16c0.31-0.35,0.67-0.66,1.08-0.96c0.4-0.27,0.81-0.48,1.24-0.66
		c-0.11,0.38-0.17,0.8-0.2,1.24c-0.05,0.79-0.01,1.49,0.12,2.14c0.16,0.76,0.44,1.36,0.83,1.79c0.12,0.13,0.25,0.24,0.39,0.34
		c0.13,0.09,0.25,0.15,0.36,0.2c0.3,0.12,0.58,0.18,0.86,0.18c0.21,0,0.41-0.02,0.61-0.06c0.12-0.03,0.28-0.07,0.42-0.13
		c0.31-0.15,0.55-0.32,0.74-0.53c0.38-0.44,0.65-1.03,0.77-1.72c0.12-0.68,0.14-1.4,0.07-2.13c-0.06-0.57-0.15-1.03-0.28-1.45
		c0.3,0.11,0.61,0.23,0.91,0.37c0.56,0.28,1.09,0.63,1.56,1.03c0.28,0.25,0.5,0.48,0.68,0.7c0.21,0.25,0.39,0.51,0.58,0.77
		c0.09,0.13,0.14,0.17,0.21,0.21c0.05,0.11,0.16,0.22,0.31,0.22c0.24-0.01,0.42-0.02,0.6-0.05c0.14-0.04,0.28-0.07,0.42-0.12
		c0.35-0.12,0.64-0.25,0.91-0.4c0.6-0.35,1.14-0.76,1.59-1.12c0.07-0.05,0.11-0.13,0.11-0.22c0.01-0.1-0.02-0.19-0.08-0.26
		c-0.07-0.07-0.15-0.11-0.25-0.11c-0.08,0-0.17,0.03-0.23,0.08c-0.2,0.16-0.4,0.31-0.61,0.45c-0.31,0.2-0.58,0.37-0.86,0.5
		c-0.24,0.11-0.48,0.21-0.73,0.3l-0.24,0.07c0-0.05-0.01-0.12-0.05-0.17l-0.09-0.14c0.12-0.06,0.24-0.11,0.35-0.18
		c0.17-0.1,0.31-0.19,0.44-0.29c0.16-0.13,0.31-0.26,0.46-0.41c0.09-0.09,0.13-0.25,0.02-0.37c-0.05-0.06-0.12-0.09-0.2-0.09
		c-0.07,0-0.13,0.02-0.17,0.07c-0.11,0.11-0.22,0.22-0.34,0.32c-0.06,0.05-0.13,0.1-0.19,0.15c-0.17,0.11-0.34,0.22-0.52,0.3
		l-0.13,0.06l0.01-0.01c-0.1-0.15-0.21-0.3-0.32-0.45c-0.25-0.32-0.5-0.58-0.76-0.81c-0.32-0.29-0.6-0.52-0.91-0.71
		c-0.29-0.19-0.6-0.36-0.92-0.5C135.13,95.22,133.95,94.96,132.76,94.96 M132.54,97.8L132.54,97.8c-0.05-0.38-0.05-0.79,0-1.29
		c0.02-0.11,0.03-0.22,0.05-0.33c0.29,0.02,0.58,0.05,0.88,0.09c0.06,0.63,0.07,1.09,0.02,1.52c-0.03,0.22-0.08,0.42-0.15,0.6
		c-0.04,0.07-0.07,0.14-0.12,0.21l-0.08,0.08l-0.13,0.04l-0.08-0.02l-0.02-0.02c-0.03-0.03-0.06-0.06-0.09-0.1
		c-0.06-0.08-0.1-0.16-0.14-0.24C132.62,98.18,132.57,97.99,132.54,97.8"/>
	<path d="M94.85,95.83c-1.19,0-2.38,0.26-3.43,0.75c-0.31,0.15-0.62,0.32-0.92,0.51c-0.31,0.2-0.59,0.43-0.91,0.71
		c-0.26,0.23-0.51,0.49-0.76,0.81c-0.11,0.15-0.22,0.29-0.33,0.45l-0.12-0.05l0-0.01c-0.18-0.09-0.35-0.19-0.51-0.3l-0.2-0.15
		c-0.12-0.1-0.23-0.21-0.34-0.32c-0.04-0.04-0.1-0.07-0.16-0.07c-0.08,0-0.15,0.03-0.2,0.09c-0.11,0.11-0.07,0.27,0.02,0.36
		c0.15,0.15,0.3,0.28,0.46,0.41c0.13,0.1,0.27,0.19,0.4,0.27c0.15,0.09,0.27,0.15,0.39,0.21l-0.08,0.14l-0.01,0
		c-0.03,0.06-0.05,0.12-0.06,0.18l-0.18-0.06c-0.29-0.1-0.53-0.2-0.77-0.31c-0.28-0.14-0.55-0.3-0.81-0.47
		c-0.25-0.17-0.46-0.32-0.66-0.48c-0.07-0.05-0.15-0.08-0.23-0.08c-0.1,0-0.18,0.04-0.25,0.11c-0.06,0.07-0.09,0.16-0.08,0.26
		c0.01,0.09,0.05,0.17,0.11,0.22c0.45,0.36,0.99,0.77,1.59,1.12c0.27,0.16,0.57,0.29,0.91,0.4c0.14,0.05,0.28,0.08,0.42,0.12
		c0.18,0.04,0.36,0.05,0.54,0.05h0.01c0.2,0,0.32-0.11,0.37-0.23c0.06-0.04,0.12-0.08,0.15-0.13c0.24-0.34,0.42-0.6,0.63-0.85
		c0.21-0.25,0.45-0.48,0.69-0.7c0.48-0.4,1-0.75,1.56-1.03c0.3-0.14,0.61-0.26,0.93-0.36c-0.14,0.41-0.23,0.87-0.29,1.44
		c-0.08,0.73-0.06,1.45,0.07,2.13c0.12,0.69,0.39,1.28,0.77,1.72c0.19,0.21,0.43,0.38,0.74,0.53c0.14,0.07,0.3,0.11,0.42,0.13
		c0.2,0.04,0.4,0.06,0.61,0.06c0.28,0,0.56-0.06,0.86-0.18c0.11-0.05,0.24-0.11,0.36-0.2c0.14-0.1,0.27-0.22,0.39-0.34
		c0.4-0.43,0.67-1.03,0.83-1.79c0.13-0.65,0.17-1.35,0.12-2.14c-0.03-0.45-0.09-0.87-0.19-1.25c0.43,0.19,0.85,0.41,1.22,0.66
		c0.41,0.29,0.77,0.61,1.08,0.96c0.3,0.35,0.56,0.73,0.78,1.16l0,0c0.12,0.25,0.23,0.51,0.32,0.77c0.07,0.19,0.25,0.32,0.45,0.32
		c0.05,0,0.1-0.01,0.15-0.02c0.24-0.08,0.37-0.36,0.29-0.6c-0.25-0.71-0.58-1.37-1-1.95c-0.4-0.56-0.89-1.05-1.45-1.48
		c-1.07-0.81-2.46-1.32-3.91-1.46C95.37,95.85,95.11,95.83,94.85,95.83 M95.84,98.89L95.84,98.89c-0.03-0.23-0.02-0.48,0.02-0.79
		c0.06-0.32,0.14-0.63,0.25-0.98c0.19,0.03,0.39,0.07,0.59,0.11c0.02,0.4,0.02,0.75-0.02,1.06l0.01,0l-0.01,0l-0.01,0.06
		c-0.03,0.15-0.08,0.35-0.15,0.54c-0.05,0.11-0.1,0.2-0.16,0.29c-0.04,0.05-0.08,0.08-0.12,0.12l-0.13,0.07v-0.01l-0.14-0.08l0.01,0
		c-0.03-0.05-0.05-0.09-0.08-0.14C95.87,99.06,95.85,98.98,95.84,98.89"/>
	<path d="M118.21,40.79c-3.03,0-6.32,0.44-9.77,1.3c-3.21,0.79-6.52,1.94-9.85,3.42c-2.95,1.31-5.88,2.89-8.73,4.7
		c-1.56,0.99-3.06,2.05-4.47,3.14c-1.33,1.03-2.66,2.19-4.07,3.54c-2.43,2.34-4.61,5-6.49,7.9c-1.72,2.64-3.18,5.55-4.35,8.67
		c-2.14,5.63-3.32,11.95-3.61,19.32c-0.13,3.2-0.08,6.57,0.15,10.3c0.1,1.63,0.24,3.37,0.44,5.3c0.16,1.58,0.35,3.16,0.55,4.74
		l0.09,0.76c0.31,2.58,0.45,5.23,0.4,7.88c-0.05,2.1-0.2,4.28-0.45,6.47c-0.23,1.88-0.56,3.98-1.02,6.43
		c-0.76,3.91-1.73,7.86-2.59,11.35l-0.05,0.19l-0.37,1.52c-0.26,1.05-0.51,2.1-0.73,3.15c-0.21,1.02-0.41,2.14-0.6,3.43
		c-0.32,2.14-0.49,4.34-0.52,6.54c-0.03,2.32,0.09,4.57,0.38,6.67c0.27,2.11,0.74,4.25,1.39,6.36c0.47,1.54,1.06,2.95,1.75,4.2
		c0.38,0.7,0.82,1.4,1.31,2.07c0.42,0.55,0.91,1.11,1.56,1.73c0.09,0.09,0.22,0.13,0.34,0.13c0.08,0,0.16-0.02,0.23-0.05h0.01
		c0.19,0,0.27-0.04,0.34-0.07c0.1-0.07,0.17-0.18,0.2-0.32c0.04-0.19,0.07-0.36,0.09-0.54c0.03-0.21,0.02-0.43,0.02-0.65
		c0-0.04,0-0.09-0.01-0.13l0.06,0.14l0.17,0.11c0.4,0.28,0.81,0.51,1.24,0.7c0.31,0.15,0.69,0.28,1.2,0.39
		c0.27,0.05,0.54,0.08,0.82,0.08c0.22,0,0.45-0.02,0.68-0.04l0.11-0.06c0.35,0.33,0.81,0.66,1.33,0.99
		c0.57,0.36,1.17,0.65,1.79,0.88c0.55,0.21,1.18,0.38,1.91,0.48c0.15,0,0.25-0.04,0.34-0.13c0.08-0.1,0.13-0.21,0.12-0.32
		c-0.08-1.33-0.22-2.69-0.38-4.08l-0.02-0.14c2.23,1.09,4.75,2.08,7.48,2.96c2.74,0.89,5.68,1.66,8.74,2.28
		c2.79,0.56,5.75,1,8.82,1.32c2.9,0.28,5.85,0.41,8.09,0.48c2.19,0.07,4.2,0.1,5.96,0.1c3.38,0,6.63-0.11,9.91-0.35
		c5.98-0.45,11.16-1.33,15.85-2.68c2.29-0.65,4.46-1.45,6.47-2.36c0.95-0.42,1.95-0.93,3.16-1.59c0.61-0.33,1.21-0.68,1.8-1.05
		c0.42-0.26,1.04-0.66,1.61-1.09c0.11-0.11,0.11-0.11,0.11-0.13l0.14-0.22l0.17-0.68l0.13-0.55c0.18-1.26,0.3-2.48,0.38-3.63
		c0.11-1.54,0.11-3.12-0.02-4.68c-0.05-0.61-0.14-1.23-0.22-1.84c-0.08-0.56-0.17-1.13-0.27-1.68c-0.18-0.97-0.42-2.01-0.71-3.09
		c-0.57-2.03-1.34-3.83-2.27-5.37c-0.46-0.78-1-1.53-1.61-2.23c-0.59-0.68-1.26-1.3-1.98-1.86c-1.05-0.8-2.26-1.46-3.61-1.97
		c-1.27-0.48-2.65-0.82-4.22-1.03c0.55-0.3,1.06-0.72,1.54-1.13c1.92-1.61,3.82-3.52,5.64-5.66c3.24-3.82,6.13-8.39,8.61-13.56
		c0.52-1.09,1.05-2.27,1.63-3.63c0.64-1.55,1.17-2.93,1.59-4.21c0.92-2.87,1.59-5.95,1.98-9.16c0.67-5.53,0.44-11.57-0.7-18.46
		c-1.08-6.48-2.88-12.89-4.5-18.31l-0.39-1.27l-0.1-0.33c-0.21-0.69-0.42-1.39-0.62-2.09c-0.2-0.68-0.39-1.36-0.59-2.04l-0.33-1.15
		c-0.59-2.01-1.23-4.16-2.02-6.23c-1.28-3.31-2.73-5.77-4.55-7.74c-1.03-1.1-2.23-2.04-3.56-2.8c-1.23-0.71-2.63-1.26-4.19-1.63
		l0.39-0.3c0.52-0.54,1-1.13,1.44-1.77c0.46-0.64,0.77-1.22,0.94-1.79c0.08-0.28,0.11-0.54,0.09-0.79
		c-0.01-0.14-0.05-0.27-0.11-0.42c-0.05-0.11-0.12-0.21-0.22-0.33c-0.07-0.08-0.17-0.15-0.21-0.18c-0.2-0.13-0.36-0.18-0.48-0.22
		c-0.11-0.04-0.22-0.06-0.34-0.06c-0.14,0-0.29,0.03-0.46,0.09c-0.31,0.08-0.57,0.27-0.79,0.44c-0.27,0.21-0.54,0.46-0.86,0.83
		c-0.59,0.68-1.07,1.41-1.52,2.09l-0.3,0.46l-0.3,0.46l0.01-0.39c-0.11-0.74-0.25-1.6-0.45-2.47c-0.21-0.88-0.44-1.58-0.74-2.19
		c-0.15-0.29-0.33-0.56-0.55-0.79c-0.21-0.21-0.46-0.35-0.7-0.4c-0.09-0.03-0.18-0.04-0.26-0.04c-0.2,0.02-0.32,0.06-0.48,0.13
		c-0.09,0.05-0.19,0.12-0.29,0.23c-0.1,0.12-0.17,0.23-0.22,0.34c-0.14,0.26-0.21,0.56-0.26,0.82c-0.08,0.39-0.11,0.79-0.13,1.13
		c-0.05,0.89-0.02,1.8,0.02,2.41l0.02,0.49l0.02,0.48c-0.96-0.96-2.09-1.84-3.34-2.61c-1.4-0.86-2.89-1.58-4.45-2.14
		c-1.43-0.52-2.99-0.92-4.65-1.21c-1.52-0.24-3.06-0.36-4.87-0.38H118.21z M101.55,82.09c0.56-0.22,1.12-0.43,1.68-0.65
		c1.46-0.55,2.58-1.01,3.52-1.43c1.16-0.51,2.25-1.05,3.23-1.58c2.02-1.09,3.94-2.35,5.72-3.75c1.69-1.34,3.34-2.89,4.91-4.6
		c1.17-1.29,2.29-2.66,3.42-4.19l-0.35,0.47l-0.25,0.39c-0.38,0.59-0.75,1.17-1.13,1.73c-1.01,1.49-2.16,2.99-3.61,4.7
		c-1.38,1.62-2.72,3.09-3.98,4.47l-0.7,0.77l-0.38,0.41l-0.27,0.29l-0.67,0.73c-0.36,0.39-0.71,0.77-1.06,1.16l-1.07,1.16
		c-0.1,0.1-0.13,0.23-0.11,0.36c0.03,0.16,0.18,0.3,0.34,0.3c0.79-0.02,1.61-0.17,2.5-0.47c0.83-0.26,1.68-0.64,2.59-1.16
		c0.82-0.45,1.67-1.02,2.61-1.73c0.77-0.57,1.61-1.29,2.57-2.17c1.54-1.43,3.09-3.13,4.61-5.05c0.68-0.86,1.31-1.74,1.88-2.61
		c0.58-0.87,1.06-1.67,1.48-2.44c0.11-0.21,0.22-0.43,0.33-0.64c0.01,0.76,0.14,1.71,0.39,2.9c0.25,1.25,0.58,2.48,0.96,3.65
		c0.75,2.34,1.77,4.57,3.04,6.63c-0.17-0.15-0.41-0.24-0.67-0.32c-0.44-0.15-0.93-0.29-1.64-0.44c-0.95-0.2-1.99-0.32-3.17-0.34
		h-0.22c-0.44,0-0.88,0.03-1.32,0.06c-0.53,0.05-1.07,0.14-1.66,0.26c-1.14,0.25-2.21,0.63-3.17,1.13
		c-0.21,0.11-0.29,0.41-0.21,0.62c0.07,0.22,0.28,0.38,0.51,0.38c0.05,0,0.11-0.01,0.16-0.04c0.7-0.23,1.39-0.45,2.1-0.65
		c0.66-0.17,1.3-0.32,2.03-0.46l0.13-0.04c1.06-0.19,2.07-0.28,3.1-0.28c0.27,0,0.55,0.01,0.82,0.02c0.47,0.02,0.96,0.09,1.43,0.18
		c0.48,0.08,1.02,0.22,1.62,0.41c0.19,0.07,0.38,0.14,0.57,0.22c1.26,1.84,2.71,3.56,4.33,5.11c0.94,0.9,1.98,1.77,3.16,2.66
		c1.2,0.91,2.33,1.66,3.46,2.3c0.19,0.11,0.38,0.21,0.56,0.31l-0.4-0.1h-0.29h-0.19h-0.13c-0.14,0-0.19-0.01-0.25-0.01
		c-0.66-0.01-1.32-0.03-1.97-0.04l-0.9-0.01l-0.38,0c-0.25,0-0.5-0.01-0.75-0.02c-1-0.03-2-0.04-3.01-0.04
		c-1.43,0-2.87,0.02-4.31,0.06c-0.75,0.02-1.5,0.03-2.25,0.04h-0.54l-0.55,0l-1.05,0.01l-1.74,0l-0.89,0l-3.22-0.01h-0.32
		l-0.93,0.01h-0.42c-0.12-0.04-0.14-0.04-0.18-0.04c-0.18,0-0.39,0.13-0.42,0.34c-0.32,1.54-0.48,2.92-0.48,4.19v0.42
		c-0.47-0.34-1.14-0.61-2.01-0.83c-0.93-0.25-1.93-0.38-3.04-0.4c-0.11,0-0.22,0-0.33,0c-0.77,0-1.67,0.07-2.76,0.22l-0.13,0.02
		l-0.13,0.02c0.04-0.88-0.01-1.96-0.13-3.3c-0.01-0.16-0.13-0.31-0.32-0.31c-0.07,0-0.15,0.04-0.23,0.11
		c-0.06,0.06-0.08,0.14-0.07,0.21c0.11,1.23,0.17,2.39,0.18,3.45c-0.56,0.06-1.2,0.21-1.91,0.43c0.03-1.01-0.11-2.24-0.41-3.75
		c-0.05-0.21-0.26-0.33-0.44-0.33c-0.03,0-0.07,0.01-0.11,0.03l-0.49,0.02l-0.93-0.01h-0.32l-3.22,0.01l-0.88,0l-1.74,0l-1.05-0.01
		l-0.54,0h-0.55c-0.75-0.01-1.5-0.03-2.25-0.04c-1.44-0.03-2.88-0.05-4.31-0.05c-1,0-2.01,0.01-3.01,0.04
		c-0.28,0.01-0.52,0.02-0.75,0.02l-0.37,0l-0.16,0c0.68-0.71,1.4-1.41,2.13-2.07c1.16-1.05,2.44-2.06,3.91-3.09
		c0.87-0.61,1.79-1.2,2.72-1.76l0.13-0.07l0,0.01c0.76-0.22,1.51-0.41,2.23-0.57c1.06-0.2,1.89-0.33,2.6-0.38
		c0.49-0.05,1.04-0.08,1.74-0.08c0.36,0,0.71,0.01,1.07,0.03c0.6,0.04,1.2,0.1,1.8,0.17c0.21,0,0.3-0.04,0.38-0.09
		c0.11-0.08,0.18-0.19,0.2-0.32c0.02-0.13-0.01-0.27-0.09-0.38c-0.07-0.1-0.17-0.16-0.3-0.19c-0.39-0.13-0.83-0.23-1.32-0.3
		c-0.42-0.05-0.83-0.08-1.23-0.08c-0.09,0-0.17,0-0.25,0c-0.66,0.01-1.32,0.08-2.13,0.24L101.55,82.09z M133.37,112.57
		c-0.96-0.14-1.91-0.4-2.82-0.77c-1.06-0.48-2.02-1.04-2.91-1.73l-0.11-0.07c-0.42-0.36-1.02-0.91-1.55-1.47
		c-0.27-0.29-0.53-0.58-0.77-0.88l-0.29-0.37c-0.81-1.13-1.5-2.36-2.06-3.66l-0.08-0.08c-0.39-1.09-0.64-1.91-0.83-2.65
		c-0.05-0.2-0.1-0.4-0.15-0.61l-0.03-0.13l-0.03-0.13l-0.04-0.19l-0.03-0.18c-0.04-0.16-0.07-0.3-0.09-0.45l-0.01-0.11l-0.03-0.19
		l-0.04-0.25c-0.07-0.5-0.11-1-0.15-1.5l-0.01-0.13c-0.03-0.35-0.05-0.7-0.05-1.05c-0.01-0.56,0-1.03,0.03-1.5
		c0-0.13,0-0.19,0.01-0.25c0.02-0.38,0.06-0.7,0.1-1.02c0.04-0.24,0.06-0.41,0.08-0.57l0.05-0.31l0.05-0.32
		c0.48,0.06,0.99,0.06,1.48,0.06l1.64-0.01l1.63,0l0.53,0l1.58,0l1.58,0.01c0.27,0,0.54,0,0.81,0c0.53,0.01,1.07,0.01,1.6,0.03
		l0.79,0.02c1.27,0.03,2.54,0.05,3.8,0.05h0.2c0.61,0,1.21-0.01,1.82-0.02l0.49,0l0.98-0.02l0.86-0.02l0.86-0.02l0.45-0.01
		l0.36-0.01c0.49-0.01,0.99-0.02,1.48-0.02c0.2,0,0.39,0,0.58-0.01l0.36,0c0.24,0.01,0.48,0.02,0.72,0.02c0.5,0,1.01,0,1.52,0.01
		l0.22,0l0.27,0.01v0.12l0.1,0.5l0.04,0.25c0.02,0.16,0.04,0.33,0.06,0.49c0.08,0.88,0.12,1.59,0.13,2.26v0.13c0,0.08,0,0.15,0,0.22
		c0,0.51-0.03,1.03-0.07,1.55c-0.02,0.25-0.05,0.51-0.08,0.76c-0.27,1.8-0.72,3.55-1.36,5.21c-0.31,0.73-0.63,1.37-0.96,1.94
		c-0.37,0.65-0.78,1.26-1.25,1.88c-0.79,1.02-1.69,1.94-2.68,2.73l-0.09,0.09c-0.92,0.66-1.87,1.21-2.83,1.62
		c-0.92,0.37-1.87,0.63-2.84,0.77c-0.41,0.06-0.9,0.09-1.48,0.09C134.34,112.67,133.81,112.64,133.37,112.57 M149.49,92.25
		c0.21,0.12,0.51,0.19,0.79,0.25c-0.2,0.1-0.41,0.29-0.71,0.61C149.56,92.83,149.53,92.54,149.49,92.25 M151.22,92.9
		c0.28-0.2,0.51-0.35,0.74-0.46c0.16-0.07,0.32-0.11,0.48-0.15l0.15,0h0.13l0.11,0c0.13,0.02,0.22,0.04,0.32,0.07
		c0.15,0.07,0.28,0.14,0.42,0.24c0.2,0.16,0.37,0.34,0.53,0.54c0.3,0.39,0.58,0.85,0.85,1.45c0.24,0.57,0.42,1.17,0.54,1.85
		c0.11,0.83,0.13,1.61,0.06,2.41c-0.13,0.91-0.32,1.68-0.6,2.4c-0.27,0.66-0.6,1.24-1,1.77c-0.34,0.44-0.7,0.81-1.1,1.14
		c-0.28,0.21-0.59,0.4-0.97,0.61c-0.38-0.26-0.85-0.49-1.45-0.69c-0.3,0-0.44,0.14-0.46,0.27c-0.01,0.03-0.01,0.06-0.02,0.09
		c0.28,0.12,0.56,0.25,0.82,0.4c0.29,0.16,0.58,0.34,0.86,0.54c0.25,0.17,0.49,0.35,0.71,0.55c0.1,0.09,0.2,0.19,0.3,0.29
		c0.01,0.01,0.03,0.02,0.04,0.03c0.02,0.02,0.03,0.03,0.04,0.05c0.17,0.17,0.33,0.34,0.48,0.51l0.11,0.13
		c0.37,0.45,0.7,0.98,0.98,1.58l0.1,0.23l0.1,0.25c0.06,0.15,0.11,0.3,0.15,0.46l0.03,0.1l0.03,0.12l0.03,0.12
		c0.04,0.16,0.07,0.32,0.1,0.47c0.07,0.53,0.11,0.99,0.11,1.45v0.15l-0.02,0.23l-0.02,0.25c-0.05,0.36-0.11,0.7-0.2,1.05
		c-0.07,0.28-0.16,0.55-0.26,0.82c-0.22,0.54-0.5,1.07-0.85,1.57c-0.22,0.28-0.41,0.51-0.59,0.69c-0.19,0.2-0.41,0.39-0.62,0.57
		c-0.26,0.2-0.51,0.37-0.77,0.53c-0.22,0.14-0.45,0.25-0.68,0.36c-0.62,0.28-1.29,0.48-1.99,0.6l-0.13,0.05
		c-0.42,0.03-0.73,0.05-1.05,0.05c-0.18,0-0.31-0.01-0.43-0.02l-0.11-0.01l-0.22-0.02c-0.15-0.02-0.31-0.04-0.47-0.07l-0.13-0.02
		l-0.13-0.02l-0.19-0.04l-0.23-0.05c-0.24-0.05-0.42-0.11-0.59-0.17l-0.19-0.08l-0.13-0.05l-0.11-0.05l-0.3-0.14l0.27-0.54
		l0.08-0.16l0.14,0.07l0.15,0.06l0,0.01l0.16,0.07c0.16,0.06,0.32,0.11,0.48,0.16l0.1,0.03l0.1,0.01v0.01l0.13,0.03l0.13,0.03
		c0.14,0.03,0.28,0.06,0.42,0.08c0.08,0.01,0.17,0.02,0.26,0.04c0.27,0.03,0.51,0.04,0.76,0.04c0.42,0,0.85-0.05,1.29-0.13
		c0.43-0.08,0.86-0.22,1.28-0.41l0.14-0.06c0.21-0.09,0.42-0.2,0.62-0.32c0.25-0.15,0.52-0.33,0.77-0.54
		c0.31-0.25,0.62-0.55,0.91-0.9c0.3-0.36,0.57-0.75,0.8-1.19c0.18-0.36,0.32-0.74,0.43-1.1c0.13-0.4,0.21-0.84,0.25-1.36
		c0.03-0.37,0.02-0.77-0.02-1.23l-0.05-0.34c-0.11-0.72-0.35-1.39-0.7-2.05c-0.04-0.07-0.07-0.14-0.12-0.2
		c-0.21-0.36-0.45-0.68-0.71-0.99c-0.16-0.18-0.33-0.35-0.5-0.52c-0.01,0-0.02-0.01-0.02-0.02c-0.18-0.14-0.35-0.27-0.54-0.4
		c0.02,0.01,0.04,0.02,0.06,0.03c-0.5-0.34-1.02-0.64-1.55-0.91l-0.01,0l-0.1-0.01l0-0.01l-0.14,0.01v-0.01
		c-0.07,0.02-0.13,0.06-0.16,0.13c-0.02,0.04-0.03,0.09-0.03,0.14c-0.18,0-0.38,0.01-0.57,0.01c0.16-0.42,0.25-0.9,0.33-1.41
		c0.02-0.26,0.03-0.51,0.04-0.77c0.14-0.05,0.25-0.11,0.35-0.18c0.17-0.11,0.29-0.21,0.41-0.31c0.3-0.24,0.52-0.55,0.66-0.76
		c0.19-0.27,0.32-0.57,0.44-0.86c0.1-0.27,0.18-0.59,0.23-0.98c0.16-1.15-0.05-2.41-0.61-3.68c0.11-0.23,0.17-0.35,0.23-0.46
		c0.08-0.15,0.17-0.29,0.29-0.43c0.08-0.09,0.16-0.18,0.24-0.26c0.08-0.08,0.17-0.16,0.25-0.23c0.18-0.13,0.25-0.17,0.32-0.22
		c0.08-0.05,0.16-0.09,0.25-0.14c0.11-0.04,0.12-0.06,0.12-0.07l0.15-0.04l0.16-0.05c0.05-0.02,0.09-0.02,0.15-0.04
		c0.32-0.07,0.4-0.11,0.45-0.19c0.05-0.08,0.06-0.17,0.04-0.25c-0.03-0.08-0.08-0.14-0.15-0.18c-0.06-0.04-0.11-0.05-0.15-0.05
		c-0.42,0.07-0.7,0.14-0.96,0.27c-0.16,0.08-0.32,0.16-0.47,0.26c-0.1,0.07-0.2,0.14-0.3,0.22c-0.31,0.25-0.49,0.48-0.68,0.73
		c-0.19,0.27-0.32,0.56-0.42,0.8c-0.16,0.1-0.21,0.27-0.13,0.43c0.06,0.12,0.11,0.23,0.16,0.35c0.19,0.49,0.34,1,0.42,1.53
		c0.04,0.47,0.05,0.88,0.02,1.29c-0.04,0.23-0.07,0.41-0.12,0.6c-0.04,0.18-0.11,0.36-0.17,0.53c-0.07,0.14-0.13,0.29-0.21,0.42
		c-0.09,0.16-0.2,0.31-0.31,0.45c-0.21,0.26-0.41,0.47-0.65,0.67c0-0.02,0-0.09-0.01-0.19c-0.03-0.42-0.06-0.79-0.09-1.15
		c0.05-0.35,0.1-0.67,0.16-0.98l0.1-0.6c0.09-0.6,0.18-1.19,0.22-1.8c0.04-0.52,0.05-1.03,0.06-1.54v-0.16v-0.15
		c-0.01-0.5-0.03-0.96-0.07-1.43c0.52-0.63,0.99-1.11,1.47-1.5l0.06-0.08c0,0-0.01,0.01-0.01,0.02
		C151.22,92.89,151.21,92.9,151.22,92.9L151.22,92.9z M100.91,92.55l1.59,0l0.53,0l1.64,0l1.64,0.01c0.5,0,1,0,1.51,0l0.04,0.32
		l0.02,0.1l0.1,0.63l0.04,0.11l0.03,0.46l0.04,0.49c0.01,0.12,0.01,0.17,0.01,0.24c0.03,0.54,0.04,1.01,0.03,1.48
		c0,0.35-0.02,0.63-0.04,0.91l0,0.12l-0.01,0.12l-0.01,0.12c-0.03,0.5-0.08,1-0.15,1.5l-0.02,0.15l-0.05,0.28l-0.02,0.11
		c-0.04,0.21-0.06,0.33-0.09,0.43l-0.04,0.19l-0.04,0.2l-0.03,0.12l-0.03,0.13c-0.05,0.2-0.1,0.41-0.15,0.61
		c-0.21,0.82-0.5,1.71-0.87,2.63l-0.05,0.1c-0.58,1.34-1.28,2.57-2.08,3.68l-0.29,0.35c-0.24,0.3-0.5,0.58-0.75,0.86
		c-0.48,0.52-1,1-1.59,1.5l-0.07,0.08c-0.95,0.69-1.92,1.26-2.88,1.69c-0.95,0.38-1.89,0.64-2.86,0.78c-0.46,0.07-0.98,0.1-1.6,0.1
		c-0.58,0-1.07-0.03-1.46-0.09c-0.97-0.14-1.92-0.4-2.86-0.77c-0.98-0.42-1.93-0.98-2.81-1.64l-0.12-0.04
		c-1-0.85-1.9-1.78-2.66-2.76c-0.46-0.61-0.86-1.22-1.25-1.88c-0.31-0.55-0.63-1.2-0.96-1.98c-0.41-1.06-0.75-2.17-1-3.3
		c0.73-1.47,1.43-2.76,2.14-3.93c0.89-1.46,1.9-2.88,3-4.21l0.19,0.01l0.46,0.01l0.86,0.01l0.86,0.02l1.07,0.02l0.44,0
		c0.59,0.01,1.19,0.02,1.79,0.02h0.2c1.27,0,2.54-0.02,3.81-0.05l0.79-0.02c0.53-0.01,1.06-0.02,1.58-0.03c0.29,0,0.56,0,0.84,0
		L100.91,92.55z M110.05,107.96l0.16-0.5l0.08-0.26c0.1-0.31,0.19-0.62,0.28-0.93c0.17-0.65,0.29-1.25,0.46-2.16
		c0.15-0.86,0.27-1.66,0.38-2.53c0.2-1.63,0.32-3.34,0.35-5.2c0-0.14,0-0.29,0-0.44l0.44-0.04c0.44-0.05,0.86-0.11,1.26-0.14
		c0.5-0.04,0.97-0.06,1.44-0.06c0.15,0,0.29,0,0.44,0.01c0.49,0.03,0.98,0.09,1.45,0.18c1.2,0.22,2.27,0.55,3.27,1.02l0.11,0.04
		c0.03,0.79,0.13,1.61,0.29,2.42l0.09,0.51c0.01,0.09,0.02,0.18,0.04,0.27l0.03,0.18l0.03,0.15l0.05,0.26l0.06,0.27
		c0.08,0.35,0.17,0.7,0.27,1.04c0.25,0.86,0.54,1.67,0.87,2.41c0.52,1.2,1.18,2.36,1.96,3.43c0.21,0.3,0.43,0.6,0.66,0.89
		c0.33,0.41,0.64,0.76,0.95,1.07c0.8,0.8,1.64,1.49,2.51,2.05c0.88,0.57,1.81,1.04,2.75,1.37c0.67,0.25,1.3,0.43,1.92,0.54
		c0.73,0.13,1.33,0.2,1.87,0.22c0.14,0,0.28,0,0.43,0c0.49,0,1-0.03,1.58-0.1c0.45-0.07,1.12-0.16,1.76-0.36
		c1.32-0.37,2.53-0.91,3.6-1.61c1.11-0.73,2.11-1.59,2.98-2.54c1.59-1.74,2.86-3.89,3.68-6.22l-0.26,0.76l-0.17,0.71
		c-0.28,1.21-0.65,2.54-1.12,4.05c-0.37,1.17-0.79,2.36-1.22,3.52c-0.44,1.15-0.95,2.36-1.57,3.72c-1.02,2.22-2.21,4.44-3.53,6.59
		c-1.94,3.1-4,5.65-6.26,7.8c-1.89,1.75-3.91,3.21-5.98,4.33c-1.03,0.54-2.11,1.02-3.1,1.39c-1.13,0.41-2.32,0.77-3.54,1.05
		c-0.91,0.2-1.83,0.35-2.75,0.45c-0.17,0.03-0.28,0.17-0.26,0.33c0.01,0.16,0.14,0.28,0.28,0.28c1.31-0.16,2.53-0.37,3.63-0.63
		c1.12-0.25,2.27-0.6,3.41-1.04c-0.59,2.44-0.61,4.55-0.08,6.46c0.14,0.52,0.34,1.04,0.6,1.54c0.26,0.51,0.6,1.02,1.02,1.53
		c0.35,0.39,0.76,0.76,1.21,1.09c0.4,0.29,0.86,0.55,1.45,0.81c0.87,0.38,1.91,0.65,3.28,0.83c0.97,0.11,2,0.16,3.16,0.16h0.42
		c0.32,0,0.64,0,0.96-0.01c-1.1,1.49-2.3,2.84-3.59,3.98c-1.41,1.25-3.06,2.37-4.75,3.25c-0.92,0.46-1.85,0.86-2.76,1.19
		c-0.93,0.34-1.91,0.61-3,0.85c-2.33,0.5-4.77,0.75-7.25,0.75c-0.6,0-1.2-0.02-1.8-0.05c-2.74-0.15-5.31-0.61-7.65-1.36
		c-1.78-0.61-3.39-1.37-4.78-2.29c-0.93-0.61-1.86-1.38-2.66-2.21c0.38-0.38,0.82-0.89,1.38-1.63c0.74-0.96,1.43-2,2.11-3.18
		c0.64-1.1,1.2-2.24,1.64-3.39c0.99-2.61,1.39-5.38,1.17-8.01c1.61,0.52,3.42,0.89,5.52,1.13c0.19,0,0.32-0.09,0.35-0.23
		c0.02-0.09-0.01-0.18-0.06-0.25c-0.04-0.06-0.11-0.1-0.18-0.12c-2.11-0.23-4.24-0.71-6.34-1.43c-2.56-0.92-4.98-2.14-7.17-3.64
		c-2.29-1.58-4.37-3.46-6.17-5.58c-2.04-2.42-3.83-5.22-5.31-8.34c-0.32-0.7-0.63-1.41-0.92-2.12c-0.38-0.91-0.72-1.87-1.04-2.94
		c-0.44-1.37-0.81-2.81-1.14-4.41c0.13,0.32,0.37,0.63,0.7,1c0.88,0.96,1.89,1.81,3,2.54c1.05,0.7,2.26,1.23,3.6,1.61
		c0.61,0.18,1.23,0.28,1.77,0.36c0.58,0.07,1.09,0.1,1.57,0.1c0.14,0,0.28,0,0.42,0c0.54-0.02,1.14-0.09,1.89-0.22
		c0.63-0.13,1.25-0.3,1.9-0.54c0.93-0.33,1.86-0.79,2.77-1.37c0.83-0.54,1.67-1.22,2.49-2.05c0.34-0.34,0.65-0.7,0.95-1.07
		c0.23-0.29,0.45-0.59,0.67-0.9c0.76-1.03,1.43-2.18,1.98-3.41c0.32-0.74,0.61-1.55,0.87-2.41c0.1-0.34,0.19-0.69,0.27-1.04
		l0.06-0.27l0.06-0.26l0.02-0.13c0.03-0.16,0.07-0.31,0.09-0.47l0.03-0.23l0.04-0.22c0.21-1.16,0.34-2.26,0.38-3.37
		c0.72-0.18,1.33-0.33,1.9-0.45c-0.11,1.82-0.25,3.48-0.44,4.94c-0.14,0.99-0.31,1.98-0.49,2.86c-0.18,0.89-0.38,1.68-0.63,2.49
		c-0.09,0.29-0.19,0.57-0.29,0.86l-0.04,0.13l-0.07,0.21c-0.07,0.21-0.14,0.42-0.21,0.63c-0.2,0.65-0.29,1.15-0.27,1.62
		c0.02,0.5,0.21,0.98,0.53,1.39c0.5,0.6,1.23,0.96,1.73,1.19c0.17,0.08,0.36,0.15,0.53,0.21c0.18,0.07,0.36,0.11,0.55,0.15
		c0.42,0.09,0.84,0.13,1.31,0.13c0.42,0,0.81-0.03,1.5-0.12c0.44-0.06,0.88-0.14,1.32-0.24c0.16-0.04,0.29-0.21,0.29-0.38
		c0-0.2-0.18-0.39-0.38-0.39l-0.53,0.04c-0.61,0.04-1.21,0.09-1.82,0.09c-0.43,0-0.79-0.02-1.13-0.06
		c-0.18-0.03-0.36-0.07-0.55-0.11c-0.2-0.04-0.39-0.12-0.55-0.18c-0.47-0.21-0.84-0.41-1.15-0.64c-0.16-0.13-0.3-0.26-0.43-0.41
		c-0.06-0.07-0.12-0.18-0.17-0.3c-0.03-0.11-0.06-0.23-0.09-0.36c-0.02-0.17-0.01-0.36,0-0.55l-0.02-0.11c0,0,0.01,0.02,0.01,0.02
		C109.81,108.75,109.93,108.33,110.05,107.96 M82,107.7c-0.34-0.26-0.65-0.56-0.95-0.93c-0.39-0.51-0.72-1.07-0.98-1.65
		c-0.04-0.1-0.09-0.2-0.12-0.3c-0.03-0.06-0.05-0.09-0.08-0.13c0.08-0.41,0.15-0.83,0.23-1.28c0.14-0.36,0.26-0.65,0.39-0.93
		c0.04,0.23,0.11,0.49,0.22,0.81c0.32,1,0.73,1.97,1.21,2.88c0.09,0.55,0.2,1.11,0.32,1.67C82.14,107.8,82.07,107.75,82,107.7
		 M118.38,159.68c1.04-0.03,2.19-0.12,3.41-0.26c1.23-0.16,2.38-0.37,3.41-0.63c2.8-0.68,5.52-1.94,7.85-3.64
		c1.1-0.81,2.16-1.76,3.22-2.91c0.89-0.97,1.72-2.07,2.55-3.36l0.62,0.02c0.33,0,0.66-0.01,0.99-0.01l0.25,0
		c0.81,0,1.59,0.05,2.32,0.13c-0.53,0.96-1.03,1.8-1.49,2.51c-0.52,0.77-1.13,1.57-1.79,2.3c-0.59,0.69-1.28,1.39-2.11,2.13
		c-0.79,0.7-1.68,1.4-2.66,2.07c-0.88,0.6-1.83,1.16-2.92,1.73c-1.11,0.56-2.27,1.06-3.44,1.49c-1.11,0.39-2.31,0.73-3.56,1.02
		c-2.59,0.56-5.29,0.84-8.02,0.84c-0.61,0-1.23-0.02-1.84-0.04c-1.55-0.08-3.05-0.25-4.45-0.5c-1.38-0.23-2.8-0.57-4.25-1.03
		c-1.13-0.39-2.17-0.8-3.18-1.26c-0.96-0.45-1.94-1-2.91-1.64c-1.22-0.81-2.31-1.7-3.25-2.66c0.86-0.77,1.67-1.59,2.47-2.5
		c0.58,0.67,1.33,1.34,2.2,1.97c0.84,0.61,1.81,1.18,2.88,1.7c0.93,0.46,1.98,0.86,3.2,1.23c1.07,0.34,2.21,0.61,3.47,0.83
		c1.86,0.32,3.85,0.48,5.91,0.48C117.64,159.69,118.01,159.69,118.38,159.68 M143.57,149.05c0.13,0.05,0.31,0.09,0.49,0.11
		c0.17,0.02,0.33,0.05,0.5,0.09l0.15,0.02c0.68,0.15,1.28,0.31,1.84,0.5l-0.3,0.14l-0.34,0.22l-0.79,0.51
		c-1.13,0.7-2.3,1.34-3.51,1.9C142.35,151.44,143.01,150.27,143.57,149.05 M116.46,164.56c2.8-0.04,5.68-0.25,8.59-0.63
		c2.41-0.33,4.88-0.8,7.36-1.39c2.21-0.52,4.5-1.19,7-2.05c2.53-0.87,4.86-1.84,6.91-2.9c1.11-0.55,2.2-1.18,3.24-1.86
		c0.48-0.32,0.97-0.68,1.44-1.04c0.25-0.2,0.5-0.41,0.74-0.62c0.14-0.13,0.27-0.25,0.4-0.38l0.16-0.15
		c0.37,0.51,0.71,0.98,1.08,1.52c0.76,1.19,1.37,2.44,1.89,3.94c-0.17,0.05-0.35,0.17-0.52,0.29l-0.32,0.22l-0.43,0.3
		c-0.5,0.35-1,0.7-1.51,1.04c-0.51,0.34-1.02,0.66-1.56,0.97c-0.48,0.28-0.98,0.54-1.47,0.79c-2.53,1.29-5.21,2.44-7.97,3.42
		c-2.68,0.95-5.52,1.75-8.43,2.39c-5.44,1.18-11.23,1.77-17.21,1.77c-1.53,0-3.05-0.04-4.55-0.12c-8.56-0.45-17.23-2.07-25.76-4.82
		l3.45-2.54l0.63-0.47c0.94-0.7,1.88-1.4,2.8-2.13c2.24,0.98,4.69,1.82,7.28,2.49c2.54,0.67,5.34,1.2,8.35,1.55
		c2.4,0.27,4.91,0.41,7.45,0.41C115.83,164.57,116.15,164.57,116.46,164.56 M146.04,174.48c2-0.61,3.94-1.28,5.79-1.98
		c1.16-0.43,2.09-0.82,2.93-1.23c0.46-0.22,0.91-0.45,1.35-0.71c0.25-0.14,0.5-0.3,0.75-0.47c0.1-0.06,0.19-0.13,0.28-0.2
		l-0.07,0.36l-0.02,0.26l-0.02,0.2c-0.03,0.53-0.07,1.07-0.12,1.63c-0.05,0.59-0.11,1.18-0.18,1.77l-0.03,0.32l-0.04,0.34
		c-0.06,0.54-0.12,1.08-0.16,1.63l-0.19,0.08c-0.16,0.09-0.32,0.2-0.48,0.3c-0.31,0.19-0.61,0.39-0.9,0.59l-0.21,0.14
		c-0.68,0.45-1.37,0.9-2.08,1.31c-0.59,0.34-1.24,0.66-1.82,0.94c-0.6,0.29-1.2,0.55-1.8,0.81l0.14,0.04
		c-4.57,1.81-9.64,3.08-15.49,3.86c-4.62,0.63-9.69,0.93-15.52,0.93l-0.61,0c-2.3,0-4.79-0.07-7.62-0.19
		c-1.47-0.05-2.77-0.13-4.11-0.24c-1.26-0.09-2.71-0.24-4.43-0.46l-0.25-0.03l-0.24-0.03c-7.24-0.99-13.94-2.76-19.94-5.28
		c-0.64-0.27-1.29-0.55-1.93-0.85c-0.06-0.85-0.14-1.82-0.13-2.79l-0.1,0.09c0.12-1.07,0.26-1.91,0.44-2.57
		c0.05-0.16,0.09-0.27,0.13-0.39c9.92,4.13,20.97,6.36,32.82,6.63c0.79,0.02,1.59,0.03,2.38,0.03
		C125.16,179.3,135.74,177.68,146.04,174.48"/>
	<path d="M150.14,104.16c-0.07,0.01-0.11,0.05-0.16,0.1c-0.11,0.13-0.21,0.25-0.29,0.41c-0.05,0.09-0.09,0.17-0.12,0.26
		c-0.04,0.11-0.06,0.24-0.08,0.35c-0.01,0.06,0.02,0.13,0.05,0.18c0.04,0.05,0.11,0.08,0.18,0.09c0.06,0,0.13-0.02,0.18-0.06
		c0.06-0.05,0.08-0.11,0.09-0.17c0.01-0.05,0.02-0.1,0.03-0.14c0,0.02-0.01,0.04-0.01,0.06c0.01-0.04,0.03-0.09,0.04-0.14
		c0.03-0.09,0.08-0.18,0.12-0.26c-0.01,0.02-0.02,0.04-0.03,0.06c0.03-0.04,0.05-0.08,0.08-0.13c0.06-0.08,0.12-0.15,0.18-0.22
		c0.04-0.05,0.05-0.13,0.04-0.19c-0.01-0.07-0.05-0.13-0.11-0.16c-0.04-0.03-0.09-0.05-0.14-0.05
		C150.17,104.16,150.16,104.16,150.14,104.16"/>
</g>
</svg>
