<?xml version="1.0" encoding="utf-8"?>
<!-- Generator: Adobe Illustrator 23.1.0, SVG Export Plug-In . SVG Version: 6.00 Build 0)  -->
<svg version="1.1" id="Capa_1" xmlns="http://www.w3.org/2000/svg" xmlns:xlink="http://www.w3.org/1999/xlink" x="0px" y="0px"
	 viewBox="0 0 226.77 226.77" style="enable-background:new 0 0 226.77 226.77;" xml:space="preserve">
<g>
	<path d="M109.31,86.78c-0.14,0-0.25,0.12-0.24,0.26c0.06,1.28,0.02,2.56-0.09,3.83l0-0.03c-0.18,1.92-0.53,3.82-0.98,5.7
		c-0.21,0.91-0.46,1.8-0.72,2.7c-0.14,0.47-0.28,0.94-0.43,1.41c-0.13,0.41-0.26,0.83-0.41,1.23c-0.71,1.89-1.73,3.67-2.16,5.66
		c-0.1,0.45-0.14,0.92-0.15,1.38c-0.01,0.49,0.07,0.99,0.21,1.46c0.06,0.22,0.16,0.43,0.26,0.64c0.13,0.25,0.27,0.48,0.44,0.71
		c0.29,0.38,0.63,0.72,1,1.01c1.47,1.14,3.41,1.35,5.21,1.19c0.92-0.08,1.83-0.27,2.71-0.51c0.45-0.12,0.88-0.27,1.32-0.41
		c0.41-0.14,0.81-0.27,1.22-0.39c0.15-0.04,0.23-0.21,0.18-0.36c-0.05-0.16-0.21-0.22-0.36-0.18c-0.5,0.13-1,0.23-1.5,0.32
		c0.03,0,0.06-0.01,0.09-0.01c-0.84,0.15-1.69,0.28-2.54,0.37c-0.91,0.1-1.82,0.14-2.74,0.06c0.05,0,0.1,0.01,0.16,0.01
		c-0.64-0.06-1.26-0.19-1.86-0.4c-0.37-0.15-0.72-0.33-1.06-0.56c-0.29-0.22-0.55-0.46-0.79-0.73c-0.21-0.25-0.39-0.52-0.54-0.82
		c-0.11-0.27-0.2-0.54-0.26-0.82c-0.06-0.4-0.07-0.81-0.05-1.21c0.11-1.08,0.44-2.12,0.82-3.13c0,0.01-0.01,0.02-0.01,0.03
		c0.01-0.03,0.03-0.07,0.04-0.1c0,0,0-0.01,0-0.01c0,0,0,0,0,0c0.43-1.12,0.91-2.23,1.25-3.38c0.47-1.59,0.89-3.21,1.25-4.83
		c0.71-3.23,1.14-6.54,0.98-9.85c0-0.13-0.11-0.24-0.24-0.24C109.32,86.78,109.31,86.78,109.31,86.78 M106.08,105.09
		c-0.01,0.02-0.02,0.05-0.02,0.07C106.06,105.13,106.08,105.1,106.08,105.09C106.08,105.08,106.08,105.08,106.08,105.09
		 M108.98,90.91c0-0.02,0-0.03,0-0.04C108.98,90.88,108.98,90.9,108.98,90.91"/>
	<path d="M121.65,117.26c-0.64,0.37-1.29,0.71-1.96,1.02c-0.7,0.32-1.42,0.59-2.15,0.82c0.03-0.01,0.06-0.02,0.1-0.03
		c-1.56,0.47-3.17,0.73-4.79,0.8c-0.98,0.03-1.96,0-2.94-0.09c-1.03-0.1-2.04-0.28-3.04-0.5c-1.2-0.29-2.38-0.66-3.52-1.1
		c-0.13-0.05-0.28,0.02-0.33,0.15c-0.05,0.13,0.02,0.28,0.15,0.33c0.74,0.28,1.49,0.54,2.25,0.76c0.73,0.22,1.48,0.41,2.23,0.57
		c1.63,0.36,3.3,0.56,4.97,0.58c1.63,0.02,3.26-0.17,4.83-0.62c0.76-0.21,1.5-0.5,2.21-0.84c0.8-0.38,1.58-0.83,2.29-1.37
		c0.1-0.07,0.13-0.22,0.08-0.34c-0.05-0.1-0.16-0.17-0.27-0.17C121.72,117.23,121.68,117.23,121.65,117.26"/>
	<path d="M118.1,121.57c-0.11,0.14-0.23,0.28-0.35,0.41c-0.26,0.24-0.53,0.44-0.83,0.62c-0.5,0.28-1.02,0.48-1.57,0.63
		c0.02-0.01,0.04-0.01,0.06-0.02c-1.09,0.29-2.21,0.4-3.33,0.41h0.07c-1.15,0.01-2.3-0.08-3.44-0.23c-0.97-0.13-1.93-0.31-2.88-0.55
		c-0.06-0.02-0.14,0.01-0.18,0.05c-0.05,0.04-0.09,0.11-0.09,0.17c-0.01,0.06,0.01,0.13,0.05,0.18c0.05,0.06,0.1,0.08,0.17,0.1
		c0.99,0.25,2,0.43,3.01,0.57c1.21,0.16,2.43,0.23,3.65,0.21c1.18-0.02,2.35-0.18,3.47-0.53c0.5-0.16,0.97-0.37,1.41-0.64
		c0.22-0.13,0.42-0.29,0.61-0.45c0.22-0.19,0.41-0.41,0.59-0.63c0.08-0.11,0.06-0.27-0.05-0.35c-0.04-0.04-0.1-0.05-0.15-0.05
		C118.22,121.47,118.14,121.51,118.1,121.57"/>
	<path d="M121.5,117.04c-0.1,0.09-0.16,0.21-0.16,0.35c-0.01,0.13,0.04,0.27,0.13,0.36c0.1,0.11,0.21,0.14,0.35,0.17
		c0,0,0.01,0,0.01,0c0.11,0.03,0.2,0.06,0.3,0.1c0.04,0.02,0.08,0.05,0.12,0.08c0.05,0.05,0.1,0.1,0.14,0.16
		c0.03,0.05,0.06,0.09,0.08,0.14c0.12,0.21,0.38,0.3,0.6,0.19c0.1-0.05,0.18-0.14,0.21-0.25c0.04-0.12,0.02-0.23-0.03-0.34
		c-0.12-0.29-0.28-0.55-0.52-0.74c-0.11-0.08-0.21-0.15-0.33-0.21c-0.08-0.04-0.16-0.07-0.26-0.09c-0.09-0.02-0.18-0.04-0.27-0.05
		c-0.02,0-0.03,0-0.05,0C121.7,116.91,121.58,116.97,121.5,117.04 M122.31,118.17c0.02,0.03,0.04,0.06,0.06,0.1
		C122.36,118.23,122.33,118.2,122.31,118.17"/>
	<path d="M83.43,43.09c-0.08,0-0.16,0-0.24,0c-0.1,0-0.2,0.02-0.3,0.03c-0.12,0.02-0.23,0.06-0.34,0.1c-0.24,0.08-0.4,0.22-0.5,0.33
		c-0.13,0.14-0.22,0.31-0.29,0.52c-0.07,0.2-0.09,0.43-0.09,0.73c0,0.21,0.03,0.44,0.09,0.7c0.17,0.77,0.61,1.54,1.37,2.43
		c0.35,0.41,0.74,0.77,1.08,1.08c0.38,0.34,0.81,0.69,1.37,1.09c0.65,0.46,1.33,0.89,2.09,1.3c0.27,0.15,0.55,0.29,0.84,0.43
		l-0.4,0.04c-0.33,0.06-0.66,0.12-0.99,0.17c-0.84,0.14-1.69,0.28-2.53,0.41l-2.14,0.33l-0.91,0.14c-0.61,0.09-1.22,0.19-1.83,0.28
		c-0.9,0.14-1.82,0.23-2.71,0.32l-0.15,0.02l-1.05,0.1c-1.27,0.13-2.62,0.31-3.9,0.72c-0.73,0.22-1.5,0.5-1.99,1.13
		c-0.31,0.4-0.42,0.96-0.3,1.55c0.13,0.64,0.49,1.19,0.86,1.7c0.48,0.65,1.08,1.22,1.6,1.71c1.06,0.99,2.22,1.83,3.11,2.45
		c0.58,0.41,1.46,1,2.4,1.5c0.72,0.39,1.54,0.78,2.52,1.17l-0.2,0.84c-0.29,1.28-0.57,2.55-0.84,3.83c-0.44,2.13-0.77,4.08-1,5.96
		c-0.26,2.16-0.35,4.15-0.28,6.07c0.03,0.91,0.12,1.85,0.27,2.86c0.07,0.48,0.17,0.96,0.28,1.43c0.12,0.51,0.29,1.01,0.43,1.43
		c0.01,0.03,0.02,0.06,0.04,0.1c-0.22,0.02-0.46,0.07-0.71,0.14c-0.49,0.12-0.99,0.33-1.58,0.64c-0.94,0.49-1.83,1.25-2.59,2.19
		c-0.32,0.4-0.61,0.86-0.88,1.36c-0.26,0.5-0.47,1.07-0.67,1.77c-0.64,2.24-0.45,4.75,0.54,7.07c0.45,1.07,1.08,2.09,1.87,3.05
		c0.39,0.46,0.78,0.88,1.2,1.27c0.4,0.38,0.87,0.76,1.48,1.19c0.71,0.51,1.53,0.96,2.51,1.4c0.48,0.22,0.96,0.39,1.42,0.52
		c0.29,0.08,0.61,0.14,0.97,0.18l-0.01,0.17c-0.05,3.41,0.1,6.38,0.46,9.08c0.21,1.53,0.49,3.02,0.84,4.43
		c0.15,0.63,0.32,1.23,0.5,1.78c0.17,0.51,0.37,1.05,0.65,1.69c0.8,1.88,1.92,3.59,3.32,5.11c1.27,1.34,2.82,2.5,4.61,3.45
		c0.84,0.45,1.75,0.85,2.7,1.2c0.04,0.75,0.02,1.41-0.06,2.01c-0.08,0.52-0.2,0.98-0.36,1.4c-0.15,0.34-0.33,0.66-0.56,0.97
		c-0.23,0.3-0.49,0.56-0.79,0.79c-0.35,0.26-0.75,0.49-1.22,0.69l0.14,0c-0.89,0.3-1.81,0.52-2.88,0.68c-0.92,0.12-1.88,0.2-3,0.25
		l-1.12,0.06c-0.88,0.04-1.76,0.09-2.64,0.14c-2.24,0.15-4.87,0.41-7.4,1.14c-1.18,0.34-2.33,0.82-3.4,1.41
		c-1.06,0.57-2.09,1.33-3.05,2.26c-1.51,1.45-2.76,3.38-3.7,5.73c-0.55,1.36-0.97,2.82-1.29,4.47c-0.3,1.54-0.48,3.19-0.55,4.92
		c-0.06,1.53-0.02,3.11,0.13,4.68c0.15,1.54,0.4,3.01,0.74,4.38c0.04,0.19,0.23,0.33,0.45,0.34c0.01,0.04,0.07,0.1,0.15,0.15
		c3.88,2.74,8.39,4.98,13.77,6.85c4.73,1.65,9.99,2.92,15.64,3.77c4.97,0.75,10.18,1.15,15.49,1.2h0.58l0.58,0
		c5.43,0,10.98-0.33,16.5-0.99c6.03-0.72,11.93-1.86,17.53-3.38c2.8-0.76,5.61-1.67,8.37-2.7c1.47-0.56,2.88-1.13,4.17-1.71
		c1.59-0.71,2.98-1.4,4.26-2.13c0.16-0.1,0.32-0.2,0.48-0.3l0.11-0.07l0.21-0.13c0.15-0.06,0.23-0.11,0.29-0.17
		c0.08-0.09,0.13-0.19,0.15-0.35c0.11-1.09,0.17-2.25,0.22-3.19l0.01-0.21l0.02-0.37c0.06-1.33,0.09-2.69,0.09-4.04
		c-0.01-2.94-0.22-5.61-0.65-8.17c-0.21-1.27-0.52-2.55-0.92-3.8c-0.41-1.29-0.88-2.39-1.44-3.38c-0.54-0.96-1.21-1.84-2-2.61
		c-0.69-0.68-1.51-1.29-2.44-1.83c-1.12-0.64-2.42-1.13-3.97-1.52c-1.54-0.39-3.09-0.57-4.4-0.7c-1.34-0.13-2.7-0.21-4.09-0.29
		l-0.46-0.03c-1.48-0.08-2.92-0.17-4.33-0.36c-1.43-0.2-2.49-0.46-3.44-0.86c-0.52-0.24-0.95-0.5-1.33-0.78
		c-0.31-0.26-0.56-0.51-0.78-0.79c-0.24-0.33-0.44-0.67-0.62-1.05c-0.19-0.5-0.32-0.99-0.41-1.54c-0.08-0.65-0.1-1.24-0.07-1.93
		c0-0.06-0.01-0.11-0.04-0.16c2.41-0.95,4.34-2.07,5.89-3.41c0.85-0.74,1.59-1.61,2.2-2.56c0.55-0.86,1.06-1.85,1.58-3.13
		c0.83-2.04,1.44-4.37,1.92-7.32c0.56-3.51,0.77-7.09,0.97-10.54l0.04-0.71c0.24,0.05,0.49,0.07,0.75,0.08
		c0.37,0,0.66-0.04,0.99-0.09c0.62-0.11,1.25-0.29,1.91-0.55c0.72-0.29,1.42-0.67,2.07-1.14c1.17-0.84,2.16-1.97,2.95-3.36
		c0.34-0.6,0.63-1.27,0.89-2.03c0.23-0.65,0.4-1.35,0.54-2.13c0.24-1.44,0.27-2.86,0.08-4.23c-0.17-1.28-0.52-2.43-1.04-3.43
		c-0.51-1-1.22-1.78-2.05-2.27c-0.4-0.24-0.87-0.4-1.36-0.48c-0.19-0.03-0.39-0.04-0.58-0.04c-0.23,0-0.47,0.02-0.71,0.06
		c0.14-0.46,0.25-0.97,0.35-1.56c0.11-0.65,0.2-1.31,0.27-2.15c0.13-1.37,0.18-2.79,0.17-4.36c-0.02-2.57-0.23-5.33-0.67-8.69
		c-0.17-1.28-0.38-2.77-0.67-4.22c-0.3-1.46-0.69-2.92-1.18-4.36c-0.45-1.33-0.99-2.69-1.67-4.13c-0.33-0.72-0.64-1.32-0.97-1.88
		c-0.13-0.23-0.28-0.45-0.43-0.66c-0.17-0.24-0.32-0.43-0.46-0.63l-0.21-0.28c-0.33-0.44-0.71-0.96-0.98-1.54
		c-0.07-0.19-0.13-0.37-0.16-0.56c-0.02-0.14-0.02-0.28-0.03-0.42c0-0.19,0.02-0.39,0.04-0.58l0.04-0.26l0.06-0.42l0.07-0.51
		c0.06-0.48,0.03-0.97-0.09-1.44c-0.05-0.2-0.24-0.34-0.45-0.34c-0.05,0-0.09,0.01-0.13,0.02c-0.28,0.09-0.53,0.2-0.78,0.35
		c-0.24,0.15-0.46,0.34-0.66,0.53c-0.09,0.08-0.17,0.17-0.25,0.26c0.03-0.33-0.01-0.6-0.05-0.84c-0.06-0.35-0.2-0.67-0.31-0.9
		c-0.07-0.15-0.22-0.2-0.34-0.2c-0.11,0-0.22,0.04-0.3,0.11c-0.2,0.21-0.36,0.42-0.5,0.65c-0.16,0.25-0.26,0.53-0.35,0.77
		c-0.13,0.33-0.21,0.73-0.27,1.22c-0.28-0.25-0.63-0.49-1.04-0.76c-0.48-0.31-1.01-0.6-1.66-0.91c-1.02-0.51-2.16-0.97-3.59-1.46
		c-1.06-0.36-2.22-0.68-3.77-1.03c-1.11-0.25-2.3-0.47-3.73-0.7c-6.21-0.99-12.54-1.24-19.02-1.41l-1.7-0.04
		c-2.5-0.07-5.33-0.14-8.11-0.27c-1.2-0.05-2.41-0.12-3.61-0.19c-2.13-0.12-4.2-0.24-6.24-0.29l-0.55-0.01l-0.56-0.01
		c-0.16,0-0.32-0.01-0.48-0.02l-0.12-0.01l-0.15-0.01C83.72,43.09,83.57,43.09,83.43,43.09 M113.9,67.29L113.9,67.29h0.01
		c0.29,0,0.51-0.04,0.73-0.07c0.3-0.05,0.59-0.13,0.88-0.21c0.63-0.18,1.22-0.43,1.83-0.68c0.61-0.26,1.22-0.56,1.92-0.93
		c0.77-0.41,1.45-0.79,2.08-1.17c0,0.26,0.03,0.53,0.07,0.8c0.07,0.39,0.18,0.76,0.34,1.14c0.12,0.28,0.32,0.52,0.56,0.71
		c0.21,0.16,0.48,0.25,0.81,0.26c0.33,0,0.63-0.11,0.88-0.22c0.35-0.14,0.66-0.34,0.95-0.53c0.32-0.21,0.63-0.45,0.93-0.68
		l0.12-0.09l0.54-0.42l0.55-0.42l-0.05,0.18c-0.02,0.34,0,0.67,0.06,1.02c0.09,0.53,0.34,1.03,0.72,1.42
		c0.34,0.34,0.8,0.59,1.38,0.75c0.42,0.12,0.89,0.18,1.44,0.18c0.13,0,0.25,0,0.38-0.01c0.63-0.03,1.3-0.12,2.12-0.29
		c0.68-0.14,1.39-0.34,2.24-0.61c1.33-0.42,2.74-0.99,4.19-1.7c0.49-0.24,0.98-0.49,1.46-0.77c0.13-0.07,0.25-0.15,0.38-0.22
		c0.22,1.31,0.4,2.45,0.54,3.48c0.37,2.82,0.61,5.77,0.71,8.76c0.05,1.44,0.07,2.86,0.04,4.34c-0.01,0.63-0.02,1.25-0.05,1.88
		c-0.03,0.6-0.07,1.19-0.13,1.79c-0.1,1.06-0.22,2.12-0.35,3.17l-0.03,0.29c-0.17,1.41-0.34,2.88-0.43,4.32
		c-0.09,1.44-0.09,2.69-0.01,3.84c0.1,1.27,0.32,2.36,0.66,3.36c0.09,0.27,0.2,0.53,0.31,0.79c0.11,0.23,0.22,0.42,0.34,0.57
		c0.1,0.12,0.2,0.2,0.3,0.25c0.07,0.04,0.16,0.07,0.27,0.08c0.12,0,0.2-0.03,0.29-0.07c0.07-0.03,0.14-0.07,0.21-0.15l-0.08,1.23
		c-0.04,0.72-0.07,1.42-0.11,2.09c-0.06,0.98-0.14,1.96-0.21,2.94c-0.07,0.91-0.13,1.8-0.2,2.69c-0.16,2.04-0.35,3.88-0.58,5.61
		c-0.36,2.71-0.96,6.26-2.37,9.64c-0.63,1.44-1.21,2.49-1.9,3.39c-0.65,0.81-1.37,1.51-2.25,2.2c-1.34,1-2.89,1.88-4.74,2.67
		c-2.28,0.96-4.62,1.63-6.63,2.19c-0.09,0.02-0.18,0.09-0.23,0.18c-0.05,0.09-0.06,0.2-0.03,0.29c0.04,0.17,0.2,0.28,0.37,0.28
		c2.66-0.72,4.43-1.27,6.1-1.91c-0.07,1.08,0.02,2.03,0.27,2.91c0.22,0.8,0.61,1.54,1.15,2.19c0.45,0.55,1.07,1.03,1.83,1.43
		c0.13,0.07,0.27,0.13,0.4,0.19c-0.14,0.14-0.28,0.33-0.42,0.52l-0.15,0.2c-0.26,0.36-0.52,0.71-0.79,1.07
		c-0.62,0.79-1.2,1.46-1.77,2.06c-0.65,0.68-1.39,1.33-2.18,1.95c-1.33,1.01-2.8,1.87-4.38,2.55c-1.88,0.78-3.92,1.32-6.04,1.62
		c-1.16,0.17-2.46,0.25-3.76,0.25c-1.27,0-2.56-0.08-3.84-0.25c-1.32-0.18-2.54-0.42-3.73-0.73c-1.21-0.33-2.41-0.74-3.58-1.22
		c-1.79-0.78-3.43-1.73-4.87-2.82c-1.32-1.03-2.46-2.16-3.39-3.36c-0.49-0.63-0.96-1.35-1.37-2.09c0.22-0.18,0.44-0.43,0.66-0.72
		c0.41-0.56,0.71-1.27,0.9-2.1c0.17-0.72,0.23-1.54,0.18-2.51c2.33,0.81,4.99,1.34,8.35,1.65c0.23,0,0.38-0.2,0.38-0.38
		c0-0.25-0.21-0.36-0.38-0.38c-0.55-0.05-1.11-0.12-1.65-0.19c-2.95-0.4-5.51-1.06-7.81-2.01c-1.55-0.67-2.98-1.48-4.23-2.43
		c-0.58-0.45-1.1-0.9-1.53-1.33c-0.5-0.49-1-1.05-1.53-1.73c-0.83-1.1-1.56-2.36-2.16-3.76c-0.83-2.01-1.41-4.3-1.78-7l-0.03-0.11
		c-0.56-4.54-0.43-9.1-0.24-13.77l0.04-1.1c0.08-1.97,0.16-3.94,0.2-5.91c0.01-0.85,0.01-1.69,0-2.51c0.01,0,0.02,0,0.02,0
		c0.22,0,0.4-0.14,0.47-0.37c0.23-0.7,0.33-1.44,0.4-2.15c0.07-0.72,0.09-1.5,0.05-2.52c-0.04-1.18-0.14-2.38-0.25-3.53
		c-0.05-0.53-0.09-1.06-0.14-1.58c-0.07-0.92-0.11-1.67-0.12-2.38c-0.01-0.81,0.04-1.62,0.1-2.41l0.01-0.13
		c0.13-1.92,0.3-3.67,0.53-5.34h0c0.41-2.99,0.96-5.38,1.73-7.53c0.02-0.06,0.02-0.14,0-0.21l0.37,0c0.63-0.03,1.26-0.12,1.9-0.28
		l-0.15,0.13c-0.17,0.2-0.32,0.42-0.45,0.63c-0.16,0.25-0.26,0.49-0.3,0.72c-0.04,0.2-0.03,0.4,0.02,0.61
		c0.05,0.19,0.15,0.36,0.29,0.52c0.25,0.27,0.58,0.42,0.84,0.53c0.36,0.14,0.74,0.22,1.08,0.29c0.48,0.08,0.96,0.12,1.41,0.15
		c0.4,0.02,0.8,0.03,1.2,0.03c0.59,0,1.18-0.02,1.77-0.05c0.81-0.04,1.61-0.1,2.42-0.16l0.51-0.04c0.28-0.02,0.56-0.04,0.84-0.07
		c0.64-0.07,1.32-0.16,2.13-0.29c2.69-0.46,5.36-1.3,7.93-2.51c1.38-0.65,2.73-1.43,4.01-2.33c-0.12,0.28-0.19,0.58-0.22,0.9
		c-0.04,0.46,0.1,0.89,0.39,1.18C112.98,67.14,113.38,67.28,113.9,67.29 M145.17,94.37c0-0.56,0-1.12,0-1.68
		c0-0.29-0.01-0.59-0.02-0.88c0.07-0.22,0.14-0.44,0.24-0.66c0.22-0.47,0.46-0.88,0.75-1.27c0.2-0.25,0.41-0.49,0.64-0.72
		c0.42-0.31,0.79-0.54,1.17-0.73c0.43-0.2,0.84-0.33,1.26-0.4c0.18-0.03,0.37-0.04,0.56-0.04c0.1,0,0.21,0,0.32,0.02
		c0.26,0.03,0.51,0.09,0.76,0.18c0.26,0.11,0.5,0.24,0.73,0.4c0.28,0.21,0.53,0.45,0.75,0.71c0.34,0.43,0.6,0.85,0.85,1.36
		c0.34,0.77,0.56,1.52,0.72,2.4c0.18,1.14,0.22,2.33,0.11,3.51c-0.13,1.15-0.4,2.28-0.8,3.35c-0.38,0.94-0.8,1.72-1.3,2.43
		c-0.5,0.67-1.03,1.24-1.63,1.75c-0.68,0.53-1.31,0.92-1.99,1.23c-0.68,0.29-1.35,0.5-2,0.62c-0.24,0.04-0.49,0.07-0.74,0.08
		c-0.07,0.01-0.15,0.01-0.23,0.01c-0.19,0-0.38-0.01-0.57-0.03c0.06-1.38,0.12-2.62,0.18-3.8c0.06-1.26,0.12-2.46,0.16-3.67
		c0.03-0.86,0.05-1.72,0.07-2.58c0.19-0.35,0.4-0.69,0.64-1.04c0.4-0.54,0.85-1.03,1.38-1.48c0.59-0.47,1.22-0.88,1.89-1.19
		c0.56-0.24,1.08-0.41,1.64-0.53c0.07-0.02,0.14-0.07,0.19-0.14c0.05-0.09,0.06-0.19,0.04-0.29c-0.03-0.08-0.08-0.15-0.16-0.2
		c-0.04-0.03-0.1-0.04-0.15-0.04c-0.04,0-0.07,0-0.11,0.01c-1.45,0.31-2.72,0.88-3.78,1.69c-0.53,0.4-1,0.87-1.4,1.4l-0.14,0.19
		L145.17,94.37z M73.92,101c-0.36-0.87-0.63-1.73-0.79-2.56c-0.14-0.85-0.17-1.71-0.1-2.56c0.1-0.84,0.3-1.7,0.61-2.54
		c0.24-0.58,0.51-1.08,0.85-1.56c0.4-0.55,0.88-1.07,1.42-1.53c0.49-0.39,0.99-0.7,1.51-0.96c0.5-0.22,0.99-0.37,1.48-0.46
		c0.31-0.05,0.61-0.07,0.9-0.07c0.06,0,0.12,0,0.18,0c0.36,0.18,0.68,0.38,0.97,0.59c0,0,0.02,0.02,0.02,0.02
		c0.29,0.24,0.55,0.51,0.8,0.82c0.28,0.37,0.52,0.8,0.75,1.32c0.08,0.21,0.16,0.41,0.23,0.63c0,0.24,0.01,0.49,0.01,0.74
		c0.01,0.65,0,1.31,0,1.96c-0.15-0.3-0.38-0.57-0.56-0.77c-0.24-0.26-0.51-0.5-0.86-0.75c-0.26-0.19-0.53-0.36-0.81-0.51
		c-0.29-0.15-0.61-0.29-1.01-0.42c-0.59-0.2-1.26-0.31-1.97-0.31c-0.18,0-0.29,0.04-0.36,0.13c-0.07,0.07-0.12,0.18-0.11,0.28
		c0.01,0.22,0.19,0.39,0.41,0.39l0.11,0c0.17,0,0.34,0.01,0.51,0.03c0.44,0.06,0.87,0.17,1.31,0.33c0.46,0.2,0.89,0.43,1.3,0.72
		c0.46,0.34,0.87,0.73,1.25,1.19c0.15,0.19,0.3,0.39,0.43,0.6c0.13,0.2,0.25,0.41,0.36,0.63c-0.03,1.14-0.06,2.28-0.11,3.42
		c-0.03,0.89-0.07,1.77-0.11,2.66l-0.03,0.72c-0.07,1.58-0.13,3.19-0.17,4.8c-0.39-0.13-0.8-0.26-1.21-0.42
		c-1.12-0.46-2.19-1.04-3.17-1.74c-0.9-0.67-1.71-1.43-2.4-2.26c-0.65-0.81-1.2-1.69-1.64-2.62L73.92,101z M91.45,143.04
		c0.04,0,0.08-0.01,0.12-0.02c0.86-0.24,1.53-0.53,2.13-0.92c0.1-0.06,0.19-0.13,0.29-0.19c0.91,1.68,2.12,3.22,3.57,4.59
		c1.43,1.33,3.12,2.51,5.03,3.49c3.64,1.88,7.87,2.94,12.21,3.06c0.28,0,0.52,0.01,0.77,0.01c1.62,0,3.3-0.15,4.99-0.44
		c1.84-0.33,3.63-0.87,5.32-1.62c0.86-0.38,1.74-0.85,2.7-1.45c0.96-0.59,1.94-1.31,2.89-2.13c0.89-0.77,1.71-1.64,2.45-2.58
		c0.76-0.98,1.35-1.93,1.77-2.9c0.31,0.13,0.67,0.23,1.13,0.35c0.49,0.12,1.05,0.22,1.76,0.32l-0.22,0.31
		c-0.19,0.32-0.38,0.65-0.59,0.97c-0.31,0.48-0.68,0.99-1.12,1.56c-1.15,1.45-2.48,2.77-3.96,3.91c-1.86,1.42-3.94,2.62-6.16,3.57
		c-1.29,0.53-2.48,0.94-3.63,1.26c-1.18,0.32-2.43,0.58-3.72,0.76c-1.34,0.17-2.7,0.26-4.05,0.27c-1.38,0-2.78-0.1-4.18-0.29
		c-2.64-0.37-5.19-1.07-7.58-2.06c-1.08-0.46-2.13-0.98-3.13-1.55c-1.04-0.61-2.06-1.28-3.01-2.01c-0.86-0.67-1.7-1.4-2.48-2.18
		c-0.76-0.76-1.49-1.58-2.17-2.46c-0.39-0.51-0.79-1.06-1.19-1.66L91.45,143.04z"/>
	<path d="M83,82.05c0.05,1.15,0.18,2.3,0.31,3.44c0.16,1.36,0.32,2.71,0.48,4.07c0.16,1.4,0.31,2.79,0.38,4.2
		c0.07,1.3,0.06,2.61-0.1,3.9c-0.02,0.16-0.05,0.32-0.08,0.48c-0.06-0.3-0.11-0.6-0.16-0.9c0,0.01,0,0.02,0,0.02
		c0-0.02,0-0.04-0.01-0.06c0-0.03-0.01-0.06-0.01-0.08c0,0.01,0,0.02,0.01,0.04c-0.2-1.57-0.24-3.16-0.48-4.72
		c-0.13-0.8-0.32-1.59-0.6-2.35c-0.3-0.82-0.73-1.58-1.25-2.27c-0.09-0.11-0.23-0.17-0.36-0.09c-0.12,0.07-0.18,0.25-0.1,0.36
		c0.35,0.46,0.63,0.94,0.87,1.46c0,0,0-0.01-0.01-0.01c0.31,0.73,0.5,1.49,0.62,2.27c0-0.01,0-0.01,0-0.02
		c0.2,1.46,0.16,2.94,0.19,4.42c0.02,0.76,0.07,1.51,0.17,2.26c0.05,0.35,0.11,0.69,0.18,1.03c0.09,0.39,0.21,0.77,0.33,1.15
		c0.07,0.23,0.24,0.41,0.48,0.47c0.29,0.08,0.61-0.05,0.76-0.31c0.16-0.26,0.27-0.54,0.38-0.82c0.12-0.31,0.22-0.63,0.3-0.95
		c0.18-0.7,0.28-1.42,0.35-2.14c0.15-1.53,0.05-3.09-0.12-4.62c-0.09-0.82-0.21-1.63-0.34-2.44c-0.13-0.79-0.27-1.57-0.42-2.36
		c-0.14-0.75-0.3-1.5-0.43-2.25c-0.13-0.7-0.24-1.4-0.33-2.09c0,0.04,0.01,0.09,0.02,0.13c-0.05-0.4-0.1-0.8-0.13-1.2
		c-0.01-0.13-0.04-0.23-0.13-0.32c-0.08-0.08-0.2-0.13-0.32-0.13C83.22,81.6,83,81.8,83,82.05 M81.91,89.56
		c0,0.01,0.01,0.02,0.01,0.03C81.92,89.58,81.91,89.57,81.91,89.56 M83.83,97.2c0,0.01,0,0.02,0,0.04c0-0.03-0.01-0.06-0.01-0.08
		C83.83,97.16,83.83,97.18,83.83,97.2"/>
	<path d="M84.01,93.38v0.43c-0.18,0.03-0.32,0.2-0.32,0.39c-0.02,0.56-0.02,1.12-0.03,1.67c-0.06,0.07-0.1,0.17-0.1,0.27
		c0.01,0.54,0.03,1.07,0.06,1.6c0.01,0.12,0.04,0.22,0.13,0.3c0.06,0.05,0.13,0.09,0.2,0.11c0.01,0.07,0.03,0.13,0.09,0.18
		c0.06,0.06,0.14,0.09,0.22,0.09c0.16,0,0.32-0.14,0.31-0.31c0-0.32-0.02-0.63-0.03-0.95c0-0.08,0-0.15,0-0.23
		c0-0.4-0.01-0.79-0.01-1.18c0-0.79-0.01-1.58-0.02-2.37c0-0.14-0.11-0.25-0.25-0.25C84.12,93.13,84.01,93.24,84.01,93.38"/>
	<path d="M126.77,92.17c-0.55,0-1.09,0.03-1.61,0.09c-0.71,0.08-1.41,0.23-2.07,0.43c-0.62,0.19-1.22,0.47-1.79,0.84
		c-0.52,0.33-0.98,0.76-1.38,1.28c-0.09,0.12-0.08,0.28,0.03,0.37c0.04,0.04,0.1,0.06,0.17,0.06c0.08,0,0.15-0.04,0.2-0.09
		c0.16-0.21,0.34-0.42,0.54-0.61c0.34-0.3,0.69-0.54,1.1-0.78c0.56-0.29,1.16-0.51,1.84-0.68c0.4-0.09,0.77-0.15,1.13-0.2
		c-0.25,1.4-0.46,3.03-0.12,4.58c0.08,0.37,0.22,0.73,0.41,1.09c0.17,0.32,0.42,0.6,0.73,0.85c0.27,0.21,0.59,0.38,0.98,0.5
		c0.13,0.04,0.28,0.07,0.43,0.09c0.06,0,0.13,0.01,0.19,0.01c0.1,0,0.19-0.01,0.29-0.02c0.24-0.04,0.47-0.13,0.7-0.27
		c0.25-0.16,0.43-0.38,0.6-0.59c0.17-0.22,0.31-0.48,0.45-0.83c0.12-0.29,0.22-0.63,0.32-1.01c0.15-0.61,0.24-1.29,0.28-2.08
		c0.02-0.29,0.02-0.58,0.01-0.87c-0.02-0.41-0.06-0.81-0.12-1.21c0.55,0.13,1.07,0.26,1.57,0.42c0.37,0.12,0.72,0.25,1.07,0.4
		c0.15,0.06,0.3,0.13,0.45,0.2c0.23,0.11,0.45,0.24,0.67,0.38c0.19,0.13,0.38,0.26,0.56,0.4c0.23,0.18,0.45,0.38,0.66,0.59
		c0.04,0.04,0.1,0.06,0.16,0.06c0.08,0,0.16-0.04,0.21-0.09c0.09-0.1,0.08-0.25-0.03-0.37c-0.17-0.17-0.34-0.32-0.52-0.48
		c-0.18-0.16-0.38-0.29-0.57-0.43c-0.27-0.19-0.58-0.37-0.99-0.59c-0.5-0.26-1.07-0.49-1.76-0.71c-1.33-0.42-2.76-0.65-4.25-0.7
		C127.12,92.17,126.95,92.17,126.77,92.17 M127.76,93.81c0,0,0-0.03,0-0.03c0.04-0.27,0.1-0.63,0.22-0.98
		c0.29,0.03,0.59,0.07,0.89,0.1c0.01,0.45,0,0.89-0.05,1.29c-0.04,0.27-0.11,0.51-0.19,0.74c-0.04,0.07-0.08,0.15-0.13,0.22
		l-0.08,0.1l-0.01-0.01l-0.16,0.08v-0.01l-0.16,0.01l0-0.01l-0.1-0.04l-0.09-0.07l0.01-0.01l-0.05-0.09
		c-0.07-0.17-0.1-0.28-0.12-0.41c-0.02-0.26-0.02-0.54,0.02-0.87C127.76,93.83,127.76,93.81,127.76,93.81"/>
	<path d="M95.17,91.53c-0.58,0-1.2,0.05-1.89,0.14c-0.68,0.09-1.35,0.26-1.99,0.48c-0.61,0.22-1.18,0.5-1.68,0.84
		c-0.24,0.16-0.48,0.35-0.73,0.58c-0.25,0.23-0.46,0.49-0.62,0.69c-0.04,0.05-0.05,0.12-0.04,0.19c0.02,0.08,0.07,0.15,0.13,0.19
		c0.04,0.03,0.09,0.04,0.14,0.04c0.14-0.03,0.19-0.07,0.23-0.13c0.33-0.41,0.65-0.72,1.03-1c0.37-0.25,0.81-0.5,1.31-0.71
		c0.67-0.27,1.48-0.48,2.36-0.59c0.08-0.01,0.25-0.03,0.41-0.04c-0.19,0.74-0.33,1.43-0.43,2.1c-0.14,0.95-0.15,1.79-0.05,2.57
		c0.05,0.37,0.14,0.72,0.27,1.04c0.15,0.37,0.34,0.68,0.58,0.96c0.12,0.14,0.26,0.25,0.41,0.36c0.13,0.1,0.3,0.2,0.49,0.29
		c0.39,0.17,0.8,0.27,1.22,0.29l0.13,0c0.27,0,0.56-0.05,0.83-0.16c0.29-0.11,0.55-0.28,0.81-0.53c0.22-0.21,0.41-0.48,0.6-0.85
		c0.16-0.3,0.29-0.64,0.4-1.07c0.08-0.3,0.15-0.64,0.21-1.08c0.05-0.38,0.08-0.79,0.09-1.22c0.01-0.38-0.01-0.75-0.04-1.12
		c-0.04-0.35-0.09-0.7-0.16-1.04c0.39,0.13,0.79,0.27,1.18,0.44c0.25,0.1,0.5,0.22,0.74,0.35c0.35,0.19,0.68,0.41,1.03,0.68
		c0.16,0.14,0.37,0.33,0.57,0.52c0.05,0.05,0.12,0.08,0.19,0.08c0.07,0,0.13-0.03,0.17-0.07c0.05-0.05,0.08-0.12,0.08-0.19
		c0-0.07-0.03-0.13-0.07-0.17c-0.34-0.34-0.63-0.6-0.93-0.83c-0.29-0.23-0.6-0.44-0.92-0.62c-0.46-0.27-1-0.51-1.68-0.74
		c-0.59-0.2-1.24-0.36-1.99-0.48c-0.7-0.12-1.45-0.19-2.21-0.2C95.3,91.53,95.23,91.53,95.17,91.53 M97.42,94.81l-0.08-0.01
		c-0.04-0.01-0.07-0.01-0.1-0.03l-0.12-0.08l0.01-0.01c-0.03-0.04-0.06-0.09-0.08-0.14c-0.04-0.11-0.07-0.22-0.09-0.33
		c-0.02-0.25-0.02-0.52,0.02-0.83c0.05-0.32,0.11-0.7,0.23-1.06c0.23,0.04,0.48,0.09,0.72,0.13c0,0.06,0.02,0.13,0.02,0.19
		c0.05,0.42,0.05,0.85,0.01,1.26c-0.04,0.21-0.07,0.37-0.13,0.53c-0.04,0.08-0.08,0.15-0.13,0.22l-0.13,0.12l0-0.01L97.42,94.81
		L97.42,94.81z"/>
	<path d="M124.77,92.56c-0.24,0.69-0.4,1.4-0.5,2.12c-0.05,0.39-0.08,0.77-0.09,1.16c-0.01,0.41,0.03,0.82,0.09,1.23
		c0.05,0.36,0.15,0.71,0.29,1.04c0.06,0.16,0.14,0.3,0.22,0.45c0.1,0.17,0.23,0.33,0.36,0.48c0.22,0.26,0.51,0.47,0.81,0.63
		c0.16,0.09,0.33,0.15,0.5,0.21c0.2,0.07,0.41,0.11,0.63,0.14c0.3,0.03,0.61,0.01,0.9-0.07c0.3-0.09,0.56-0.26,0.79-0.46
		c0.22-0.19,0.39-0.43,0.54-0.68c0.18-0.29,0.31-0.62,0.42-0.95c0.23-0.67,0.34-1.38,0.42-2.07c0.04-0.34,0.06-0.68,0.08-1.03
		c0.03-0.52,0.05-1.03,0.05-1.54c0-0.14-0.11-0.25-0.25-0.25c-0.14,0-0.25,0.11-0.25,0.25c0,0.46-0.02,0.92-0.06,1.38
		c-0.03,0.3-0.07,0.6-0.11,0.9c0-0.03,0.01-0.05,0.01-0.08c-0.12,0.85-0.29,1.7-0.61,2.49c-0.13,0.28-0.27,0.53-0.44,0.78
		c0.02-0.02,0.04-0.05,0.05-0.07c-0.12,0.15-0.25,0.28-0.39,0.41c-0.11,0.08-0.21,0.14-0.33,0.19c-0.11,0.04-0.22,0.07-0.34,0.09
		c-0.15,0.01-0.29,0.01-0.44,0c-0.22-0.04-0.44-0.1-0.65-0.18c-0.18-0.08-0.35-0.18-0.52-0.29c-0.15-0.13-0.29-0.26-0.41-0.42
		c-0.14-0.2-0.27-0.41-0.36-0.64c-0.13-0.35-0.21-0.71-0.27-1.08c-0.08-0.67-0.05-1.35,0.04-2.02c0,0.01-0.01,0.02-0.01,0.03
		c0.1-0.67,0.25-1.33,0.47-1.96c0.06-0.18-0.07-0.37-0.24-0.42c-0.03-0.01-0.06-0.01-0.09-0.01
		C124.95,92.31,124.82,92.42,124.77,92.56 M125.98,98.84c0.02,0.01,0.04,0.03,0.05,0.04C126.01,98.87,125.99,98.86,125.98,98.84"/>
	<path d="M124.84,92.79c-0.27,1.52-0.53,3.07-0.35,4.61c0.09,0.71,0.29,1.44,0.74,2.01c0.22,0.29,0.5,0.52,0.82,0.7
		c0.38,0.21,0.83,0.3,1.26,0.33c0.15,0.01,0.31-0.01,0.47-0.04c0.17-0.03,0.33-0.07,0.48-0.13c0.33-0.13,0.61-0.33,0.86-0.58
		c0.13-0.13,0.24-0.28,0.34-0.42c0.11-0.15,0.2-0.31,0.28-0.47c0.18-0.36,0.32-0.73,0.43-1.11c0.24-0.8,0.34-1.64,0.4-2.46
		c0.03-0.38,0.04-0.76,0.04-1.14c-0.01-0.16-0.01-0.33-0.03-0.49c-0.01-0.14-0.03-0.28-0.04-0.42c-0.01-0.15-0.12-0.27-0.27-0.27
		c-0.15,0-0.28,0.13-0.28,0.27c0,0.14-0.01,0.28-0.02,0.42c-0.02,0.2-0.03,0.39-0.04,0.58c-0.03,0.45-0.07,0.9-0.13,1.35
		c0-0.01,0-0.01,0-0.02c-0.12,0.85-0.3,1.71-0.63,2.51c-0.14,0.33-0.31,0.64-0.54,0.93c-0.1,0.12-0.2,0.22-0.31,0.32
		c-0.12,0.09-0.25,0.17-0.39,0.24c-0.14,0.05-0.28,0.09-0.43,0.11c-0.18,0.01-0.35,0.01-0.53-0.01c-0.18-0.03-0.36-0.08-0.53-0.15
		c-0.14-0.07-0.28-0.14-0.41-0.23c-0.13-0.1-0.24-0.21-0.34-0.34c-0.14-0.19-0.25-0.39-0.35-0.6c-0.15-0.38-0.24-0.77-0.3-1.18
		c0,0.02,0,0.04,0,0.06c-0.13-1.04-0.05-2.09,0.09-3.13c0,0.02-0.01,0.04-0.01,0.07c0.05-0.4,0.12-0.79,0.19-1.19
		c0.03-0.13-0.04-0.27-0.17-0.3c-0.02-0.01-0.04-0.01-0.06-0.01C124.98,92.61,124.86,92.68,124.84,92.79 M125.36,98.3
		c0.01,0.02,0.02,0.05,0.03,0.07C125.38,98.35,125.37,98.33,125.36,98.3 M125.97,99.19c0.02,0.02,0.04,0.03,0.07,0.05
		C126.02,99.22,125.99,99.2,125.97,99.19"/>
	<path d="M124.87,96.4c-0.1,0.4-0.15,0.81-0.09,1.22c0.04,0.22,0.09,0.44,0.18,0.65c0.04,0.1,0.08,0.19,0.13,0.28
		c0.07,0.15,0.17,0.27,0.27,0.4c0.04,0.06,0.08,0.1,0.15,0.12c0.06,0.02,0.13,0.01,0.19-0.03c0.05-0.03,0.1-0.09,0.11-0.15
		c0.02-0.06,0.02-0.14-0.02-0.19c-0.07-0.08-0.13-0.17-0.19-0.26c-0.09-0.13-0.15-0.27-0.21-0.41c0.01,0.02,0.02,0.04,0.03,0.06
		c-0.04-0.09-0.07-0.19-0.09-0.29c-0.03-0.09-0.04-0.18-0.05-0.27c-0.01-0.09-0.02-0.18-0.02-0.27c0-0.09,0-0.19,0.01-0.28
		c0.02-0.15,0.05-0.29,0.09-0.42c0.04-0.13-0.04-0.27-0.18-0.31c-0.02,0-0.04-0.01-0.06-0.01C125,96.22,124.9,96.3,124.87,96.4
		 M125.26,97.49c0,0.01,0,0.01,0,0.02C125.26,97.5,125.26,97.5,125.26,97.49"/>
	<path d="M124.69,96.38c-0.03,0.1-0.05,0.21-0.07,0.32c-0.02,0.13-0.03,0.25-0.04,0.38c-0.01,0.23,0.04,0.46,0.09,0.68
		c0.05,0.23,0.15,0.44,0.25,0.65c0.11,0.21,0.25,0.4,0.39,0.59c0.04,0.05,0.12,0.07,0.18,0.07c0.07,0,0.13-0.02,0.18-0.07
		c0.05-0.05,0.07-0.11,0.07-0.18c0-0.07-0.03-0.12-0.07-0.18c-0.03-0.03-0.05-0.06-0.07-0.09c-0.06-0.08-0.11-0.17-0.16-0.25
		c-0.05-0.09-0.11-0.18-0.15-0.28l0.02,0.06c-0.04-0.09-0.08-0.19-0.11-0.29c-0.04-0.13-0.07-0.26-0.09-0.39
		c-0.02-0.11-0.02-0.21-0.02-0.31c0-0.1,0.01-0.2,0.02-0.29c0,0.01,0,0.03-0.01,0.04c0.02-0.11,0.04-0.21,0.07-0.32
		c0.03-0.13-0.04-0.27-0.18-0.31c-0.02-0.01-0.04-0.01-0.06-0.01C124.83,96.2,124.72,96.27,124.69,96.38 M125.1,97.32
		c0,0.02,0.01,0.04,0.01,0.06C125.11,97.37,125.1,97.35,125.1,97.32"/>
	<path d="M124.62,96.44c-0.1,0.38-0.15,0.76-0.09,1.14c0.01,0.11,0.03,0.21,0.05,0.32c0.03,0.11,0.06,0.21,0.1,0.31
		c0.09,0.23,0.21,0.44,0.36,0.65c0.05,0.07,0.09,0.11,0.17,0.13c0.07,0.02,0.15,0.01,0.22-0.03c0.13-0.08,0.19-0.26,0.1-0.39
		c-0.09-0.14-0.17-0.29-0.24-0.44c0.01,0.02,0.02,0.05,0.03,0.07c-0.04-0.1-0.08-0.2-0.11-0.31c-0.03-0.09-0.05-0.19-0.06-0.29
		c-0.01-0.09-0.02-0.18-0.02-0.27c0-0.11,0-0.21,0.01-0.32c0.02-0.14,0.05-0.28,0.09-0.42c0.04-0.16-0.05-0.34-0.22-0.38
		c-0.03-0.01-0.05-0.01-0.08-0.01C124.78,96.21,124.65,96.31,124.62,96.44"/>
	<path d="M124.49,96.41c-0.02,0.08-0.03,0.15-0.04,0.23c-0.02,0.16-0.03,0.32-0.03,0.49c0,0.23,0.04,0.47,0.09,0.7
		c0.04,0.23,0.14,0.45,0.23,0.67c0.12,0.27,0.29,0.51,0.47,0.74c0.04,0.05,0.12,0.07,0.18,0.07c0.07,0,0.13-0.03,0.18-0.07
		c0.05-0.05,0.07-0.11,0.07-0.18c0-0.07-0.03-0.12-0.07-0.17c-0.04-0.04-0.07-0.09-0.1-0.13c0.01,0.02,0.03,0.03,0.04,0.05
		c-0.06-0.09-0.13-0.18-0.18-0.27c-0.08-0.13-0.15-0.27-0.21-0.41c-0.03-0.09-0.06-0.18-0.09-0.27c-0.05-0.15-0.07-0.31-0.1-0.47
		c0.01,0.02,0.01,0.05,0.01,0.07c-0.02-0.1-0.02-0.21-0.02-0.32c-0.01-0.16,0.01-0.33,0.03-0.49c0,0.01,0,0.02,0,0.03
		c0.01-0.04,0.02-0.09,0.02-0.13c0.01-0.07,0.01-0.13-0.02-0.19c-0.04-0.06-0.09-0.1-0.15-0.11c-0.02-0.01-0.04-0.01-0.06-0.01
		C124.63,96.23,124.51,96.3,124.49,96.41 M124.95,96.71c0-0.01,0-0.02,0-0.04C124.95,96.69,124.95,96.7,124.95,96.71"/>
	<path d="M124.43,96.42c-0.02,0.07-0.04,0.15-0.04,0.23c-0.01,0.06-0.02,0.11-0.02,0.16c-0.01,0.11-0.01,0.21-0.01,0.32
		c0,0.07,0.01,0.15,0.02,0.22c0.02,0.16,0.06,0.31,0.1,0.47c0.07,0.23,0.18,0.44,0.29,0.65c0.12,0.21,0.27,0.41,0.42,0.59
		c0.04,0.05,0.12,0.07,0.18,0.07c0.07,0,0.13-0.02,0.18-0.07c0.05-0.05,0.07-0.11,0.07-0.18c0-0.07-0.03-0.12-0.07-0.18
		c-0.03-0.03-0.05-0.07-0.08-0.1c0.01,0.01,0.01,0.02,0.02,0.02c-0.01-0.01-0.02-0.02-0.03-0.04l-0.01-0.02c0,0,0.01,0,0.01,0.01
		c-0.06-0.07-0.11-0.15-0.16-0.23c-0.09-0.14-0.16-0.29-0.23-0.43c0.01,0.02,0.02,0.04,0.02,0.06c-0.04-0.1-0.08-0.2-0.11-0.31
		c-0.05-0.14-0.08-0.29-0.1-0.44c-0.01-0.09-0.02-0.18-0.01-0.27c0-0.09,0.01-0.18,0.02-0.27c0.01-0.05,0.02-0.1,0.03-0.15
		c0.03-0.13-0.04-0.27-0.18-0.31c-0.02,0-0.04-0.01-0.06-0.01C124.56,96.23,124.45,96.3,124.43,96.42 M125.45,98.6
		c0,0,0.01,0.01,0.01,0.01C125.45,98.6,125.45,98.6,125.45,98.6C125.44,98.59,125.44,98.6,125.45,98.6"/>
	<path d="M124.55,96.48c-0.03,0.1-0.06,0.19-0.08,0.3c-0.02,0.12-0.04,0.25-0.05,0.36c-0.02,0.27,0.02,0.53,0.08,0.79
		c0.06,0.26,0.18,0.51,0.31,0.74c0.13,0.24,0.32,0.45,0.52,0.64c0.09,0.1,0.26,0.1,0.35,0c0.1-0.09,0.1-0.26,0-0.35
		c-0.11-0.11-0.21-0.22-0.3-0.34c-0.05-0.06-0.09-0.13-0.13-0.2c-0.05-0.08-0.1-0.17-0.14-0.26l0.02,0.06
		c-0.04-0.09-0.07-0.18-0.11-0.27c-0.04-0.13-0.07-0.27-0.09-0.42c-0.01-0.08-0.01-0.16-0.01-0.24c0-0.08,0.01-0.16,0.01-0.24
		c0.02-0.15,0.05-0.29,0.1-0.43c0.04-0.13-0.05-0.28-0.18-0.31c-0.02-0.01-0.04-0.01-0.06-0.01
		C124.69,96.29,124.59,96.37,124.55,96.48"/>
	<path d="M124.56,96.81c-0.03,0.1-0.05,0.21-0.07,0.31c-0.01,0.08-0.02,0.16-0.03,0.24c-0.02,0.23,0.02,0.47,0.06,0.7
		c0.05,0.23,0.15,0.45,0.26,0.65c0.11,0.21,0.28,0.39,0.45,0.55c0.09,0.08,0.21,0.1,0.32,0.04c0.06-0.04,0.1-0.09,0.12-0.16
		c0.02-0.06,0.01-0.15-0.03-0.2c-0.07-0.09-0.13-0.17-0.19-0.26c-0.09-0.13-0.16-0.26-0.23-0.4c-0.03-0.07-0.06-0.15-0.08-0.23
		c-0.03-0.1-0.05-0.2-0.07-0.3c0,0.03,0.01,0.05,0.01,0.08c-0.02-0.1-0.03-0.21-0.03-0.31c0-0.08,0-0.16,0.01-0.24v0
		c0.01-0.11,0.04-0.21,0.07-0.32c0.04-0.16-0.05-0.32-0.21-0.36c-0.03-0.01-0.05-0.01-0.08-0.01
		C124.72,96.59,124.6,96.68,124.56,96.81 M125.23,98.28L125.23,98.28L125.23,98.28"/>
	<path d="M98.98,75.58c-1.31,0-2.62,0.05-3.9,0.16c-1.75,0.14-3.24,0.37-4.57,0.71c-0.67,0.17-1.29,0.38-1.84,0.63
		c-0.54,0.24-1,0.52-1.37,0.84c-0.37,0.32-0.65,0.71-0.79,1.12c-0.15,0.41-0.15,0.9-0.02,1.36c0.09,0.32,0.23,0.61,0.42,0.87
		c0.11,0.15,0.25,0.27,0.39,0.38c0.18,0.14,0.4,0.23,0.57,0.29c0.18,0.07,0.37,0.1,0.56,0.13c0.2,0.04,0.4,0.04,0.6,0.04h0
		c0.55,0,1.06-0.08,1.44-0.16c0.77-0.15,1.54-0.38,2.27-0.6l0.74-0.22c0.41-0.12,0.83-0.23,1.25-0.3c0.2-0.03,0.41-0.05,0.62-0.07
		l0.1-0.01c0.38-0.04,0.75-0.06,1.13-0.08c0.46-0.03,1.01-0.04,1.56-0.04c1.63,0,3.09,0.14,4.49,0.42c0.68,0.15,1.29,0.32,1.88,0.52
		c0.56,0.2,1.15,0.44,1.73,0.74c0.36,0.19,0.67,0.37,0.98,0.56c0.06,0.04,0.13,0.06,0.19,0.06c0.1,0,0.2-0.05,0.26-0.13
		c0.06-0.08,0.07-0.19,0.04-0.29c0.26-0.51,0.43-1.02,0.57-1.58c0.13-0.53,0.17-1.01,0.14-1.47c-0.03-0.42-0.13-0.82-0.31-1.19
		c-0.17-0.37-0.45-0.72-0.87-1.09c-0.41-0.37-0.91-0.62-1.34-0.83c-0.18-0.09-0.37-0.16-0.57-0.21c-0.47-0.13-0.97-0.21-1.39-0.27
		c-1.14-0.16-2.38-0.25-4.02-0.28C99.62,75.58,99.3,75.58,98.98,75.58"/>
	<path d="M126.02,74.15h-0.09c-0.83,0-1.66,0.04-2.46,0.12c-0.78,0.07-1.45,0.19-2.04,0.34c-0.62,0.16-1.09,0.35-1.47,0.59
		c-0.35,0.23-0.65,0.53-0.87,0.9c-0.12,0.19-0.21,0.42-0.3,0.69c-0.08,0.24-0.12,0.53-0.13,0.87c-0.01,0.21,0.02,0.42,0.05,0.63
		c0.03,0.24,0.1,0.48,0.2,0.74c0.08,0.2,0.17,0.39,0.29,0.58c0.13,0.2,0.27,0.38,0.42,0.55c0.11,0.13,0.22,0.18,0.34,0.18
		c0.07,0.04,0.14,0.07,0.2,0.07c1.15-0.36,2.31-0.58,3.62-0.68c0.5-0.04,1.11-0.06,1.74-0.06c0.96,0,2,0.05,3.17,0.16
		c0.84,0.08,1.68,0.18,2.52,0.29c0.35,0.04,0.7,0.09,1.05,0.14l0.34,0.05c0.16,0.02,0.33,0.05,0.49,0.08
		c0.36,0.07,0.72,0.15,1.07,0.23l0.52,0.12c0.85,0.19,1.51,0.32,2.13,0.41c0.52,0.08,0.98,0.11,1.42,0.11
		c0.21,0,0.41-0.01,0.62-0.03c0.43-0.04,1.03-0.17,1.43-0.57c0.17-0.18,0.29-0.39,0.35-0.63c0.07-0.26,0.07-0.55,0-0.92
		c-0.07-0.38-0.24-0.76-0.39-1.07c-0.12-0.26-0.27-0.49-0.45-0.69c-0.4-0.44-0.94-0.75-1.31-0.94c-0.53-0.28-1.15-0.54-1.94-0.8
		c-1.43-0.47-3.04-0.81-5.08-1.09C129.69,74.28,127.85,74.15,126.02,74.15"/>
	<path d="M107.94,80.15c-0.14,0.01-0.23,0.13-0.23,0.27c0,0.17,0,0.34-0.02,0.51c0-0.02,0-0.04,0.01-0.07
		c-0.02,0.17-0.03,0.34-0.06,0.51c-0.03,0.21-0.08,0.42-0.14,0.62c-0.06,0.16-0.12,0.31-0.2,0.46c-0.06,0.13-0.01,0.27,0.11,0.34
		c0.12,0.06,0.28,0.01,0.34-0.11c0.07-0.16,0.14-0.31,0.2-0.48c0.06-0.18,0.11-0.37,0.15-0.56c0.09-0.41,0.1-0.84,0.11-1.27
		c0-0.13-0.13-0.23-0.25-0.23C107.95,80.15,107.95,80.15,107.94,80.15"/>
	<path d="M107.92,79.05c-0.14,0.01-0.24,0.13-0.23,0.26c0.03,0.51,0.06,1.01,0.04,1.52c0,0,0-0.01,0-0.01c0,0.01,0,0.02,0,0.04
		c0,0.01,0,0.02,0,0.03v-0.02c-0.02,0.21-0.04,0.42-0.07,0.64c-0.03,0.21-0.09,0.41-0.15,0.61c-0.04,0.11-0.08,0.22-0.13,0.32
		c-0.05,0.13-0.01,0.27,0.12,0.34c0.11,0.06,0.28,0.02,0.34-0.11c0.1-0.24,0.17-0.48,0.24-0.73c0.07-0.28,0.11-0.57,0.14-0.85
		c0.06-0.6,0.02-1.21-0.01-1.81c-0.01-0.13-0.12-0.24-0.25-0.24C107.93,79.05,107.93,79.05,107.92,79.05 M107.73,80.87
		c0,0,0-0.01,0-0.02c0-0.01,0-0.01,0-0.02C107.73,80.85,107.73,80.86,107.73,80.87"/>
	<path d="M108.62,125.74c-0.12,0-0.23,0.12-0.25,0.23c-0.01,0.06,0,0.13,0.04,0.19c-0.04,0.16-0.07,0.24-0.06,0.36
		c0,0.64,0.16,1.33,0.47,2.05c0.13,0.32,0.31,0.65,0.54,0.97c0.21,0.31,0.49,0.62,0.8,0.88c0.25,0.21,0.55,0.38,0.89,0.5
		c0.23,0.08,0.47,0.13,0.7,0.13c0.11,0,0.22-0.01,0.33-0.03c0.33-0.05,0.62-0.21,0.86-0.35c0.14-0.09,0.29-0.21,0.43-0.35
		c0.14-0.13,0.27-0.29,0.39-0.44c0.2-0.26,0.37-0.56,0.51-0.94c0.14-0.36,0.21-0.74,0.21-1.09c0-0.16-0.01-0.3-0.04-0.46
		c-0.03-0.16-0.07-0.32-0.15-0.51c-0.12-0.29-0.32-0.53-0.58-0.7c-0.25-0.17-0.53-0.25-0.77-0.3c-0.35-0.08-0.7-0.09-1.09-0.09
		c-0.38,0-0.77,0.02-1.15,0.04c-0.34,0.02-0.68,0.04-1.01,0.04h-0.18c-0.23-0.01-0.54-0.03-0.85-0.12L108.62,125.74z"/>
	<path d="M112.58,125.64c-0.53,0.01-1.06,0.06-1.59,0.11c-0.66,0.06-1.32,0.14-1.99,0.11c-0.08-0.01-0.15-0.02-0.23-0.03
		c-0.13-0.03-0.27,0.05-0.3,0.19c-0.02,0.1,0.02,0.2,0.1,0.26c-0.03,0.03-0.06,0.07-0.08,0.11c-0.16,0.31-0.15,0.66-0.11,0.99
		c0.05,0.51,0.19,1.01,0.39,1.49c0.1,0.23,0.22,0.46,0.35,0.68c0.15,0.26,0.34,0.5,0.54,0.72c0.34,0.39,0.76,0.69,1.23,0.89
		c0.22,0.1,0.46,0.15,0.69,0.18c0.11,0.02,0.23,0.02,0.34,0.02c0.17,0,0.33-0.04,0.49-0.07c0.37-0.07,0.7-0.29,0.99-0.53
		c0.38-0.32,0.7-0.7,0.97-1.1c0.26-0.38,0.48-0.79,0.63-1.23c0.15-0.43,0.25-0.88,0.2-1.33c-0.02-0.18-0.07-0.36-0.14-0.52
		c-0.07-0.16-0.16-0.28-0.28-0.41c-0.1-0.11-0.25-0.19-0.38-0.26c-0.18-0.09-0.38-0.15-0.58-0.19c-0.19-0.04-0.39-0.05-0.58-0.07
		c-0.15-0.01-0.31-0.02-0.46-0.02C112.72,125.64,112.65,125.64,112.58,125.64 M108.95,125.85c0.01,0,0.02,0,0.03,0
		C108.97,125.86,108.96,125.86,108.95,125.85 M113.17,126.22c-0.02,0-0.05,0-0.07-0.01c0.12,0.01,0.24,0.03,0.36,0.04
		c-0.09-0.01-0.19-0.02-0.28-0.03c-0.21-0.02-0.42-0.01-0.63-0.01c-0.4,0.01-0.8,0.05-1.21,0.02
		C111.95,126.21,112.56,126.18,113.17,126.22 M114.35,126.8c-0.05-0.13-0.14-0.23-0.25-0.32c-0.12-0.09-0.26-0.14-0.4-0.18h-0.01
		c0.07,0.02,0.14,0.03,0.21,0.05c0.12,0.04,0.22,0.09,0.33,0.16c0.04,0.04,0.09,0.07,0.13,0.12c0.04,0.05,0.08,0.11,0.12,0.17
		c0.04,0.09,0.06,0.18,0.08,0.27c0.01,0.13,0.02,0.27,0.01,0.4c-0.03,0.23-0.09,0.46-0.16,0.68c0.01-0.02,0.01-0.03,0.02-0.04
		c-0.01,0.02-0.01,0.04-0.02,0.06c0,0.01-0.01,0.02-0.01,0.02c0-0.01,0-0.01,0-0.02c-0.15,0.37-0.34,0.72-0.55,1.06
		c0.01-0.01,0.01-0.02,0.02-0.03c-0.25,0.37-0.54,0.71-0.87,1.02c-0.17,0.14-0.34,0.27-0.53,0.37c-0.12,0.04-0.23,0.08-0.35,0.11
		c-0.16,0.02-0.3,0.03-0.46,0.03c-0.18-0.02-0.35-0.06-0.53-0.12c-0.18-0.07-0.34-0.16-0.5-0.26c-0.23-0.17-0.45-0.36-0.64-0.58
		c-0.25-0.31-0.46-0.63-0.64-0.98c-0.09-0.19-0.17-0.38-0.23-0.58c-0.08-0.25-0.14-0.5-0.18-0.76c-0.03-0.2-0.05-0.4-0.04-0.61
		c0.01-0.04,0.02-0.09,0.03-0.13c0.01-0.03,0.03-0.06,0.04-0.09c0.01-0.01,0.02-0.02,0.03-0.04c0.01-0.01,0.02-0.01,0.03-0.02
		c0.04-0.02,0.09-0.03,0.14-0.04c0.15-0.02,0.31-0.01,0.47,0c-0.02,0-0.04,0-0.06-0.01c0.6,0.06,1.2,0.19,1.8,0.24
		c0.29,0.02,0.58,0,0.87-0.01c0.32-0.01,0.64-0.01,0.96,0.02c-0.02,0-0.05,0-0.07,0c0.16,0.02,0.32,0.04,0.48,0.09
		c0.05,0.03,0.1,0.05,0.14,0.08c0.01,0.01,0.02,0.01,0.02,0.02c-0.01,0.01-0.01,0.03-0.01,0.04c-0.01,0.04-0.01,0.09,0,0.13
		c-0.09,0.12-0.1,0.24-0.03,0.37h0c0.07,0.14,0.3,0.18,0.42,0.09c0.05-0.04,0.1-0.08,0.15-0.12c0.04-0.04,0.05-0.08,0.06-0.13
		c0.03-0.05,0.06-0.11,0.07-0.17c0.02-0.1-0.01-0.19-0.06-0.27c-0.01-0.01-0.01-0.02-0.02-0.03
		C114.37,126.85,114.36,126.82,114.35,126.8 M113.92,126.36c0.02,0.01,0.04,0.01,0.06,0.02
		C113.95,126.37,113.94,126.37,113.92,126.36 M109.02,126.56C109.02,126.56,109.02,126.56,109.02,126.56
		C109.02,126.56,109.02,126.56,109.02,126.56 M109.01,126.57C109.01,126.57,109.01,126.57,109.01,126.57
		C109.01,126.57,109.01,126.57,109.01,126.57 M113.78,126.92C113.78,126.93,113.78,126.93,113.78,126.92
		C113.78,126.93,113.78,126.93,113.78,126.92 M114.57,127.08c0,0.02,0.01,0.04,0.01,0.05C114.57,127.12,114.57,127.1,114.57,127.08
		 M109.33,128.76c0,0.01,0.01,0.02,0.01,0.02C109.33,128.78,109.33,128.77,109.33,128.76 M109.96,129.75
		c0.01,0.01,0.02,0.02,0.02,0.02C109.97,129.76,109.97,129.75,109.96,129.75 M109.98,129.77c0.01,0.01,0.02,0.02,0.02,0.03
		C110,129.79,109.99,129.78,109.98,129.77 M113.03,130.19c-0.01,0.01-0.02,0.01-0.02,0.02C113.02,130.21,113.02,130.2,113.03,130.19
		 M113,130.22c-0.01,0.01-0.02,0.02-0.03,0.03C112.98,130.24,112.99,130.23,113,130.22 M110.64,130.36c0.01,0,0.01,0.01,0.02,0.02
		C110.65,130.37,110.65,130.36,110.64,130.36 M112.44,130.6c-0.01,0.01-0.02,0.01-0.03,0.02
		C112.43,130.61,112.44,130.61,112.44,130.6 M112.17,130.69c-0.01,0-0.03,0-0.04,0.01C112.14,130.69,112.16,130.69,112.17,130.69
		 M112.11,130.7c-0.01,0-0.02,0-0.02,0.01C112.09,130.7,112.1,130.7,112.11,130.7 M111.7,130.73c0.01,0,0.02,0,0.03,0
		C111.72,130.73,111.71,130.73,111.7,130.73 M114.4,128.18L114.4,128.18c0-0.01,0.01-0.02,0.01-0.02
		C114.41,128.16,114.4,128.17,114.4,128.18"/>
	<path d="M108.35,125.92c0,0.17,0,0.34,0.01,0.51c0.01,0.19,0.04,0.38,0.08,0.57c0.06,0.35,0.18,0.7,0.32,1.04
		c0.05,0.13,0.23,0.16,0.34,0.1c0.06-0.03,0.11-0.09,0.13-0.15c0.02-0.06,0-0.13-0.02-0.19c-0.02-0.05-0.04-0.11-0.06-0.16
		c0,0,0,0.01,0,0.01c-0.05-0.14-0.1-0.29-0.14-0.44c-0.06-0.2-0.09-0.41-0.11-0.61c-0.02-0.22-0.03-0.45-0.02-0.68
		c0-0.14-0.11-0.26-0.25-0.26h-0.01C108.46,125.68,108.35,125.79,108.35,125.92 M108.87,126.55c0,0.01,0,0.02,0,0.03
		C108.87,126.57,108.87,126.56,108.87,126.55"/>
	<path d="M112.71,125.49c-0.44,0.01-0.88,0.04-1.32,0.07c-0.44,0.03-0.88,0.06-1.32,0.07c-0.38,0.01-0.76,0.01-1.13-0.04
		c0.02,0.01,0.04,0.01,0.06,0.01c-0.05-0.01-0.09-0.02-0.14-0.02c-0.07-0.01-0.13-0.01-0.19,0.02c-0.06,0.03-0.1,0.09-0.12,0.15
		c-0.04,0.12,0.04,0.29,0.17,0.31c0.78,0.13,1.57,0.08,2.36,0.05c0.87-0.04,1.75-0.1,2.61,0.01c0.21,0.04,0.43,0.08,0.63,0.17
		c0.07,0.04,0.13,0.07,0.2,0.12c0.03,0.03,0.06,0.06,0.09,0.1c0.02,0.03,0.04,0.07,0.05,0.1c0.01,0.04,0.03,0.09,0.03,0.14
		c0,0.08,0,0.15-0.01,0.23c-0.03,0.18-0.09,0.34-0.16,0.51c-0.1,0.23-0.22,0.44-0.35,0.66c-0.1,0.16-0.05,0.39,0.12,0.49
		c0.16,0.1,0.39,0.05,0.49-0.12c0.23-0.38,0.44-0.77,0.55-1.21c0.08-0.31,0.09-0.66-0.04-0.95c-0.11-0.26-0.32-0.45-0.57-0.57
		c-0.29-0.15-0.61-0.21-0.93-0.25c-0.24-0.03-0.49-0.04-0.73-0.04C112.95,125.48,112.83,125.49,112.71,125.49 M114.7,126.78
		c0,0.01,0,0.02,0,0.03C114.71,126.8,114.7,126.79,114.7,126.78 M114.69,127c0,0.02,0,0.03-0.01,0.05
		C114.68,127.03,114.69,127.02,114.69,127 M114.53,127.5c0,0.01-0.01,0.02-0.01,0.03C114.52,127.52,114.52,127.51,114.53,127.5"/>
	<path d="M113.87,126.13c-0.11,0.06-0.19,0.17-0.22,0.29c-0.05,0.08-0.07,0.17-0.08,0.26c0,0.05,0,0.1,0.01,0.15
		c0.03,0.11,0.09,0.18,0.16,0.27c0.02,0.03,0.05,0.05,0.07,0.07c0.01,0.07,0.05,0.14,0.11,0.18c0,0.01,0.01,0.02,0.02,0.03l0,0
		c0.01,0.02,0.03,0.04,0.04,0.06c0.04,0.05,0.08,0.1,0.14,0.13c0.12,0.07,0.26,0.09,0.39,0.06c0.13-0.04,0.25-0.12,0.32-0.23
		c0.07-0.12,0.09-0.25,0.06-0.39c-0.01-0.09-0.03-0.16-0.07-0.24c-0.05-0.1-0.1-0.21-0.18-0.29c-0.03-0.03-0.06-0.06-0.09-0.09
		c-0.05-0.06-0.09-0.12-0.14-0.18c-0.07-0.09-0.2-0.14-0.32-0.14C114.02,126.08,113.94,126.1,113.87,126.13"/>
	<path d="M108.12,125.53c-0.04,0.17,0.07,0.34,0.24,0.38c2.22,0.55,4.51,0.24,6.75,0.1c0.15-0.01,0.28-0.14,0.28-0.3
		c0-0.15-0.14-0.29-0.3-0.28c-1.08,0.06-2.16,0.08-3.25,0.06c-1.14-0.02-2.28-0.12-3.42-0.21c-0.01,0-0.01,0-0.02,0
		C108.27,125.29,108.14,125.41,108.12,125.53"/>
	<path d="M108.12,125.71c0,0.14,0.11,0.25,0.25,0.25c0.14,0,0.25-0.11,0.25-0.25c0-0.14-0.11-0.25-0.25-0.25
		C108.23,125.46,108.12,125.57,108.12,125.71"/>
	<path d="M108.12,125.41c-0.06,0.06-0.09,0.13-0.09,0.22c-0.01,0.18-0.01,0.35-0.01,0.54c0,0.14,0.02,0.29,0.04,0.43
		c0.03,0.17,0.06,0.35,0.1,0.52c0.04,0.18,0.1,0.34,0.15,0.51c0.1,0.31,0.22,0.6,0.35,0.9c0.14,0.33,0.3,0.65,0.46,0.97
		c0.06,0.12,0.23,0.15,0.34,0.09c0.13-0.07,0.15-0.22,0.09-0.34c-0.16-0.32-0.31-0.64-0.45-0.97c0.01,0.02,0.01,0.03,0.02,0.04
		c-0.11-0.27-0.21-0.54-0.29-0.82c-0.09-0.29-0.14-0.58-0.18-0.87c0,0.02,0.01,0.05,0.01,0.08c-0.02-0.18-0.03-0.35-0.04-0.53
		c0-0.18,0.01-0.36,0.02-0.54c0.01-0.17-0.15-0.31-0.31-0.31C108.26,125.31,108.18,125.35,108.12,125.41 M109.12,128.33
		c0-0.01,0-0.01-0.01-0.02C109.12,128.32,109.12,128.33,109.12,128.33"/>
	<path d="M114.82,125.73c-0.15,0.61-0.36,1.21-0.57,1.81c-0.04,0.13,0.05,0.27,0.17,0.31c0.14,0.04,0.27-0.05,0.31-0.18
		c0.2-0.6,0.41-1.2,0.56-1.81c0.04-0.13-0.04-0.27-0.17-0.31c-0.02-0.01-0.04-0.01-0.06-0.01
		C114.96,125.54,114.85,125.61,114.82,125.73"/>
	<path d="M115.03,125.51c-0.05,0.05-0.07,0.11-0.07,0.18c0,0.04-0.01,0.08-0.02,0.12v-0.01c-0.07,0.53-0.18,1.05-0.31,1.57
		c-0.04,0.13,0.04,0.27,0.17,0.31c0.13,0.04,0.27-0.04,0.31-0.18c0.07-0.29,0.14-0.57,0.2-0.87c0.06-0.31,0.11-0.63,0.15-0.95
		c0.01-0.06-0.03-0.14-0.07-0.18c-0.05-0.05-0.11-0.07-0.18-0.07C115.15,125.43,115.08,125.46,115.03,125.51"/>
	<path d="M114.99,125.9c-0.01,0.17-0.02,0.33-0.04,0.49c-0.03,0.23-0.08,0.46-0.13,0.68c-0.07,0.29-0.16,0.57-0.27,0.86
		c-0.05,0.13,0.05,0.27,0.18,0.31c0.14,0.04,0.26-0.05,0.3-0.18c0.12-0.34,0.23-0.68,0.31-1.03c0.09-0.37,0.13-0.75,0.14-1.13
		c0-0.14-0.12-0.25-0.25-0.25C115.1,125.65,114.99,125.76,114.99,125.9"/>
	<path d="M115.03,125.85c0,0.23-0.01,0.45-0.04,0.67c-0.04,0.29-0.09,0.57-0.16,0.85c-0.09,0.35-0.21,0.68-0.33,1.02
		c-0.05,0.13,0.05,0.27,0.18,0.31c0.06,0.02,0.13,0.01,0.19-0.02c0.06-0.04,0.09-0.09,0.11-0.15c0.09-0.22,0.16-0.45,0.24-0.67
		c0.07-0.23,0.13-0.46,0.18-0.69c0.09-0.43,0.13-0.87,0.13-1.3c0-0.13-0.11-0.25-0.25-0.25
		C115.14,125.6,115.03,125.71,115.03,125.85"/>
	<path d="M115.02,125.76c-0.01,0.23-0.03,0.46-0.06,0.69c0-0.01,0-0.03,0.01-0.04c-0.05,0.29-0.11,0.58-0.19,0.87
		c-0.04,0.13,0.04,0.27,0.17,0.31c0.13,0.03,0.27-0.04,0.31-0.18c0.08-0.29,0.14-0.57,0.19-0.87c0.04-0.26,0.06-0.52,0.07-0.78
		c0.01-0.14-0.12-0.25-0.25-0.25C115.13,125.51,115.03,125.62,115.02,125.76"/>
	<path d="M114.96,125.97c-0.04,0.04-0.08,0.12-0.07,0.18c0.02,0.16,0.03,0.32,0.03,0.48c0,0.16-0.02,0.33-0.04,0.49
		c0-0.02,0.01-0.05,0.01-0.07c-0.04,0.22-0.08,0.43-0.14,0.65c-0.06,0.21-0.14,0.43-0.22,0.64c0-0.01,0.01-0.01,0.01-0.02
		c-0.11,0.24-0.22,0.48-0.35,0.71c-0.13,0.23-0.28,0.46-0.43,0.68c-0.08,0.11-0.02,0.28,0.09,0.34c0.06,0.04,0.13,0.04,0.19,0.03
		c0.07-0.02,0.11-0.06,0.15-0.12c0.18-0.27,0.36-0.54,0.51-0.83c0.17-0.32,0.31-0.65,0.43-0.98c0.11-0.32,0.19-0.64,0.24-0.97
		c0.05-0.35,0.05-0.7,0.02-1.04c-0.01-0.07-0.02-0.13-0.07-0.18c-0.04-0.05-0.11-0.07-0.18-0.07
		C115.06,125.9,115,125.93,114.96,125.97"/>
</g>
</svg>
