<?xml version="1.0" encoding="utf-8"?>
<!-- Generator: Adobe Illustrator 23.1.0, SVG Export Plug-In . SVG Version: 6.00 Build 0)  -->
<svg version="1.1" id="Capa_1" xmlns="http://www.w3.org/2000/svg" xmlns:xlink="http://www.w3.org/1999/xlink" x="0px" y="0px"
	 viewBox="0 0 226.77 226.77" style="enable-background:new 0 0 226.77 226.77;" xml:space="preserve">
<g>
	<path d="M121.68,98.43c-0.11,1.34-0.17,2.68-0.15,4.01c0.01,1.36,0.12,2.71,0.3,4.06c0.09,0.63,0.2,1.26,0.34,1.89
		c0.13,0.61,0.33,1.2,0.54,1.78c0.42,1.18,0.93,2.33,1.12,3.57c0.04,0.31,0.05,0.61,0.01,0.92c-0.04,0.21-0.09,0.4-0.17,0.6
		c-0.08,0.15-0.17,0.3-0.27,0.44c-0.13,0.16-0.26,0.29-0.42,0.42c-0.26,0.19-0.53,0.34-0.82,0.47c-0.49,0.19-1.01,0.31-1.53,0.38
		c-0.85,0.09-1.71,0.08-2.55-0.03c0,0,0,0,0,0c-0.24-0.04-0.47-0.1-0.71-0.17c-0.2-0.05-0.41,0.06-0.46,0.26
		c-0.05,0.2,0.06,0.4,0.26,0.46c0.23,0.06,0.45,0.13,0.68,0.17c0.16,0.03,0.32,0.04,0.48,0.06c0.34,0.04,0.68,0.06,1.01,0.07
		c0.65,0.01,1.31-0.05,1.95-0.17c0.58-0.11,1.15-0.32,1.67-0.61c0.5-0.28,0.92-0.69,1.21-1.18c0.3-0.49,0.39-1.07,0.39-1.64
		c0-0.37-0.08-0.74-0.16-1.1c-0.11-0.5-0.27-0.98-0.45-1.46c-0.31-0.88-0.68-1.74-0.96-2.63c-0.14-0.45-0.24-0.9-0.34-1.36
		c-0.11-0.54-0.19-1.08-0.27-1.63c-0.16-1.25-0.24-2.51-0.25-3.77c-0.02-1.28,0.05-2.55,0.15-3.82c0.02-0.16-0.15-0.3-0.31-0.3
		C121.81,98.12,121.69,98.27,121.68,98.43 M122.39,105.95c0,0.02,0.01,0.04,0.01,0.06L122.39,105.95z M123.84,114.63
		c0,0.01,0,0.01,0,0.02C123.84,114.65,123.84,114.64,123.84,114.63 M123.69,115.21c0,0.01-0.01,0.02-0.01,0.03
		C123.68,115.22,123.69,115.22,123.69,115.21 M123.02,116.09c-0.01,0.01-0.02,0.01-0.03,0.02C123,116.11,123.01,116.1,123.02,116.09
		"/>
	<path d="M103.18,89.15c-0.85,0.14-1.7,0.31-2.52,0.57c-0.39,0.13-0.77,0.27-1.16,0.42c-0.38,0.14-0.76,0.3-1.13,0.46
		c-0.8,0.35-1.55,0.79-2.28,1.25c-1.46,0.93-2.79,2.02-4,3.25c-0.12,0.12-0.12,0.31,0,0.43c0.11,0.12,0.31,0.12,0.42,0
		c0.54-0.54,1.11-1.04,1.73-1.49c0.64-0.47,1.31-0.89,2-1.28c0.76-0.41,1.56-0.74,2.36-1.05c0.63-0.24,1.28-0.45,1.94-0.6
		c0.74-0.18,1.5-0.32,2.25-0.41c-0.06,0.01-0.12,0.02-0.18,0.02c0.7-0.07,1.41-0.09,2.12-0.08c0.67,0,1.34,0.05,2.01,0.14l-0.1-0.01
		c0.03,0,0.07,0.01,0.1,0.02c0.04,0,0.08,0.01,0.12,0.02c-0.04,0-0.08-0.01-0.12-0.02c1.14,0.17,2.25,0.47,3.35,0.79
		c0.36,0.11,0.76-0.06,0.96-0.39c0.11-0.19,0.14-0.42,0.09-0.63c-0.05-0.2-0.2-0.44-0.39-0.53c-0.4-0.18-0.8-0.35-1.22-0.48
		c-0.39-0.13-0.8-0.22-1.2-0.3c-0.88-0.18-1.77-0.25-2.66-0.27c-0.08,0-0.15,0-0.23,0C104.67,88.97,103.93,89.04,103.18,89.15
		 M106.73,90.77L106.73,90.77C106.73,90.77,106.73,90.77,106.73,90.77C106.73,90.77,106.73,90.77,106.73,90.77"/>
	<path d="M136.17,97.62c-0.08,0-0.16,0-0.25,0c-1.42,0.04-2.83,0.54-4.06,1.43c-0.63,0.46-1.19,1-1.67,1.61
		c-0.52,0.67-0.98,1.44-1.34,2.29c-0.1,0.22-0.04,0.44,0.14,0.55c0.06,0.03,0.13,0.05,0.21,0.05c0.16,0,0.29-0.08,0.34-0.2
		c0.3-0.68,0.67-1.32,1.1-1.88c0.39-0.47,0.81-0.9,1.26-1.26l0.08-0.07l-0.01-0.01c0.17-0.1,0.38-0.23,0.6-0.36
		c-0.12,0.34-0.21,0.74-0.29,1.25c-0.15,0.88-0.18,1.79-0.09,2.7c0.04,0.42,0.13,0.83,0.25,1.22c0.06,0.18,0.13,0.36,0.21,0.54
		c0.09,0.2,0.21,0.38,0.33,0.55c0.19,0.28,0.46,0.52,0.78,0.71c0.32,0.18,0.7,0.3,1.14,0.34c0.06,0.01,0.13,0.01,0.19,0.01
		c0.26,0,0.53-0.05,0.78-0.14c0.29-0.1,0.56-0.28,0.82-0.53c0.43-0.42,0.76-1.03,1.01-1.86c0.2-0.68,0.33-1.46,0.39-2.43
		c0.05-0.71,0.04-1.47-0.02-2.32c-0.01-0.19-0.03-0.38-0.05-0.57l0.08,0.05l0.09,0.04c0.52,0.23,1.02,0.52,1.49,0.88
		c0.49,0.39,0.95,0.86,1.4,1.41c0.32,0.42,0.64,0.9,0.97,1.49c0.1,0.17,0.29,0.28,0.49,0.28c0.17,0.02,0.29,0.03,0.42,0.03
		c0.11,0,0.22-0.01,0.34-0.02c0.33-0.02,0.65-0.13,0.96-0.24c0.28-0.1,0.57-0.24,0.91-0.45c0.25-0.15,0.49-0.33,0.71-0.54
		c0.14-0.12,0.15-0.33,0.04-0.47c-0.06-0.07-0.16-0.12-0.26-0.12c-0.08,0-0.15,0.03-0.21,0.08c-0.08,0.08-0.17,0.14-0.26,0.21
		c-0.21,0.12-0.42,0.22-0.64,0.3l0,0c-0.41,0.12-0.85,0.2-1.4,0.25l0.12-0.02c0.17-0.05,0.33-0.13,0.49-0.2
		c0.14-0.06,0.29-0.16,0.44-0.28c0.08-0.06,0.16-0.13,0.23-0.2c0.07-0.07,0.14-0.15,0.2-0.23c0.04-0.04,0.08-0.1,0.08-0.18
		c0-0.07-0.02-0.13-0.07-0.18c-0.05-0.05-0.12-0.08-0.2-0.08c-0.07,0-0.13,0.03-0.17,0.07l-0.09,0.12l-0.01-0.01
		c-0.07,0.07-0.14,0.14-0.23,0.19c-0.06,0.04-0.13,0.08-0.19,0.12c-0.1,0.05-0.21,0.1-0.32,0.15c-0.25,0.09-0.47,0.15-0.69,0.21
		l-0.04-0.1l-0.05-0.1c0.07-0.02,0.15-0.06,0.23-0.1c0.09-0.05,0.18-0.11,0.26-0.17c0.11-0.08,0.2-0.16,0.29-0.25
		c0.1-0.1,0.11-0.27,0.01-0.37c-0.05-0.05-0.12-0.08-0.19-0.08c-0.07,0-0.13,0.03-0.18,0.07c-0.07,0.08-0.15,0.15-0.23,0.21
		c-0.03,0.03-0.12,0.08-0.21,0.14c-0.07,0.04-0.15,0.07-0.23,0.1c-0.18-0.32-0.38-0.61-0.59-0.88c-0.48-0.61-1.07-1.15-1.74-1.6
		c-0.57-0.38-1.25-0.69-2.02-0.9C137.46,97.7,136.82,97.62,136.17,97.62 M135.05,98.91c0.01,0,0.03,0,0.03,0h0
		c0.09-0.01,0.16-0.02,0.23-0.02l0.02,0.11l0.01,0c0.02,0.31,0.03,0.63,0,0.95c-0.03,0.18-0.07,0.34-0.13,0.51
		c-0.02,0.05-0.07,0.15-0.14,0.26c-0.04,0.05-0.09,0.1-0.14,0.14l-0.18,0.08l-0.11-0.01l-0.11-0.04l0.01-0.01
		c-0.03-0.03-0.07-0.06-0.09-0.09c-0.04-0.06-0.07-0.12-0.1-0.18c-0.03-0.09-0.05-0.19-0.07-0.28c-0.03-0.2-0.03-0.42,0-0.66
		c0.03-0.21,0.07-0.42,0.13-0.63c0.2-0.05,0.42-0.09,0.64-0.12C135.03,98.91,135.04,98.91,135.05,98.91
		C135.05,98.91,135.05,98.91,135.05,98.91C135.05,98.91,135.05,98.91,135.05,98.91"/>
	<path d="M102.91,97.74c-0.81,0-1.64,0.1-2.46,0.31c-0.83,0.2-1.62,0.52-2.37,0.95c-0.74,0.43-1.4,0.99-1.92,1.62
		c-0.28,0.33-0.52,0.69-0.72,1.06c-0.05-0.06-0.12-0.12-0.18-0.17c-0.06-0.06-0.11-0.12-0.17-0.19c-0.09-0.1-0.16-0.22-0.24-0.34
		c-0.07-0.11-0.17-0.15-0.24-0.16c-0.1,0-0.17,0.02-0.23,0.07c-0.07,0.05-0.11,0.13-0.12,0.21c-0.01,0.09,0.02,0.16,0.07,0.23
		c0.16,0.27,0.34,0.49,0.53,0.67c0.1,0.09,0.2,0.17,0.31,0.25c-0.04,0.08-0.08,0.17-0.11,0.26c-0.1-0.07-0.21-0.14-0.32-0.22
		c-0.11-0.08-0.22-0.17-0.32-0.26l-0.18-0.2c-0.06-0.08-0.12-0.16-0.18-0.25c-0.05-0.07-0.12-0.1-0.21-0.1
		c-0.07,0-0.13,0.02-0.18,0.06c-0.12,0.09-0.13,0.26-0.04,0.39c0.09,0.13,0.18,0.25,0.28,0.36c0.11,0.13,0.25,0.25,0.38,0.36
		c0.16,0.15,0.37,0.27,0.62,0.38l-0.21-0.06c-0.22-0.09-0.43-0.18-0.64-0.29c-0.28-0.16-0.54-0.35-0.79-0.57
		c-0.18-0.19-0.32-0.38-0.45-0.58c-0.05-0.08-0.14-0.13-0.26-0.13c-0.08,0-0.17,0.03-0.23,0.08c-0.07,0.06-0.12,0.14-0.13,0.23
		c-0.01,0.1,0.03,0.18,0.07,0.25c0.16,0.26,0.34,0.5,0.53,0.74c0.2,0.25,0.45,0.49,0.75,0.74c0.21,0.18,0.47,0.33,0.78,0.47
		c0.12,0.06,0.27,0.1,0.42,0.13c0.09,0.02,0.18,0.04,0.3,0.04c0.05,0.01,0.09,0.03,0.13,0.04c0.05,0.01,0.09,0.02,0.14,0.02
		c0.24,0,0.45-0.16,0.52-0.39c0.04-0.13,0.09-0.25,0.14-0.37c0.24-0.54,0.52-1.02,0.85-1.47c0.38-0.47,0.8-0.9,1.27-1.27
		c0.55-0.42,1.17-0.78,1.83-1.07l0.12-0.05c-0.13,0.43-0.23,0.9-0.31,1.42c-0.14,0.94-0.15,1.85-0.03,2.73
		c0.11,0.85,0.41,1.61,0.87,2.19c0.49,0.61,1.27,1,2.1,1.05l0.12,0c0.27,0,0.55-0.06,0.83-0.17c0.33-0.13,0.6-0.38,0.81-0.6
		c0.25-0.26,0.43-0.6,0.57-0.9c0.16-0.35,0.26-0.74,0.35-1.11c0.16-0.66,0.24-1.42,0.24-2.31c-0.01-0.81-0.14-1.69-0.41-2.77
		c0.48,0.12,0.96,0.27,1.42,0.45c0.54,0.24,1,0.51,1.41,0.82l0,0c0.41,0.32,0.76,0.68,1.08,1.08c0.28,0.38,0.51,0.79,0.7,1.21
		c0.07,0.17,0.14,0.35,0.2,0.54c0.05,0.17,0.2,0.28,0.37,0.28c0.03,0,0.07,0,0.1-0.02c0.1-0.03,0.19-0.1,0.24-0.19
		c0.05-0.09,0.06-0.19,0.03-0.28c-0.27-0.85-0.67-1.61-1.18-2.25c-0.48-0.61-1.08-1.15-1.8-1.63c-1.32-0.86-2.96-1.32-4.76-1.35
		L102.91,97.74z M102.19,98.97c0.01,0,0.03-0.01,0.03-0.01c0.2-0.02,0.39-0.04,0.58-0.05c0.04,0.42,0.05,0.79,0.01,1.14c0,0,0,0,0,0
		c0,0,0,0,0,0v0c-0.04,0.28-0.1,0.47-0.16,0.64c-0.05,0.1-0.1,0.2-0.17,0.3c-0.05,0.06-0.1,0.12-0.17,0.17
		c-0.04,0.03-0.09,0.06-0.14,0.08l-0.11,0.02l-0.16-0.01l0-0.01c-0.03-0.01-0.06-0.03-0.1-0.06c-0.03-0.03-0.07-0.06-0.09-0.09
		c-0.04-0.06-0.08-0.12-0.12-0.19c-0.05-0.15-0.08-0.28-0.1-0.41c-0.03-0.24-0.02-0.5,0.01-0.77c0.03-0.18,0.08-0.43,0.14-0.67
		c0.16-0.03,0.33-0.06,0.51-0.08C102.17,98.97,102.18,98.97,102.19,98.97C102.18,98.97,102.18,98.97,102.19,98.97
		C102.18,98.97,102.19,98.97,102.19,98.97"/>
	<path d="M121.56,121.93c-0.07,0-0.14,0-0.21,0c-0.14,0.01-0.29,0.04-0.43,0.08c-0.34,0.09-0.57,0.19-0.83,0.3
		c-0.21,0.09-0.34,0.15-0.48,0.2c-0.14,0.06-0.31,0.1-0.5,0.14c-0.09,0.01-0.19,0.02-0.28,0.02c-0.09,0-0.19,0-0.28-0.01
		c-0.29-0.04-0.55-0.09-0.81-0.15l-0.14-0.03c-0.3-0.07-0.6-0.11-0.9-0.13c-0.06,0-0.12,0-0.18,0c-0.22,0-0.45,0.03-0.67,0.07
		c-0.28,0.06-0.55,0.15-0.81,0.25c-0.5,0.19-0.96,0.46-1.44,0.74l-0.16,0.09c-0.48,0.29-0.93,0.56-1.39,0.78
		c-0.17,0.07-0.34,0.14-0.52,0.2c-0.17,0.06-0.35,0.11-0.53,0.14c-0.16,0.01-0.31,0.02-0.47,0.02c-0.45-0.28-0.88-0.59-1.28-0.91
		l-0.13-0.09c-0.04-0.05-0.1-0.08-0.17-0.08c-0.08,0-0.15,0.03-0.21,0.09c-0.11,0.1-0.21,0.21-0.3,0.32
		c-0.11,0.14-0.2,0.29-0.27,0.43c-0.03,0.06-0.04,0.13-0.02,0.2c0.02,0.07,0.07,0.13,0.14,0.16c0.03,0.02,0.07,0.03,0.12,0.03
		c0.1,0,0.19-0.06,0.24-0.15c0.04-0.07,0.07-0.13,0.12-0.2c0.08-0.11,0.12-0.17,0.18-0.22c0.21,0.14,0.44,0.3,0.66,0.46l0.28,0.19
		c0.22,0.15,0.45,0.3,0.68,0.43c0.04,0.3,0.11,0.61,0.2,0.92c0.11,0.36,0.27,0.74,0.49,1.15c0.36,0.67,0.9,1.29,1.59,1.84
		c0.29,0.23,0.63,0.45,1.02,0.67c0.32,0.17,0.69,0.33,1.14,0.49c0.75,0.27,1.58,0.44,2.52,0.5c0.2,0.01,0.4,0.02,0.6,0.02
		c0.58,0,1.21-0.06,1.86-0.18c0.81-0.15,1.61-0.43,2.36-0.83c0.4-0.21,0.75-0.46,1.08-0.71c0.43-0.34,0.86-0.7,1.31-1.11
		c0.23-0.21,0.45-0.45,0.65-0.68c0.19-0.21,0.36-0.43,0.52-0.66c0.29-0.41,0.51-0.86,0.65-1.32c0.05-0.14,0.09-0.27,0.13-0.41
		c0.37-0.24,0.73-0.52,1.08-0.8l0.11-0.04c0,0.02,0.02,0.04,0.07,0.08c0.09,0.08,0.14,0.16,0.18,0.23c0.05,0.08,0.14,0.13,0.23,0.13
		c0.05,0,0.1-0.02,0.14-0.04c0.06-0.03,0.1-0.1,0.12-0.17c0.02-0.08,0-0.15-0.04-0.2c-0.04-0.07-0.09-0.14-0.16-0.22
		c-0.08-0.08-0.15-0.15-0.25-0.22c-0.15-0.11-0.32-0.17-0.5-0.22h-0.01c-0.19,0-0.29,0.1-0.31,0.21c-0.01,0.04-0.01,0.08,0,0.12
		c-0.25,0.18-0.5,0.36-0.77,0.54l-0.09,0.05l-0.14,0.09c-0.25-0.15-0.51-0.31-0.76-0.49c-0.24-0.18-0.46-0.34-0.67-0.51
		c-0.27-0.21-0.52-0.4-0.77-0.57c-0.23-0.16-0.47-0.32-0.72-0.46c-0.29-0.17-0.61-0.29-0.85-0.37c-0.24-0.08-0.5-0.14-0.78-0.17
		C121.73,121.93,121.64,121.93,121.56,121.93"/>
	<path d="M108.01,39.66c-1.09,0-2.21,0.14-3.32,0.41c-2.75,0.69-5.12,2.16-7.27,3.65c-0.62,0.42-1.22,0.86-1.83,1.29l-0.26,0.18
		l-0.12,0.08c-1.62,1.16-3.3,2.36-5.07,3.37l-0.5,0.28l-0.5,0.27c-0.68,0.37-1.36,0.74-2.02,1.15c-0.5,0.31-0.98,0.64-1.42,0.98
		c-0.41,0.31-0.81,0.68-1.24,1.13c-0.38,0.41-0.67,0.87-0.93,1.31c-0.23,0.41-0.4,0.88-0.52,1.48c-0.1,0.49-0.1,1.05,0,1.66
		c0.04,0.29,0.12,0.58,0.21,0.9c0.04,0.13,0.09,0.27,0.14,0.4c-0.2-0.08-0.46-0.1-0.9-0.1c-0.74,0-1.53,0.06-2.34,0.19
		c-1.33,0.22-2.64,0.63-3.88,1.21c-2.37,1.09-4.53,2.84-6.25,5.06c-0.8,1.03-1.51,2.22-2.11,3.53c-0.67,1.46-1.07,2.97-1.42,4.39
		c-0.45,1.83-0.8,3.76-1.16,5.74l-0.03,0.14c-0.31,1.73-0.57,3.17-0.89,4.61c-0.23,1.04-0.48,2.01-0.75,2.9
		c-0.68,2.22-1.47,4.08-2.42,5.7l-0.05,0.09c-0.81,1.29-1.73,2.41-2.8,3.45c-0.72,0.69-1.63,1.44-2.79,2.28
		c-0.53,0.38-1.07,0.75-1.61,1.12l-0.56,0.36l-0.21,0.14c-0.37,0.24-0.73,0.48-1.09,0.73c-1.05,0.73-1.98,1.65-2.71,2.67
		c-0.68,0.93-1.2,2.02-1.55,3.23c-0.62,2.09-0.68,4.48-0.18,7.1c0.42,2.25,1.25,4.65,2.47,7.11c0.51,1.02,1.09,2.05,1.73,3.05
		c0.29,0.46,0.59,0.91,0.91,1.35c0.46,0.64,0.84,1.24,1.16,1.81c0.6,1.11,1.03,2.2,1.32,3.33c0.2,0.91,0.29,1.85,0.27,2.77
		c-0.05,0.84-0.19,1.66-0.41,2.43c-0.29,0.91-0.68,1.77-1.19,2.65c-0.79,1.22-1.59,2.21-2.62,3.2c-0.55,0.51-1.11,1-1.73,1.52
		l-0.12,0.12l-0.82,0.67c-1.11,0.95-1.96,1.76-2.7,2.56c-0.87,0.94-1.58,1.93-2.11,2.96c-0.55,1.06-0.86,2.25-0.91,3.46
		c-0.04,1.23,0.2,2.48,0.69,3.61c0.21,0.48,0.49,0.96,0.86,1.47c0.35,0.5,0.78,0.94,1.2,1.34c0.73,0.71,1.58,1.33,2.33,1.87
		l0.35,0.25c0.84,0.61,1.8,1.34,2.62,2.17c0.15,0.16,0.29,0.32,0.43,0.49c0.22,0.26,0.42,0.55,0.61,0.9c0.49,0.95,0.77,1.94,1,2.87
		l0.03,0.11l0.03,0.14c0.21,0.9,0.41,1.75,0.69,2.56c0.32,0.93,0.84,1.84,1.48,2.62c1.04,1.26,2.61,2.21,4.52,2.77
		c0.84,0.24,1.71,0.41,2.75,0.54c0.91,0.12,1.85,0.19,2.79,0.2h0.32c0.7,0,1.48-0.03,2.43-0.11l0.41-0.02
		c0.96-0.06,1.81-0.11,2.69-0.11c0.16,0,0.32,0,0.47,0.01c1.08,0.04,1.97,0.17,2.8,0.39c0.41,0.14,0.76,0.28,1.14,0.46l0,0.3
		l0.03,0.34c0.07,0.73,0.14,1.46,0.23,2.19c0.01,0.1,0.02,0.17,0.08,0.24c-0.01,0.11,0.07,0.24,0.18,0.3
		c4.1,2.34,8.96,4.09,14.88,5.34c4.49,0.96,9.51,1.65,15.77,2.15c3.05,0.25,6.19,0.37,9.34,0.37c9.6,0,19.17-1.17,28.46-3.49
		c0.97-0.24,1.93-0.49,2.89-0.75l1.01-0.26c1.59-0.41,2.78-0.75,3.85-1.09c1.35-0.43,2.52-0.9,3.57-1.43
		c0.59-0.29,1.15-0.62,1.69-0.99c0.23-0.16,0.44-0.32,0.66-0.5c0.1-0.07,0.21-0.14,0.3-0.22c0.2-0.16,0.4-0.35,0.61-0.61
		c0.04-0.05,0.06-0.09,0.06-0.14c0.08-0.45,0.12-0.84,0.16-1.32c0.31-0.03,0.69-0.12,1.15-0.26c0.38-0.12,0.74-0.26,1.09-0.41
		c0.27-0.11,0.54-0.23,0.8-0.36c0.86-0.29,1.75-0.71,2.89-1.33c1.03-0.56,1.97-1.16,3.19-1.94l0.71-0.46l0.59-0.39l0.79-0.52
		l0.98-0.64c1.42-0.95,2.62-1.85,3.65-2.74c0.47-0.41,0.96-0.87,1.53-1.44c0.58-0.6,1.07-1.22,1.49-1.76
		c0.41-0.53,0.77-1.09,1.08-1.65c0.34-0.63,0.56-1.32,0.65-2.07c0.04-0.28,0.02-0.57,0-0.82c-0.02-0.13-0.04-0.26-0.08-0.38
		c-0.05-0.18-0.11-0.36-0.18-0.53c-0.09-0.23-0.21-0.45-0.34-0.67l-0.11-0.2c-0.17-0.31-0.28-0.57-0.36-0.79
		c-0.02-0.11-0.04-0.22-0.05-0.34c0.01-0.33,0.05-0.62,0.12-0.9c0.12-0.41,0.29-0.83,0.54-1.31l0.05-0.1
		c0.44-0.73,0.98-1.45,1.42-2.03l0.11-0.14l0.07-0.09c0.58-0.76,1.06-1.4,1.49-2.11c0.53-0.85,0.89-1.67,1.09-2.49
		c0.23-1.01,0.3-2.05,0.22-3.08c-0.07-0.84-0.31-1.7-0.72-2.55c-0.42-0.9-1-1.67-1.4-2.18c-0.41-0.53-0.86-1.04-1.3-1.54l-0.51-0.58
		c-0.31-0.36-0.6-0.71-0.9-1.08c-0.37-0.45-0.73-0.96-1.09-1.55c-0.17-0.32-0.33-0.65-0.48-0.98c-0.16-0.36-0.28-0.73-0.4-1.17
		c-0.17-0.71-0.27-1.43-0.28-2.21c0.02-0.95,0.15-1.93,0.42-3.01l0-0.12c0.57-1.91,1.38-3.71,2.1-5.26l0.47-0.98l0.21-0.44
		c0.18-0.38,0.36-0.76,0.53-1.14c0.4-0.86,0.78-1.76,1.13-2.66c0.64-1.7,1.14-3.45,1.5-5.21c0.34-1.71,0.51-3.48,0.5-5.28
		c-0.01-0.8-0.07-1.63-0.18-2.54c-0.1-0.81-0.28-1.68-0.55-2.65c-0.45-1.66-1.19-3.32-2.19-4.93c-0.44-0.72-0.96-1.44-1.55-2.15
		c-0.4-0.46-0.87-0.94-1.52-1.54c-0.84-0.77-1.8-1.51-2.57-2.1l-0.73-0.57c-0.8-0.63-1.74-1.39-2.59-2.22
		c-0.72-0.74-1.28-1.46-1.71-2.18c-0.31-0.59-0.54-1.16-0.7-1.74c-0.15-0.59-0.22-1.21-0.23-1.88c0.02-1.02,0.19-2.11,0.54-3.44
		c0.14-0.51,0.29-1.04,0.44-1.57l0.07-0.24l0.08-0.27c0.14-0.47,0.27-0.95,0.39-1.43c0.16-0.65,0.29-1.29,0.38-1.9
		c0.08-0.53,0.1-1.13,0.09-1.84c-0.04-1.18-0.38-2.41-0.99-3.56c-0.49-0.93-1.15-1.75-1.96-2.43c-0.6-0.52-1.38-0.96-2.32-1.33
		c-0.76-0.28-1.67-0.51-2.77-0.7c-0.67-0.11-1.33-0.2-2-0.28l-0.2-0.02c-1.15-0.14-2.42-0.29-3.62-0.59
		c-0.88-0.24-1.64-0.54-2.33-0.92c-0.53-0.31-1-0.66-1.42-1.07c-0.28-0.3-0.52-0.62-0.75-0.99c-0.22-0.42-0.39-0.85-0.53-1.36
		c-0.22-0.86-0.3-1.73-0.38-2.58c-0.07-0.65-0.12-1.16-0.19-1.67c-0.1-0.68-0.27-1.36-0.5-2.01c-0.16-0.44-0.37-0.85-0.52-1.13
		c-0.18-0.33-0.37-0.66-0.58-0.97c-0.33-0.49-0.75-0.97-1.28-1.48c-0.43-0.4-0.93-0.76-1.63-1.15c-0.96-0.54-2.12-0.91-3.63-1.15
		c-1.35-0.22-2.76-0.25-4.09-0.27c-0.67-0.01-1.34-0.01-2.01-0.01c-0.95,0-1.89-0.03-2.84-0.08c-3.41-0.18-7-0.75-10.65-1.7
		c-3.38-0.9-6.69-2.08-10.35-3.41c-1.61-0.58-3.18-0.93-4.69-1.04C108.63,39.67,108.32,39.66,108.01,39.66 M89,95.94l0.67-0.76
		l0.07-0.08c0.32-0.39,0.64-0.79,0.94-1.2c0.42-0.56,0.75-1.24,1-2c0.28-0.9,0.45-1.85,0.61-2.7l0.03-0.19l0.04-0.19l0.12-0.66
		c0.18-1,0.36-2.01,0.57-3c0.21-1,0.53-2.31,1.06-3.59c0.27-0.62,0.58-1.18,0.94-1.69c0.23-0.3,0.5-0.57,0.79-0.81
		c0.23-0.18,0.49-0.34,0.78-0.46c0.29-0.11,0.59-0.19,0.92-0.24c0.16-0.02,0.32-0.02,0.48-0.02c0.2,0,0.4,0.01,0.59,0.03
		c0.55,0.08,1.06,0.21,1.54,0.4c0.61,0.27,1.2,0.64,1.82,1.11c1.33,1.07,2.43,2.36,3.48,3.61l0.42,0.48
		c0.96,1.15,2.05,2.45,3.3,3.58c1.48,1.33,2.92,2.1,4.38,2.35c0.34,0.07,0.73,0.1,1.15,0.1c0.52,0,1.03-0.05,1.53-0.16
		c0.45-0.09,0.9-0.26,1.37-0.5c0.46-0.23,0.88-0.54,1.22-0.79l0.3-0.22c0.55-0.4,1.08-0.79,1.64-1.05c0.21-0.07,0.42-0.14,0.64-0.17
		c0.08-0.01,0.16-0.01,0.24-0.01c0.09,0,0.19,0,0.28,0.01c0.25,0.04,0.48,0.11,0.73,0.2c0.17,0.09,0.33,0.18,0.49,0.29
		c0.13,0.12,0.27,0.26,0.39,0.4c0.21,0.29,0.4,0.64,0.58,1.07l0.08,0.1l0.07,0.27c0.13,0.33,0.27,0.64,0.42,0.95
		c0.23,0.45,0.51,0.86,0.85,1.21c0.17,0.18,0.38,0.32,0.57,0.46c0.3,0.21,0.56,0.33,0.83,0.44c0.5,0.2,1.05,0.32,1.74,0.37
		c0.13,0.01,0.26,0.01,0.38,0.01c0.4,0,0.83-0.04,1.35-0.11c0.56-0.07,1.15-0.19,1.88-0.38c0.33-0.08,0.64-0.16,0.97-0.25l0.14-0.04
		c0.77-0.2,1.51-0.39,2.26-0.5c0.46-0.05,0.89-0.08,1.28-0.08c0.41,0,0.86,0.03,1.32,0.08c0.73,0.12,1.42,0.31,2.05,0.56
		c0.62,0.29,1.19,0.62,1.74,1.02c0.65,0.51,1.3,1.16,1.91,1.92c0.33,0.43,0.61,0.84,0.87,1.24c0.11,0.2,0.21,0.41,0.31,0.62
		c0.41,0.97,0.71,2,0.96,2.83l0.22,0.75c0.44,1.46,0.85,2.78,1.4,4.06c0.25,0.58,0.49,1.04,0.77,1.45c0.32,0.49,0.67,0.84,1.06,1.09
		c0.12,0.07,0.25,0.13,0.38,0.18c0.07-0.08,0.1-0.16,0.12-0.23c0.05-0.17,0.13-0.25,0.23-0.25c0.09,0.02,0.15,0.06,0.18,0.11
		c0.03,0.05,0.04,0.11,0.02,0.16l-0.03,0.12c-0.02,0.08-0.04,0.16-0.06,0.23c-0.12,0.66-0.24,1.23-0.39,1.8
		c-0.01,0.35-0.04,0.68-0.08,1.01c-0.07,0.54-0.15,1.08-0.25,1.61c-0.18,0.99-0.41,1.96-0.68,2.89c-0.54,1.86-1.26,3.68-2.14,5.4
		c-0.16,0.32-0.34,0.64-0.51,0.95c-0.18,0.4-0.38,0.79-0.59,1.18l-0.17,0.3c-0.12,0.22-0.24,0.43-0.37,0.64
		c-0.33,0.65-0.73,1.3-1.22,1.99c-0.21,0.31-0.41,0.58-0.6,0.85c-0.28,0.44-0.58,0.87-0.97,1.36c-0.2,0.25-0.4,0.5-0.61,0.74
		l-0.09,0.12l-0.09,0.12c-0.11,0.14-0.21,0.27-0.33,0.41l-0.13,0.15c-1.43,1.83-2.85,3.3-4.34,4.49l-0.22,0.17l-0.16,0.13
		c-0.27,0.24-0.56,0.47-0.85,0.68c-0.14,0.11-0.29,0.21-0.44,0.31l-0.09,0.06L135,134.9c-0.22,0.16-0.45,0.32-0.67,0.47
		c-0.67,0.48-1.37,0.91-2.08,1.27c-0.62,0.31-1.25,0.61-1.89,0.88c-0.18,0.08-0.36,0.16-0.55,0.24c-0.43,0.18-0.86,0.35-1.29,0.52
		c-1.48,0.57-2.72,0.97-3.89,1.24c-0.35,0.08-0.69,0.15-1.05,0.21c-0.26,0.03-0.53,0.05-0.79,0.07c-0.32,0.04-0.63,0.08-0.95,0.11
		l-0.18,0.01c-0.13,0.01-0.25,0.02-0.37,0.02c-0.05,0.06-0.08,0.1-0.08,0.16c0,0.08,0.03,0.17,0.08,0.22
		c0.05,0.05,0.12,0.08,0.19,0.08l0.31,0c1.55,0,3.2-0.23,4.89-0.7c-0.14,1.97-0.06,3.42,0.25,4.83c0.2,0.96,0.54,1.83,1,2.6
		c0.48,0.8,1.18,1.51,2.08,2.11c0.8,0.52,1.78,0.93,2.97,1.24c0.55,0.15,1.13,0.24,1.59,0.32c0.65,0.1,1.25,0.17,1.85,0.21
		c0.89,0.07,1.78,0.1,2.67,0.13l0.22,0.01l0.42,0.02c0.41,0.01,0.82,0.03,1.23,0.05l-0.1,0.05l-0.07,0.15
		c-0.09,0.18-0.19,0.36-0.29,0.53l-0.09,0.15l-0.1,0.16c-0.3,0.51-0.59,1.02-0.9,1.52c-0.62,0.99-1.26,1.92-1.91,2.76
		c-0.74,0.94-1.54,1.84-2.36,2.66c-0.82,0.83-1.76,1.65-2.79,2.46c-0.96,0.73-1.96,1.4-2.98,2c-0.97,0.57-2.03,1.1-3.25,1.61
		c-1.02,0.42-2.13,0.8-3.21,1.1c-1.04,0.3-2.18,0.53-3.38,0.7c-1.04,0.14-2.15,0.22-3.32,0.23h-0.15c-1.13,0-2.29-0.08-3.44-0.24
		c-0.99-0.14-1.99-0.34-2.91-0.59c-0.97-0.26-1.93-0.59-2.85-0.97c-0.95-0.41-1.87-0.88-2.74-1.39c-0.83-0.49-1.68-1.07-2.54-1.73
		c-0.99-0.78-2.01-1.69-2.94-2.66c-0.94-0.96-1.85-2.02-2.79-3.23c-1.29-1.68-2.55-3.56-3.75-5.6l0.27,0.06
		c0.74-0.02,1.48-0.05,2.22-0.09c1.21-0.07,2.28-0.19,3.28-0.39c1.06-0.21,2.07-0.55,3-1.02c0.97-0.49,1.84-1.17,2.52-1.98
		c0.63-0.75,1.14-1.69,1.5-2.78c0.3-0.94,0.47-1.99,0.52-3.21c0.02-0.83-0.04-1.7-0.2-2.63c2.29,0.94,4.83,1.53,7.55,1.76
		c0.19,0,0.32-0.09,0.35-0.25c0.01-0.08-0.01-0.17-0.06-0.24c-0.05-0.06-0.13-0.1-0.19-0.11c-1.61-0.14-3.24-0.46-4.82-0.95
		c-1.1-0.35-2.32-0.83-3.52-1.39c-1.12-0.53-2.23-1.15-3.41-1.89c-1.15-0.75-2.29-1.59-3.38-2.52c-1.06-0.9-2.12-1.93-3.14-3.05
		c-2.14-2.39-3.97-5.05-5.44-7.92l-0.02,0.17c-0.83-1.87-1.51-3.57-1.99-5.04c0.25-0.5,0.52-1.03,0.8-1.55l0.42-0.74
		c0.28-0.5,0.56-0.99,0.83-1.5c0.59-1.11,1.32-2.6,1.63-4.22c0.14-0.73,0.18-1.48,0.13-2.24c-0.06-0.77-0.23-1.57-0.52-2.44
		c-0.22-0.66-0.53-1.36-1.03-2.27l-0.17-0.32c-0.29-0.54-0.58-1.09-0.84-1.67c-0.21-0.5-0.33-0.95-0.41-1.4
		c-0.04-0.31-0.04-0.62-0.01-0.93c0.04-0.29,0.12-0.58,0.24-0.87c0.2-0.43,0.46-0.86,0.82-1.35L89,95.94z M151.05,107.43
		c0.17,0,0.4-0.06,0.62-0.16c0.3-0.13,0.57-0.3,0.87-0.5l0.11-0.07c0.23-0.16,0.46-0.31,0.71-0.44c0.12-0.04,0.26-0.08,0.4-0.11
		c0.09-0.01,0.19-0.02,0.29-0.02c0.12,0,0.25,0.01,0.36,0.02c0.07,0.01,0.12,0.02,0.17,0.04c-0.1,0.74-0.23,1.41-0.39,1.98
		l-0.02,0.12c-0.2,0.62-0.49,1.24-0.82,1.79c-0.23,0.36-0.49,0.68-0.8,0.99c-0.25,0.23-0.51,0.42-0.77,0.56
		c-0.24,0.11-0.48,0.2-0.72,0.27c-0.24,0.06-0.51,0.08-0.87,0.09l-0.27-0.03l-0.13-0.01c0.23-0.55,0.39-1.16,0.55-1.76
		c0.18-0.69,0.33-1.34,0.49-2l0.18-0.77C151.04,107.43,151.05,107.43,151.05,107.43 M80.3,180.8c-0.33-0.09-0.65-0.23-0.99-0.39
		c-1-0.48-1.93-0.98-2.76-1.48c-0.01-0.53-0.05-1.09-0.1-1.66c-0.04-0.54-0.08-1.02-0.11-1.51c-0.09-1.27-0.14-2.47-0.17-3.65
		c-0.07-2.75,0.03-5.14,0.32-7.32c0.3-2.19,0.79-4.08,1.51-5.77c0.49-1.1,1.08-2.13,1.75-3.05c0.64-0.82,1.35-1.53,2.15-2.17
		c0.82-0.63,1.74-1.16,2.74-1.6c0.58-0.24,1.13-0.43,1.66-0.58c0.46-0.13,0.97-0.23,1.56-0.33c0.36,1.07,0.63,2.17,0.79,3.37
		c0.23,1.81,0.2,3.86-0.09,6.1c-0.48,3.43-1.49,6.96-3.08,10.77c-0.78,1.82-1.61,3.52-2.48,5.07c-0.38,0.66-0.82,1.41-1.32,2.21
		C81.22,179.52,80.78,180.16,80.3,180.8 M150.13,181.46l-0.07-0.26l-0.06-0.21l-0.24-0.73c-0.16-0.5-0.31-1-0.46-1.5
		c-0.31-1-0.6-2.07-0.91-3.27c-0.57-2.27-1.01-4.51-1.3-6.66c-0.57-4.31-0.63-8.39-0.15-12.11c0.21-1.51,0.48-2.85,0.83-4.11
		c1.14,0.59,2.19,1.23,3.09,1.92c1.01,0.8,1.94,1.74,2.77,2.78c0.94,1.24,1.75,2.65,2.41,4.21c0.9,2.15,1.54,4.6,1.92,7.28
		c0.17,1.26,0.28,2.65,0.35,4.11c0.03,0.66,0.04,1.32,0.04,1.99c0,0.47-0.01,0.95-0.04,1.42l-0.02,0.34l-0.02,0.34
		c-0.03,0.3-0.05,0.59-0.05,0.87c-0.2,0.15-0.42,0.29-0.64,0.43l-0.39,0.25c-0.42,0.25-0.85,0.5-1.29,0.73
		c-0.85,0.45-1.78,0.87-2.94,1.3l0.14,0.04l-0.89,0.24C151.52,181.05,150.84,181.26,150.13,181.46 M133.11,185.14
		c-1.02-4.38-1.7-7.94-2.15-11.23c-0.32-2.4-0.52-4.63-0.61-6.81c-0.04-1.03-0.06-2.03-0.04-2.97c0.77-0.43,1.6-0.96,2.46-1.58
		c1.78-1.29,3.39-2.78,4.81-4.44c0.03,4.22,0.5,8.56,1.36,12.9c0.52,2.62,1.21,5.22,2.06,7.74c0.54,1.6,1.17,3.16,1.85,4.63
		c-0.39,0.04-0.8,0.13-1.23,0.22l-0.68,0.14C138.38,184.28,135.74,184.75,133.11,185.14 M99.05,185.4
		c-2.05-0.25-3.96-0.53-5.84-0.86c-1.4-0.25-2.71-0.52-4-0.82c1.9-3.8,3.42-7.49,4.66-11.26c0.96-2.92,1.69-5.85,2.18-8.68
		c0.32-1.84,0.53-3.64,0.62-5.33c0.92,1.2,2.03,2.37,3.26,3.47c1.04,0.91,2.13,1.74,3.24,2.45l-0.03,0.34l-0.02,0.41
		c-0.07,1.45-0.21,2.93-0.41,4.52C102.03,174.65,100.75,179.57,99.05,185.4 M115.39,186.44c-1.81,0-3.55-0.04-5.18-0.11
		c0.12-0.72,0.2-1.48,0.27-2.24c0.19-2.04,0.33-4.32,0.45-6.99c0.13-3.03,0.18-6.1,0.22-9.08l0-0.17v-0.17l0-0.17
		c0.29,0.1,0.64,0.16,0.94,0.21c1.28,0.2,2.63,0.3,4,0.3c1.53,0,3.05-0.13,4.54-0.39l0.09,4.44l0.12,5.18
		c0.07,3.04,0.13,6.06,0.23,9.09C118.99,186.41,117.08,186.44,115.39,186.44"/>
</g>
</svg>
