<?xml version="1.0" encoding="utf-8"?>
<!-- Generator: Adobe Illustrator 23.1.0, SVG Export Plug-In . SVG Version: 6.00 Build 0)  -->
<svg version="1.1" id="Capa_1" xmlns="http://www.w3.org/2000/svg" xmlns:xlink="http://www.w3.org/1999/xlink" x="0px" y="0px"
	 viewBox="0 0 226.77 226.77" style="enable-background:new 0 0 226.77 226.77;" xml:space="preserve">
<g>
	<path d="M109.77,39.37c-0.56,0-1.13,0.04-1.71,0.11c-0.95,0.12-1.71,0.29-2.37,0.54c-1.42,0.54-2.62,1.5-3.77,2.42l-0.59,0.47
		c-0.28,0.21-0.63,0.46-0.98,0.7c-0.35,0.23-0.73,0.43-1.17,0.63c-0.45,0.17-0.95,0.29-1.62,0.38c-0.29,0.03-0.58,0.06-0.87,0.09
		c-0.29,0.03-0.57,0.05-0.86,0.08c-0.75,0.08-1.41,0.22-2,0.42c-1.23,0.42-2.41,1.24-3.62,2.51c-0.85,0.9-1.61,1.99-2.38,3.42
		c-0.56,1.04-1.04,2.13-1.5,3.19c-0.25-0.36-0.55-0.66-0.89-0.91c-0.29-0.21-0.59-0.38-0.92-0.5c-0.35-0.14-0.72-0.22-1.18-0.25
		c-0.05,0-0.1-0.01-0.15-0.01c-0.3,0-0.6,0.05-0.89,0.11c-0.33,0.07-0.65,0.2-0.94,0.34c-0.21,0.1-0.42,0.23-0.63,0.4
		c-0.26,0.19-0.48,0.39-0.69,0.62c-0.78,0.86-1.22,1.97-1.58,3.04c-0.12,0.36-0.23,0.73-0.34,1.09c-0.19,0.62-0.38,1.26-0.63,1.86
		c-0.17,0.39-0.38,0.78-0.64,1.18c-0.22,0.33-0.46,0.66-0.7,0.97l-0.24,0.33c-0.57,0.77-1.12,1.61-1.29,2.61
		c-0.19,1.07,0.07,2.27,0.76,3.55c0.27,0.5,0.65,1,1.22,1.56c0.32,0.31,0.69,0.63,1.17,0.99c-0.25,0.13-0.5,0.29-0.73,0.45
		c-0.37,0.24-0.73,0.56-1.12,0.95c-0.57,0.59-1.09,1.32-1.56,2.16c-0.41,0.75-0.75,1.59-1,2.52c-0.23,0.84-0.37,1.75-0.41,2.7
		c-0.04,0.85,0.04,1.76,0.22,2.7c0.18,0.91,0.49,1.79,0.93,2.61c0.38,0.72,0.94,1.4,1.7,2.08c0.46,0.4,0.96,0.77,1.44,1.13
		c0.21,0.16,0.42,0.31,0.62,0.47l0,0c0.41,0.32,0.73,0.59,1.03,0.87c0.18,0.16,0.36,0.3,0.56,0.41c0.11,0.06,0.22,0.1,0.34,0.14
		l0.11,0.04L80,90.58l-0.01,0.01c0.04,0.07,0.08,0.14,0.12,0.21c0.05,0.36,0.03,0.62,0,0.89l-0.05,0.47
		c-0.03,0.24-0.05,0.47-0.07,0.71c-0.02,0.31,0,0.62,0.05,0.93c0.02,0.12,0.07,0.24,0.11,0.35l0.05,0.13
		c0.07,0.21,0.16,0.41,0.26,0.61c0.14,0.3,0.32,0.59,0.56,0.88c0.23,0.29,0.49,0.54,0.82,0.77c0.27,0.2,0.62,0.34,1.03,0.43
		c0.1,0.02,0.21,0.04,0.31,0.04c-0.01,0.54-0.03,1.07-0.04,1.56c-0.04,1.25-0.11,2.51-0.2,3.76c-0.05,0.82-0.11,1.64-0.17,2.46
		l-0.04,0.54c-0.11,1.64-0.23,3.28-0.31,4.92c-0.16,3.05-0.16,5.55,0,7.86c0.08,1.24,0.24,2.49,0.46,3.7
		c0.21,1.14,0.51,2.3,0.91,3.44c0.74,2.11,1.93,4.12,3.53,5.96c1.46,1.67,3.27,3.14,5.4,4.39c1.38,0.81,2.89,1.52,4.49,2.09
		c-0.02,0.96-0.04,2.06-0.18,3.14c-0.1,0.65-0.24,1.18-0.43,1.65l0.09-0.1c-0.16,0.25-0.3,0.53-0.47,0.76
		c-0.18,0.22-0.35,0.39-0.55,0.55c-0.26,0.19-0.56,0.36-0.91,0.52c-0.63,0.25-1.33,0.42-2.27,0.56c-2.22,0.29-4.5,0.32-6.71,0.35
		c-0.8,0.01-1.58,0.02-2.36,0.04c-2.57,0.07-5.91,0.29-9.01,1.41c-1.09,0.39-2.13,0.88-3.08,1.45c-0.85,0.51-1.7,1.15-2.5,1.88
		c-1.39,1.28-2.55,2.89-3.43,4.79c-1.22,2.64-1.89,5.69-2.1,9.59c-0.08,1.45-0.08,3.07,0.01,5.09c0.08,1.68,0.21,3.37,0.39,5.02
		c0.01,0.11,0.04,0.22,0.12,0.33c0.02,0.09,0.08,0.17,0.13,0.21c4.05,2.87,8.82,5.34,14.17,7.34c4.93,1.84,10.26,3.25,15.86,4.2
		c2.58,0.43,5.26,0.76,7.97,0.98c2.4,0.19,4.97,0.29,8.1,0.32h1.06c5.74,0,11.34-0.32,16.63-0.94c6.13-0.73,11.98-1.9,17.38-3.47
		c2.84-0.83,5.64-1.8,8.31-2.9c1.42-0.58,2.82-1.22,4.01-1.78c1.45-0.68,2.65-1.29,3.78-2.06c0.28-0.19,0.55-0.39,0.8-0.61
		c0.29-0.25,0.55-0.52,0.81-0.79l0.1-0.29l0.04-0.22c0.29-2.21,0.48-4.39,0.56-6.67c0.1-2.59,0.05-5.18-0.16-7.7
		c-0.22-2.7-0.62-5.07-1.23-7.25c-0.3-1.08-0.66-2.07-1.07-2.95c-0.31-0.66-0.71-1.29-1.22-1.94c-0.83-1.04-1.97-1.93-3.32-2.57
		c-1.2-0.58-2.58-0.99-4.2-1.25c-2.18-0.35-4.35-0.39-5.99-0.39c-0.91,0-1.83,0.02-2.74,0.03l-0.73,0.01
		c-0.63,0.01-1.26,0.02-1.89,0.02c-1.69,0-2.99-0.07-4.19-0.23c-1.08-0.15-1.95-0.37-2.75-0.69c-0.49-0.21-0.9-0.45-1.28-0.72
		c-0.33-0.27-0.6-0.53-0.85-0.84c-0.22-0.3-0.41-0.64-0.57-1c-0.19-0.47-0.32-0.97-0.4-1.54c-0.07-0.62-0.08-1.26-0.03-1.98
		c1.68-0.68,3.23-1.51,4.62-2.46c1.66-1.13,3.12-2.48,4.34-4c0.62-0.78,1.18-1.61,1.67-2.47c0.47-0.83,0.9-1.74,1.3-2.79
		c0.7-1.85,1.15-3.88,1.36-6.2c0.3-3.24,0.46-6.52,0.58-9.29c0.07-1.47,0.12-2.94,0.18-4.41l0.03-0.9l0.05-1.35
		c0.03-0.88,0.07-1.77,0.1-2.65c0.07-1.52,0.13-3.04,0.21-4.56c0.02-0.41,0.04-0.81,0.07-1.22c0.14,0.08,0.33,0.11,0.5,0.11
		c0.06,0,0.12,0,0.18-0.01c0.12-0.02,0.23-0.04,0.34-0.08c0.15-0.06,0.27-0.13,0.41-0.24c0.42-0.33,0.66-0.83,0.88-1.31
		c0.15-0.35,0.29-0.71,0.43-1.08l0.17-0.45c0.22,0.21,0.44,0.38,0.67,0.5c0.3,0.16,0.63,0.25,0.96,0.25c0.1,0,0.2-0.01,0.3-0.02
		c0.7-0.11,1.32-0.62,1.89-1.57c0.27-0.45,0.47-0.96,0.63-1.39c0.16-0.44,0.3-0.92,0.44-1.53c0.1-0.43,0.18-0.91,0.24-1.45
		c0.05-0.43,0.06-0.8,0.04-1.14c0-0.05-0.01-0.09-0.03-0.12c0.3-0.32,0.59-0.69,0.86-1.09c0.34-0.51,0.64-1.09,0.95-1.82
		c0.54-1.28,0.83-2.69,0.83-4.07c0-0.97-0.18-2.37-1.03-3.54c-0.38-0.52-0.87-0.95-1.44-1.28c-0.26-0.15-0.57-0.28-0.97-0.41
		c-0.08-0.03-0.16-0.05-0.25-0.07c0.16-0.2,0.32-0.41,0.48-0.62c0.54-0.72,1.11-1.47,1.54-2.29c0.32-0.59,0.53-1.22,0.65-1.85
		c0.06-0.34,0.09-0.71,0.1-1.13c0-0.42-0.05-0.83-0.12-1.25c-0.09-0.6-0.28-1.2-0.57-1.83c-0.27-0.58-0.66-1.08-1.13-1.44
		c-0.24-0.19-0.49-0.33-0.75-0.43c-0.25-0.1-0.52-0.16-0.87-0.2c-0.08-0.01-0.16-0.02-0.24-0.02c-0.04,0-0.08,0-0.11,0l0.07-0.09
		c0.32-0.6,0.52-1.3,0.64-2.2c0.09-0.7,0.05-1.46-0.12-2.28c-0.15-0.73-0.48-1.48-0.96-2.16c-0.79-1.13-2.03-2.04-3.78-2.8
		c-1.04-0.45-2.13-0.8-3.19-1.13l-0.8-0.25c0.09-0.18,0.15-0.37,0.21-0.58c0.08-0.32,0.13-0.68,0.13-1.09
		c0-0.31-0.05-0.65-0.14-1.05c-0.09-0.34-0.23-0.68-0.46-1.1c-0.18-0.33-0.43-0.62-0.64-0.87c-0.22-0.25-0.49-0.5-0.83-0.75
		c-0.68-0.5-1.48-0.89-2.38-1.16c-0.55-0.16-1.14-0.24-1.75-0.24c-0.21,0-0.43,0.01-0.64,0.03c-0.73,0.07-1.49,0.28-2.31,0.65
		c-0.63,0.28-1.28,0.68-2.03,1.25c-0.38,0.29-0.77,0.62-1.18,1c0.04-0.73-0.01-1.44-0.13-2.11c-0.06-0.38-0.17-0.76-0.32-1.15
		c-0.16-0.42-0.34-0.77-0.54-1.08c-0.39-0.58-0.92-1.07-1.54-1.42c-0.31-0.18-0.65-0.3-0.91-0.39c-0.36-0.12-0.73-0.17-1.07-0.22
		c-0.3-0.04-0.61-0.06-0.91-0.06c-0.41,0-0.84,0.03-1.29,0.09c-0.76,0.1-1.52,0.29-2.33,0.57c-1.57,0.54-3.1,1.31-4.55,2.31
		l-0.09,0.07c-0.13-0.35-0.29-0.66-0.47-0.96c-0.17-0.28-0.39-0.56-0.68-0.88c-0.43-0.48-1.01-0.92-1.72-1.31
		c-1.21-0.67-2.72-1.05-4.47-1.13C110.11,39.37,109.94,39.37,109.77,39.37 M97.26,69.51c0.5,0,1.01-0.05,1.58-0.14
		c0.68-0.12,1.38-0.33,2.12-0.64c0.71-0.3,1.37-0.66,1.97-1.08c0.84-0.58,1.51-1.22,2.01-1.92c-0.02,0.27,0.01,0.57,0.06,0.96
		c0.12,0.75,0.38,1.45,0.77,2.08c0.37,0.59,0.87,1.14,1.49,1.62c0.35,0.27,0.68,0.49,1,0.67c0.38,0.21,0.78,0.38,1.13,0.51
		c0.66,0.25,1.41,0.41,2.3,0.48c0.17,0.01,0.35,0.02,0.53,0.02c0.59,0,1.2-0.08,1.82-0.22c0.35-0.08,0.71-0.21,1.11-0.38
		c0.38-0.17,0.72-0.36,1.03-0.58c0.34-0.24,0.62-0.48,0.87-0.73c-0.43,1.67-0.74,3.46-0.28,5.21c0.27,1.03,0.89,1.97,1.8,2.73
		c0.93,0.78,2,1.26,3.09,1.4c0.24,0.03,0.48,0.04,0.72,0.04c0.22,0,0.43-0.03,0.65-0.06c0.51-0.07,0.96-0.21,1.53-0.46
		c0.39-0.17,0.78-0.41,1.24-0.74c0.43-0.32,0.83-0.69,1.22-1.1c0.71-0.76,1.34-1.66,1.88-2.68c0.49-0.92,0.88-1.91,1.15-2.95
		c0.08,0,0.16,0,0.24,0c0.3,0,0.61,0.02,0.92,0.02c0.11,0,0.22,0,0.34-0.01c0.5-0.02,1-0.11,1.37-0.18
		c0.03,0.39,0.09,0.79,0.17,1.18c0.1,0.55,0.26,1.11,0.46,1.65c0.4,1.09,0.95,1.95,1.64,2.56c0.34,0.3,0.74,0.53,1.22,0.71
		c0.17,0.06,0.35,0.11,0.6,0.14c0.17,0.02,0.34,0.04,0.51,0.04c0.09,0,0.19,0,0.28-0.01c0.68-0.06,1.36-0.29,2.08-0.72
		c-0.25,0.6-0.41,1.26-0.53,2.03c-0.24,1.56-0.23,3.08,0.05,4.52c0.12,0.65,0.32,1.25,0.59,1.76c0.18,0.35,0.5,0.82,1.02,1.1
		c0.26,0.14,0.54,0.21,0.85,0.21c0.21,0,0.43-0.04,0.65-0.1c0.14-0.04,0.29-0.11,0.42-0.18c-0.31,0.98-0.49,1.95-0.53,2.88
		c-0.04,0.75,0.04,1.49,0.23,2.21c0.1,0.39,0.27,0.75,0.4,1.02c0.2,0.42,0.48,0.77,0.71,1.04c0.25,0.3,0.56,0.59,0.92,0.87
		l0.12,0.09c-0.11,1.46-0.2,2.87-0.27,4.16c-0.13,2.2-0.24,4.41-0.35,6.62l-0.04,0.86c-0.12,2.5-0.24,4.94-0.39,7.38
		c-0.07,1.25-0.16,2.5-0.25,3.76l-0.03,0.37c-0.06,0.81-0.13,1.83-0.25,2.79l0.01,0.11l-0.01,0c-0.3,2.02-0.81,3.91-1.53,5.6
		c-0.63,1.47-1.44,2.84-2.39,4.07c-0.93,1.19-2.1,2.35-3.4,3.37c-1.57,1.19-3.35,2.21-5.31,3.04c-2.11,0.88-4.5,1.56-7.09,2.03
		c-0.07,0.02-0.13,0.06-0.17,0.13c-0.04,0.08-0.06,0.17-0.04,0.25c0.04,0.13,0.16,0.22,0.31,0.22c2.41-0.43,4.64-1.03,6.66-1.8
		c-0.06,0.66-0.05,1.29,0.04,1.91c0.09,0.64,0.25,1.22,0.49,1.8c0.42,0.97,1.17,1.81,2.15,2.42c0.38,0.24,0.82,0.45,1.28,0.62
		l-0.69,0.68l-0.71,0.72c-2.6,2.59-5.44,5.15-8.69,7.82c-1.29,1.06-2.69,2.17-4.53,3.59c-0.78,0.6-1.56,1.19-2.35,1.78l-0.2,0.16
		c-0.31,0.23-0.63,0.48-0.93,0.72l-0.11,0.09c-0.14,0.11-0.27,0.22-0.41,0.32c-0.16,0.12-0.34,0.23-0.51,0.34
		c-2.01-1.75-4.17-3.47-6.09-5c-3.17-2.53-6.45-5.14-9.44-8.02c-1.04-1.01-2.02-2.04-2.91-3.05c0.41-0.36,0.75-0.87,1.02-1.54
		c0.29-0.72,0.4-1.5,0.47-2.16c0.09-0.85,0.11-1.71,0.11-2.52c0.32,0.13,0.66,0.24,1.01,0.33c2.13,0.61,4.43,0.98,6.83,1.12
		c0.5,0.03,0.99,0.04,1.49,0.04c0.15,0,0.28-0.11,0.28-0.26c0.01-0.07-0.02-0.14-0.07-0.2c-0.05-0.06-0.11-0.09-0.17-0.09
		c-1.64-0.01-3.34-0.18-5.06-0.52c-2.4-0.48-4.76-1.28-7.01-2.37l0.08,0.08c-2-1.02-3.81-2.22-5.39-3.57
		c-1.33-1.17-2.47-2.46-3.42-3.83l-0.06-0.09c-0.44-0.68-0.81-1.33-1.12-1.97c-0.33-0.67-0.61-1.37-0.87-2.14
		c-0.61-1.88-0.98-4.04-1.14-6.6c-0.2-3.69,0.03-7.4,0.26-10.99l0.08-1.25c0.11-1.79,0.22-3.91,0.23-6.03c0-0.79-0.02-1.6-0.06-2.41
		c0.1,0,0.19-0.04,0.29-0.13c0.16-0.14,0.31-0.29,0.45-0.44c0.11-0.12,0.21-0.25,0.3-0.38c0.25-0.35,0.42-0.71,0.55-1.15
		c0.08-0.28,0.13-0.59,0.16-1.01c0.02-0.39-0.03-0.76-0.09-1.17c-0.1-0.71-0.32-1.4-0.53-2.08l-0.06-0.19
		c-0.22-0.71-0.45-1.44-0.56-2.18c-0.02-0.17-0.03-0.34-0.04-0.51c0-0.22,0.02-0.44,0.04-0.66c0.15-0.95,0.5-1.83,0.83-2.68
		l0.09-0.23c0.2-0.5,0.39-1.01,0.56-1.53c0.17-0.51,0.3-1.05,0.39-1.6c0.08-0.54,0.1-1.09,0.05-1.63c-0.04-0.51-0.15-1.05-0.31-1.59
		c-0.2-0.68-0.51-1.31-0.94-1.87l0.21,0.02c0.44-0.01,0.8-0.11,1.17-0.3c0.28-0.14,0.56-0.36,0.82-0.67
		c0.24-0.28,0.46-0.63,0.65-1.05c0.31-0.69,0.51-1.48,0.62-2.49c0.06-0.53,0.08-1.04,0.05-1.52c0.08,0.03,0.18,0.04,0.28,0.06
		c0.14,0.02,0.21,0.02,0.29,0.02c0.2,0,0.41-0.03,0.66-0.09c0.23-0.05,0.48-0.17,0.75-0.34c0.21-0.14,0.4-0.32,0.63-0.57
		c0.42-0.48,0.69-1.06,0.9-1.56c0.09-0.21,0.17-0.43,0.23-0.65c0.14,0.26,0.34,0.52,0.56,0.77c0.42,0.46,0.98,0.86,1.62,1.15
		C95.45,69.33,96.32,69.51,97.26,69.51 M114.43,165.98c0.07,0,0.14-0.02,0.2-0.06c1.96-1.11,3.98-2.43,6.18-4.03
		c1.89-1.37,3.83-2.93,5.77-4.62c1.79-1.57,3.62-3.3,5.44-5.14c0.86-0.88,1.71-1.78,2.54-2.69l1.27-1.42c0.48-0.55,0.86-1,1.18-1.43
		c0.39-0.48,0.8-0.95,1.21-1.41l0.1-0.08c0.06-0.04,0.11-0.09,0.14-0.18c0.66,0.04,1.35,0.07,2.02,0.08
		c0.85,0.02,1.71,0.03,2.56,0.03h0.91l0.9,0c2.06,0,4.26,0.02,6.42,0.3c1.76,0.26,3.1,0.6,4.28,1.1c0.72,0.31,1.42,0.71,2.01,1.16
		c0.59,0.46,1.1,0.97,1.56,1.56c0.43,0.58,0.81,1.25,1.13,2.01c0.75,1.84,1.27,3.93,1.64,6.6l0.02-0.16
		c0.32,2.72,0.47,5.63,0.43,8.91c-0.04,2.65-0.21,5.42-0.52,8.23c0,0.06,0.01,0.12,0.03,0.17l-0.21,0.13l-0.54,0.38
		c-0.43,0.3-0.86,0.59-1.31,0.87c-0.8,0.5-1.67,0.96-2.65,1.44c-3.26,1.55-6.84,2.94-10.63,4.13c-3.47,1.09-7.24,2.02-11.18,2.77
		l0.13,0.02c-5.46,0.98-11.23,1.65-17.15,1.95c-2.63,0.14-5.38,0.21-8.15,0.21l-0.48,0c-3.05-0.01-5.57-0.1-7.94-0.29
		c-7.84-0.64-15.39-2.24-22.41-4.76c-5.46-1.98-10.35-4.47-14.55-7.4l0.08,0.09l-0.14-0.11l-0.04-1.47l0-0.15
		c-0.05-1.47-0.11-2.98-0.1-4.48c0-2.3,0.12-4.31,0.36-6.15c0.33-2.41,0.85-4.46,1.59-6.27c0.57-1.31,1.22-2.45,2.01-3.48
		c0.71-0.9,1.53-1.72,2.43-2.42c0.97-0.73,2.08-1.37,3.29-1.9l0.12-0.05c1.55-0.62,3.23-1.06,5.12-1.33
		c2.2-0.29,4.45-0.34,6.62-0.38l1.59-0.04c1.67-0.05,3.02-0.13,4.25-0.27c0.37-0.04,0.75-0.09,1.12-0.16l0.07,0.13l0.36,0.44
		c0.59,0.72,1.18,1.43,1.79,2.14c0.8,0.95,1.62,1.88,2.45,2.81c1.67,1.86,3.37,3.62,5.03,5.23c1.76,1.71,3.57,3.35,5.37,4.88
		c1.03,0.88,1.98,1.64,2.88,2.36c1.15,0.9,2.07,1.56,2.96,2.16c0.06,0.04,0.12,0.06,0.19,0.06c0.04,0,0.08-0.01,0.13-0.02
		C114.33,165.97,114.38,165.98,114.43,165.98"/>
	<path d="M76.36,85.88c-0.09,0.11-0.19,0.23-0.27,0.35c-0.28,0.12-0.5,0.41-0.49,0.72c0,0.05,0,0.09,0.01,0.14
		c-0.02,0.04-0.03,0.08-0.05,0.12c-0.18,0.43-0.24,0.92-0.24,1.39c0,1,0.41,1.97,0.97,2.77c0.61,0.86,1.42,1.57,2.33,2.11
		c0.88,0.52,1.88,0.81,2.9,0.84c0.31,0.01,0.6-0.22,0.68-0.52c0.03-0.13,0.03-0.25,0-0.38c-0.04-0.16-0.17-0.36-0.32-0.42
		c-0.1-0.04-0.21-0.08-0.31-0.13c0.05-0.13,0.06-0.27,0.03-0.41c0.16-0.21,0.22-0.52,0.06-0.75c-0.18-0.25-0.37-0.49-0.56-0.72
		c-0.17-0.41-0.39-0.79-0.66-1.14c-0.11-0.16-0.23-0.27-0.42-0.32c-0.06-0.02-0.13-0.03-0.2-0.02c-0.43-0.59-0.93-1.13-1.43-1.64
		c-0.22-0.22-0.55-0.28-0.83-0.18c-0.15-0.32-0.3-0.64-0.44-0.96c0,0,0-0.01,0.01-0.01c0.01-0.01,0.02-0.02,0.03-0.03
		c0.1-0.12,0.17-0.24,0.17-0.4c0-0.15-0.06-0.3-0.17-0.4c-0.11-0.11-0.26-0.17-0.42-0.17C76.6,85.72,76.46,85.77,76.36,85.88
		 M81.22,92.75c0.02,0.01,0.03,0.01,0.05,0.02C81.26,92.76,81.25,92.76,81.22,92.75C81.23,92.75,81.23,92.75,81.22,92.75"/>
	<path d="M78.94,92.23c-0.79,0.22-1.55,0.53-2.25,0.98c-0.62,0.4-1.17,0.9-1.62,1.48c-0.45,0.58-0.79,1.22-1.04,1.91
		c-0.26,0.71-0.39,1.45-0.45,2.2c-0.07,0.78-0.02,1.57,0.09,2.35c0.11,0.8,0.31,1.57,0.57,2.34c0.54,1.56,1.37,3.02,2.48,4.24
		c0.72,0.8,1.59,1.48,2.55,1.97c0.96,0.49,2.02,0.75,3.1,0.79c0.17,0.01,0.33-0.12,0.38-0.29c0.03-0.1,0.01-0.21-0.04-0.3
		c-0.05-0.08-0.14-0.17-0.23-0.18c-0.61-0.09-1.21-0.26-1.79-0.5c-0.69-0.3-1.33-0.69-1.93-1.15c-0.68-0.55-1.3-1.18-1.84-1.87
		c-0.64-0.85-1.16-1.77-1.58-2.74c-0.38-0.94-0.64-1.93-0.78-2.94c0.01,0.04,0.01,0.09,0.02,0.13c-0.11-0.83-0.12-1.66-0.02-2.5
		c0.09-0.63,0.25-1.25,0.49-1.84c0.19-0.44,0.43-0.85,0.71-1.23c-0.01,0.01-0.02,0.02-0.03,0.03c0.01-0.01,0.02-0.03,0.04-0.04
		c0.01-0.01,0.02-0.02,0.03-0.04c-0.01,0.01-0.01,0.02-0.02,0.03c0.29-0.37,0.62-0.7,1-0.99c0.36-0.26,0.74-0.48,1.15-0.67
		c0.4-0.17,0.81-0.3,1.24-0.39c0.21-0.05,0.34-0.3,0.29-0.5c-0.05-0.18-0.22-0.3-0.39-0.3C79.01,92.21,78.97,92.22,78.94,92.23
		 M76.73,94.1c-0.01,0.01-0.02,0.01-0.03,0.02C76.71,94.12,76.72,94.11,76.73,94.1 M75.35,103.48c0.01,0.03,0.03,0.07,0.04,0.1
		C75.38,103.54,75.36,103.51,75.35,103.48 M76.92,106.21c0.02,0.03,0.05,0.06,0.07,0.1C76.97,106.27,76.95,106.24,76.92,106.21
		 M75.77,95.07c0,0-0.01,0.01-0.01,0.01C75.77,95.07,75.77,95.07,75.77,95.07C75.77,95.06,75.77,95.07,75.77,95.07"/>
	<path d="M151.3,90.75c-0.15,0.15-0.17,0.43,0,0.58c0.39,0.34,0.75,0.71,1.07,1.12c-0.02-0.03-0.04-0.06-0.06-0.09
		c0.35,0.46,0.63,0.95,0.87,1.47c0.28,0.67,0.47,1.38,0.57,2.1c0-0.04-0.01-0.07-0.01-0.11c0.1,0.84,0.1,1.69-0.01,2.53
		c-0.14,1-0.41,1.97-0.8,2.9c0,0,0-0.01,0-0.01c-0.4,0.94-0.92,1.83-1.54,2.65c-0.55,0.71-1.17,1.35-1.87,1.91l0.02-0.01
		c-0.02,0.01-0.04,0.03-0.05,0.04c-0.01,0.01-0.02,0.02-0.03,0.03c0,0,0.01-0.01,0.01-0.01c-0.59,0.44-1.21,0.82-1.89,1.11
		c-0.61,0.25-1.24,0.43-1.89,0.53c-0.27,0.04-0.54,0.06-0.82,0.06c-0.22,0-0.41,0.18-0.41,0.41c0,0.22,0.18,0.41,0.41,0.41
		c0.89-0.01,1.76-0.16,2.6-0.45c0.84-0.29,1.62-0.73,2.33-1.25c1.48-1.08,2.66-2.55,3.49-4.18c1.63-3.15,2.01-7.24-0.09-10.27
		c-0.38-0.55-0.83-1.04-1.32-1.47c-0.09-0.08-0.19-0.12-0.3-0.12C151.48,90.63,151.38,90.67,151.3,90.75 M151.38,103.91
		c-0.01,0.01-0.01,0.01-0.02,0.02C151.37,103.93,151.38,103.92,151.38,103.91 M149.46,105.85c0.01,0,0.01-0.01,0.02-0.01
		c0.01-0.01,0.02-0.02,0.04-0.03C149.5,105.82,149.48,105.84,149.46,105.85"/>
	<path d="M77.42,96.34c-0.16,0.01-0.29,0.13-0.29,0.3c0,0.15,0.13,0.3,0.29,0.29c0.38-0.03,0.75-0.02,1.12,0.02
		c0.37,0.06,0.72,0.15,1.07,0.29c0.45,0.19,0.86,0.43,1.25,0.72c0,0,0,0,0,0c0.19,0.15,0.37,0.31,0.54,0.48
		c0.23,0.22,0.43,0.46,0.63,0.71c-0.01-0.01-0.02-0.03-0.03-0.04c0.24,0.31,0.46,0.64,0.67,0.98c0.22,0.36,0.4,0.73,0.57,1.12
		c0.05,0.13,0.23,0.18,0.35,0.14c0.16-0.04,0.26-0.21,0.21-0.38c-0.18-0.71-0.48-1.38-0.88-1.99c-0.2-0.29-0.43-0.57-0.67-0.82
		c-0.24-0.25-0.51-0.47-0.79-0.68c-0.55-0.43-1.2-0.73-1.87-0.93c-0.52-0.15-1.07-0.22-1.61-0.22
		C77.79,96.31,77.61,96.32,77.42,96.34 M80.79,97.89c0.01,0.01,0.03,0.02,0.04,0.03C80.82,97.91,80.8,97.9,80.79,97.89 M81.96,99.05
		c0.01,0.01,0.02,0.02,0.03,0.04C81.98,99.08,81.97,99.06,81.96,99.05"/>
	<path d="M150.56,93.9c-1.18,0.58-2.35,1.19-3.4,1.98c-0.5,0.38-0.96,0.8-1.36,1.28c-0.21,0.25-0.4,0.52-0.57,0.8
		c-0.18,0.29-0.32,0.59-0.45,0.89c-0.01,0.05-0.01,0.11,0,0.16c0.02,0.07,0.07,0.14,0.14,0.18c0.13,0.08,0.33,0.04,0.4-0.11
		c0.11-0.23,0.23-0.45,0.37-0.68c0.13-0.21,0.28-0.42,0.43-0.62c-0.02,0.02-0.04,0.04-0.05,0.06c0.52-0.67,1.13-1.26,1.81-1.79
		l-0.06,0.05c0.45-0.34,0.91-0.64,1.39-0.93c0.52-0.31,1.07-0.59,1.61-0.86c0.12-0.06,0.15-0.23,0.09-0.34
		c-0.05-0.08-0.13-0.12-0.22-0.12C150.65,93.87,150.6,93.88,150.56,93.9"/>
	<path d="M108.18,91c-0.14,0.03-0.2,0.16-0.19,0.3c0.03,0.29,0.05,0.58,0.07,0.87c0-0.02,0-0.05,0-0.07
		c0.2,2.52,0.25,5.05,0.15,7.58c-0.11,2.59-0.38,5.18-0.86,7.74c0,0,0,0,0-0.01c-0.09,0.49-0.2,0.98-0.31,1.47
		c-0.1,0.44-0.25,0.86-0.41,1.29c-0.33,0.88-0.73,1.72-1.06,2.59c-0.32,0.82-0.58,1.66-0.65,2.54c-0.04,0.38,0,0.76,0.06,1.13
		c0.04,0.2,0.1,0.4,0.18,0.59c0.08,0.21,0.19,0.4,0.3,0.59c0.4,0.64,1,1.13,1.66,1.46c0.7,0.34,1.46,0.5,2.23,0.54
		c0.38,0.02,0.75,0,1.13-0.04c0.42-0.04,0.83-0.12,1.24-0.22c0.39-0.1,0.77-0.24,1.14-0.4c0.35-0.15,0.68-0.34,1-0.55
		c0.08-0.06,0.14-0.11,0.18-0.21c0.03-0.09,0.02-0.2-0.02-0.28c-0.09-0.17-0.32-0.25-0.49-0.16c-0.35,0.2-0.71,0.37-1.09,0.51
		c-0.66,0.23-1.33,0.38-2.02,0.45c-0.6,0.05-1.19,0.03-1.78-0.06c-0.4-0.08-0.78-0.19-1.15-0.36c-0.27-0.13-0.52-0.29-0.76-0.48
		c-0.21-0.19-0.4-0.4-0.57-0.63c-0.13-0.19-0.23-0.4-0.32-0.61c-0.08-0.25-0.14-0.51-0.17-0.78c-0.02-0.42,0.01-0.83,0.08-1.24
		c0.34-1.64,1.15-3.13,1.66-4.71c0.14-0.42,0.23-0.85,0.31-1.28c0.1-0.48,0.19-0.97,0.27-1.46c0.18-1.06,0.33-2.13,0.44-3.2
		c0.45-4.21,0.44-8.48,0.04-12.7c-0.01-0.12-0.14-0.2-0.25-0.2C108.21,90.99,108.2,91,108.18,91 M105.67,115.74l0,0.03
		L105.67,115.74z M105.67,115.79c0,0.02,0,0.04,0,0.06C105.68,115.83,105.67,115.81,105.67,115.79 M112.48,118.23l-0.03,0.01
		L112.48,118.23z M107.4,118.24c0.01,0,0.02,0.01,0.03,0.01C107.41,118.25,107.4,118.24,107.4,118.24"/>
	<path d="M120.36,122.32c-0.47,0.32-0.95,0.63-1.44,0.91c-0.5,0.28-1.02,0.53-1.54,0.76c0.01,0,0.01-0.01,0.02-0.01
		c-1.18,0.49-2.42,0.84-3.69,1.02c0.03,0,0.07-0.01,0.1-0.01c-0.69,0.09-1.38,0.15-2.08,0.16c-0.76,0.01-1.52-0.04-2.27-0.13
		c0.03,0,0.05,0.01,0.08,0.01c-1-0.13-1.98-0.31-2.95-0.58c-0.13-0.04-0.27,0.05-0.3,0.18c-0.04,0.13,0.05,0.27,0.18,0.3
		c0.59,0.16,1.19,0.31,1.79,0.44c0.61,0.13,1.24,0.23,1.86,0.3c1.28,0.16,2.58,0.18,3.86,0.04c1.2-0.13,2.38-0.41,3.5-0.86
		c1.2-0.48,2.31-1.17,3.29-2.01c0.11-0.09,0.13-0.28,0.05-0.4c-0.06-0.1-0.18-0.17-0.3-0.17
		C120.46,122.27,120.4,122.29,120.36,122.32 M117.36,123.99c-0.02,0.01-0.04,0.02-0.06,0.03C117.31,124.01,117.33,124,117.36,123.99
		"/>
	<path d="M120.54,122.3c-0.04,0.07-0.05,0.16-0.03,0.24c0.02,0.09,0.07,0.14,0.14,0.19c0.08,0.06,0.17,0.12,0.25,0.19
		c0.25,0.2,0.47,0.42,0.69,0.65c0.12,0.13,0.34,0.12,0.46,0c0.13-0.13,0.13-0.34,0-0.46c-0.33-0.35-0.7-0.64-1.09-0.92
		c-0.04-0.03-0.09-0.04-0.15-0.04C120.71,122.14,120.6,122.21,120.54,122.3 M120.87,122.88c0.01,0.01,0.03,0.02,0.04,0.03
		C120.89,122.9,120.88,122.89,120.87,122.88"/>
	<path d="M117.52,126.8c-1.15,0.43-2.34,0.71-3.56,0.87c-1.36,0.15-2.74,0.14-4.1-0.05c0,0,0,0,0,0c-0.92-0.14-1.83-0.36-2.71-0.68
		c-0.19-0.06-0.4,0.07-0.45,0.25c-0.06,0.2,0.06,0.38,0.25,0.45c1.75,0.62,3.61,0.91,5.46,0.89c0.89-0.01,1.79-0.12,2.66-0.29
		c0.92-0.18,1.81-0.48,2.66-0.86c0.13-0.06,0.18-0.22,0.15-0.35c-0.03-0.13-0.16-0.24-0.29-0.24
		C117.58,126.79,117.55,126.79,117.52,126.8"/>
	<path d="M127.79,95.25c-1.22,0-2.4,0.16-3.52,0.47c-0.66,0.18-1.29,0.41-1.85,0.66c-0.53,0.24-1.05,0.52-1.6,0.86
		c-0.13,0.08-0.17,0.25-0.1,0.37c0.05,0.08,0.14,0.14,0.24,0.14c0.05,0,0.09-0.01,0.13-0.04c0.33-0.22,0.63-0.4,0.92-0.55
		c0.29-0.15,0.59-0.29,0.89-0.42c0.59-0.25,1.27-0.46,1.95-0.62c-0.11,0.57-0.16,1.17-0.17,1.78c0,0.48,0.02,0.85,0.06,1.19
		c0.06,0.48,0.13,0.84,0.23,1.17c0.13,0.4,0.28,0.7,0.45,0.96c0.1,0.16,0.21,0.29,0.34,0.41c0.1,0.1,0.21,0.2,0.34,0.27
		c0.18,0.11,0.34,0.18,0.48,0.23c0.15,0.04,0.31,0.08,0.47,0.1c0.12,0.01,0.24,0.03,0.36,0.03l0.11,0c0.17-0.01,0.29-0.02,0.4-0.06
		c0.3-0.08,0.54-0.2,0.74-0.37c0.23-0.19,0.41-0.41,0.54-0.65c0.27-0.49,0.44-1.06,0.53-1.75c0.08-0.67,0.09-1.39,0.04-2.13
		c-0.04-0.51-0.1-0.96-0.18-1.39c0.3,0.07,0.62,0.13,0.92,0.21c0.43,0.12,0.82,0.25,1.19,0.41c0.25,0.11,0.55,0.25,0.84,0.42
		c0.28,0.16,0.54,0.34,0.8,0.52c0.28,0.22,0.53,0.43,0.75,0.66c0.21,0.21,0.41,0.44,0.6,0.67c0.04,0.05,0.12,0.08,0.18,0.08
		c0.07,0,0.14-0.03,0.19-0.08c0.05-0.05,0.08-0.12,0.08-0.18c0-0.07-0.03-0.13-0.08-0.19c-0.42-0.53-0.9-1-1.42-1.38
		c-0.27-0.2-0.54-0.39-0.84-0.55c-0.29-0.16-0.6-0.31-0.9-0.44c-0.59-0.25-1.22-0.45-1.88-0.58c-0.65-0.12-1.27-0.2-1.86-0.21
		C128.06,95.25,127.93,95.25,127.79,95.25 M127.79,97.53l-0.05-0.04c-0.08-0.1-0.1-0.13-0.12-0.16c-0.03-0.08-0.05-0.17-0.07-0.26
		c-0.02-0.17-0.02-0.33,0-0.5c0.04-0.26,0.11-0.52,0.21-0.8c0.26,0.01,0.48,0.01,0.71,0.03c0,0.23-0.01,0.46-0.04,0.7
		c-0.03,0.22-0.08,0.41-0.15,0.59c-0.04,0.09-0.09,0.17-0.14,0.25c-0.04,0.05-0.07,0.08-0.12,0.12l-0.12,0.07v-0.01l-0.04,0v0.01
		l-0.01-0.01L127.79,97.53z"/>
	<path d="M95.62,95.38c-0.14,0-0.27,0-0.4,0c-0.59,0.02-1.21,0.09-1.86,0.21c-0.65,0.13-1.28,0.32-1.88,0.57
		c-0.3,0.13-0.61,0.28-0.9,0.44c-0.29,0.16-0.57,0.35-0.84,0.55c-0.52,0.39-0.99,0.85-1.42,1.38c-0.05,0.06-0.08,0.11-0.08,0.19
		c0,0.07,0.03,0.13,0.08,0.18c0.05,0.05,0.12,0.08,0.19,0.08c0.06,0,0.14-0.03,0.18-0.08c0.19-0.23,0.39-0.46,0.6-0.67
		c0.22-0.23,0.46-0.44,0.72-0.63c0.3-0.22,0.56-0.39,0.83-0.55c0.29-0.17,0.59-0.31,0.9-0.44c0.32-0.13,0.71-0.26,1.14-0.38
		c0.3-0.08,0.62-0.14,0.93-0.2c-0.09,0.43-0.15,0.88-0.18,1.38c-0.06,0.75-0.05,1.47,0.03,2.13c0.08,0.69,0.26,1.27,0.53,1.75
		c0.13,0.24,0.32,0.46,0.54,0.65c0.2,0.16,0.44,0.28,0.74,0.37c0.11,0.03,0.23,0.04,0.35,0.05l0.16,0.01c0.12,0,0.24-0.01,0.36-0.03
		c0.16-0.02,0.31-0.05,0.47-0.1c0.15-0.04,0.3-0.12,0.48-0.23c0.13-0.08,0.23-0.17,0.34-0.27c0.13-0.11,0.24-0.25,0.34-0.41
		c0.17-0.26,0.32-0.57,0.45-0.96c0.1-0.33,0.18-0.69,0.23-1.17c0.04-0.34,0.06-0.71,0.06-1.19c0-0.61-0.06-1.21-0.16-1.8
		c0.69,0.18,1.36,0.4,2.01,0.66c0.24,0.11,0.54,0.24,0.83,0.39c0.3,0.15,0.6,0.33,0.92,0.55c0.04,0.03,0.08,0.04,0.13,0.04
		c0.1,0,0.2-0.05,0.24-0.14c0.08-0.13,0.03-0.29-0.1-0.37c-0.55-0.34-1.08-0.62-1.6-0.86c-0.57-0.25-1.19-0.47-1.85-0.66
		C98,95.54,96.82,95.38,95.62,95.38 M96.47,96.84c0.05-0.28,0.13-0.57,0.26-0.88c0.03,0,0.06,0,0.09,0c0.15,0,0.29,0.02,0.44,0.04
		c0.04,0.24,0.03,0.46,0.01,0.7c-0.05,0.35-0.11,0.6-0.2,0.82c-0.03,0.07-0.08,0.17-0.15,0.26c-0.02,0.03-0.05,0.06-0.08,0.08
		l-0.08,0.06l-0.02-0.01l-0.09-0.05l-0.06-0.09c-0.08-0.17-0.1-0.27-0.12-0.38C96.45,97.21,96.45,97.03,96.47,96.84L96.47,96.84z"/>
	<path d="M98.82,84.12c-0.39,0-0.77,0-1.16,0.01c-1.82,0.03-3.43,0.15-4.94,0.34c-0.85,0.11-1.59,0.24-2.25,0.39
		c-0.68,0.15-1.31,0.34-1.88,0.57c-0.48,0.2-0.85,0.39-1.17,0.62c-0.33,0.23-0.6,0.5-0.81,0.81c-0.18,0.27-0.29,0.61-0.3,0.99
		c-0.01,0.15,0.01,0.33,0.06,0.52c0.01,0.08,0.02,0.16,0.03,0.24c0,0,0.04,0.17,0.04,0.17c0.03,0.11,0.06,0.22,0.11,0.33
		c0.01,0.04,0.03,0.07,0.06,0.1c0.02,0.09,0.08,0.16,0.16,0.21c0.05,0.03,0.1,0.04,0.16,0.04c0.03,0,0.07,0,0.11-0.01
		c0.34-0.05,0.68-0.11,1.03-0.17l0.82-0.14c0.58-0.09,1.15-0.18,1.73-0.26l0,0c1.19-0.17,2.29-0.29,3.37-0.39
		c1.14-0.1,2.31-0.17,3.59-0.21c0.58-0.02,1.16-0.03,1.73-0.03c1.9,0,3.64,0.1,5.33,0.3l0.16,0.02c0.07,0.01,0.14,0.02,0.2,0.03
		l0.14,0.01c0.12,0,0.23-0.08,0.26-0.2c0.07-0.27,0.13-0.55,0.17-0.84c0.04-0.31,0.06-0.62,0.06-0.93c0-0.3-0.03-0.61-0.09-0.93
		c-0.03-0.17-0.07-0.34-0.11-0.5c-0.04-0.16-0.1-0.32-0.15-0.47c-0.04-0.1-0.09-0.16-0.16-0.18c-0.04-0.04-0.08-0.06-0.12-0.07
		c-0.38-0.07-0.75-0.11-1.13-0.14c-0.56-0.05-1.12-0.09-1.68-0.12C101.08,84.15,99.95,84.12,98.82,84.12"/>
	<path d="M124.68,83.91c0.39,0,0.77,0,1.16,0.01c1.82,0.03,3.44,0.15,4.94,0.34c0.85,0.11,1.59,0.24,2.25,0.39
		c0.68,0.15,1.31,0.34,1.88,0.57c0.48,0.19,0.85,0.39,1.17,0.62c0.33,0.23,0.6,0.5,0.81,0.81c0.18,0.27,0.29,0.61,0.3,0.99
		c0.01,0.15-0.01,0.33-0.06,0.52c-0.01,0.08-0.02,0.16-0.03,0.24c0,0-0.04,0.17-0.04,0.17c-0.03,0.11-0.06,0.22-0.11,0.33
		c-0.02,0.04-0.04,0.07-0.06,0.1c-0.02,0.09-0.08,0.16-0.16,0.21c-0.05,0.03-0.1,0.04-0.16,0.04c-0.03,0-0.07,0-0.11-0.01
		c-0.34-0.05-0.68-0.11-1.03-0.17l-0.82-0.14c-0.58-0.09-1.15-0.18-1.73-0.26v0c-1.19-0.17-2.29-0.29-3.37-0.39
		c-1.14-0.1-2.31-0.17-3.59-0.21c-0.58-0.02-1.16-0.03-1.73-0.03c-1.9,0-3.64,0.1-5.33,0.3l-0.16,0.02
		c-0.07,0.01-0.13,0.02-0.2,0.03l-0.14,0.01c-0.12,0-0.23-0.08-0.26-0.2c-0.07-0.27-0.13-0.55-0.17-0.84
		c-0.04-0.31-0.06-0.62-0.06-0.93c0-0.3,0.03-0.61,0.09-0.93c0.03-0.17,0.07-0.34,0.11-0.5c0.04-0.16,0.1-0.32,0.15-0.47
		c0.04-0.1,0.09-0.16,0.16-0.18c0.04-0.04,0.08-0.06,0.12-0.07c0.38-0.07,0.75-0.11,1.13-0.14c0.56-0.05,1.12-0.09,1.68-0.12
		C122.42,83.94,123.55,83.91,124.68,83.91"/>
	<path d="M94.31,89.44c-1.36,0.17-2.66,0.62-3.86,1.29c-0.57,0.32-1.1,0.71-1.61,1.13c-0.57,0.47-1.07,1.02-1.53,1.61
		c-0.9,1.16-1.53,2.5-1.89,3.93c-0.18,0.71-0.26,1.44-0.29,2.16c-0.03,0.79,0.05,1.57,0.18,2.33c0.25,1.43,0.87,2.8,1.68,4
		c0.8,1.18,1.86,2.16,3.05,2.93c0.6,0.38,1.25,0.68,1.91,0.94c0.73,0.29,1.51,0.47,2.29,0.58c1.43,0.2,2.89,0.08,4.28-0.29
		c0.63-0.17,1.24-0.42,1.83-0.7c0.61-0.29,1.18-0.67,1.71-1.08c0.56-0.44,1.07-0.92,1.54-1.45c0.48-0.55,0.9-1.16,1.26-1.8
		c0.32-0.56,0.57-1.16,0.77-1.77c0.04-0.1,0.07-0.21,0.1-0.31c0.18-0.58,0.29-1.17,0.37-1.77c0.04-0.34,0.07-0.69,0.08-1.04
		c0.02-0.43-0.01-0.87-0.05-1.3c-0.27-2.88-1.81-5.58-4.11-7.32c-0.54-0.41-1.11-0.76-1.71-1.06c-0.6-0.3-1.24-0.54-1.88-0.72
		c-0.65-0.18-1.32-0.29-1.99-0.34c-0.25-0.02-0.51-0.03-0.76-0.03C95.22,89.35,94.76,89.38,94.31,89.44 M95.64,90.37
		c0.41,0,0.82,0.03,1.22,0.08c0,0,0,0,0,0c0.84,0.12,1.66,0.34,2.46,0.65c0.77,0.33,1.48,0.75,2.15,1.25
		c0.32,0.25,0.62,0.52,0.91,0.8c0.33,0.32,0.63,0.67,0.91,1.04c0,0,0,0,0-0.01c0.22,0.3,0.43,0.62,0.63,0.95
		c0.22,0.37,0.41,0.76,0.58,1.15c0.15,0.39,0.29,0.78,0.4,1.18c0.11,0.39,0.18,0.79,0.25,1.2c0.11,0.86,0.11,1.72,0.01,2.57
		c-0.1,0.7-0.27,1.39-0.51,2.05c-0.05,0.13-0.1,0.25-0.15,0.37c-0.34,0.78-0.77,1.51-1.28,2.18l0.07-0.09
		c-0.54,0.68-1.14,1.28-1.82,1.81c-0.65,0.48-1.34,0.88-2.08,1.21c-0.36,0.15-0.72,0.28-1.09,0.39c-0.45,0.14-0.92,0.23-1.39,0.3
		c-0.42,0.05-0.84,0.08-1.27,0.09c-0.45,0-0.89-0.03-1.34-0.09c-0.42-0.06-0.84-0.15-1.25-0.26c-0.37-0.1-0.74-0.23-1.1-0.38
		c-0.39-0.17-0.77-0.36-1.15-0.57c-0.38-0.22-0.74-0.47-1.09-0.73c0.03,0.02,0.06,0.04,0.09,0.07c-0.68-0.53-1.28-1.13-1.81-1.8
		c0.02,0.03,0.04,0.06,0.07,0.09c-0.26-0.34-0.5-0.69-0.72-1.05c-0.25-0.4-0.45-0.83-0.63-1.26l0.05,0.1
		c-0.15-0.38-0.29-0.76-0.39-1.15c-0.13-0.43-0.21-0.86-0.27-1.3c-0.05-0.43-0.08-0.86-0.08-1.29c0-0.4,0.03-0.8,0.08-1.2
		c0,0.01,0,0.02,0,0.03c0-0.01,0-0.03,0.01-0.04l0.01-0.08L86.1,98.7c0.06-0.42,0.14-0.83,0.25-1.24c0.11-0.41,0.25-0.81,0.41-1.2
		c0.15-0.34,0.31-0.67,0.49-0.99c0.23-0.42,0.5-0.82,0.8-1.2c0.51-0.64,1.08-1.21,1.72-1.71c0.33-0.25,0.67-0.48,1.03-0.69
		c0.35-0.21,0.72-0.39,1.1-0.55c0,0,0,0-0.01,0c0.41-0.17,0.84-0.31,1.27-0.43c0.42-0.11,0.84-0.19,1.27-0.25
		C94.83,90.4,95.23,90.37,95.64,90.37 M94.37,90.45c-0.02,0-0.04,0-0.06,0.01C94.33,90.45,94.35,90.45,94.37,90.45 M96.92,90.45
		c0.02,0,0.05,0.01,0.07,0.01C96.97,90.46,96.94,90.45,96.92,90.45 M101.41,92.3c0.02,0.01,0.03,0.03,0.05,0.04
		C101.44,92.33,101.43,92.32,101.41,92.3 M89.77,92.33c-0.01,0.01-0.02,0.01-0.03,0.02C89.75,92.35,89.75,92.34,89.77,92.33
		L89.77,92.33z M89.76,92.36c-0.02,0.01-0.04,0.03-0.06,0.04C89.72,92.39,89.74,92.38,89.76,92.36 M104.46,96.23
		c0,0.01,0.01,0.02,0.01,0.03C104.47,96.26,104.47,96.25,104.46,96.23 M86.76,96.26c-0.01,0.03-0.03,0.06-0.04,0.09
		C86.74,96.31,86.75,96.29,86.76,96.26 M105.16,98.72c0,0,0,0.01,0,0.01c0,0,0,0.01,0,0.01C105.16,98.74,105.16,98.73,105.16,98.72
		 M105.14,101.28c0,0.01,0,0.03,0,0.04C105.13,101.3,105.14,101.29,105.14,101.28 M86.75,103.69c0.01,0.02,0.02,0.04,0.02,0.05
		l-0.01-0.03C86.76,103.71,86.76,103.7,86.75,103.69 M91.92,108.82c0,0,0.01,0,0.02,0.01C91.94,108.82,91.93,108.82,91.92,108.82
		 M94.36,109.48c0,0,0.01,0,0.01,0C94.37,109.48,94.36,109.48,94.36,109.48L94.36,109.48z M86.1,98.71c0,0,0,0.01,0,0.01
		c0-0.01,0-0.02,0-0.03L86.1,98.71z"/>
	<path d="M125.74,90c-0.69,0.09-1.37,0.27-2.02,0.51c-1.34,0.48-2.55,1.24-3.6,2.19c-0.53,0.47-0.98,1.02-1.4,1.58
		c-0.46,0.62-0.83,1.3-1.14,2.01c-0.58,1.33-0.86,2.76-0.87,4.2c0,0.7,0.08,1.4,0.21,2.09c0.14,0.75,0.39,1.46,0.69,2.16
		c0.54,1.28,1.39,2.43,2.38,3.4c0.48,0.46,1,0.86,1.55,1.22c0.64,0.42,1.34,0.75,2.05,1.02c0.66,0.26,1.36,0.43,2.07,0.54
		c0.75,0.12,1.5,0.15,2.26,0.11c0.72-0.04,1.44-0.16,2.14-0.34c0.71-0.18,1.39-0.46,2.03-0.78c1.24-0.61,2.34-1.52,3.24-2.57
		c0.59-0.7,1.09-1.48,1.48-2.31c0.01-0.03,0.03-0.05,0.04-0.08c0.61-1.27,0.92-2.65,1-4.05c0.04-0.7-0.02-1.39-0.11-2.08
		c-0.11-0.77-0.32-1.53-0.6-2.26c-0.23-0.61-0.53-1.18-0.87-1.73c-0.35-0.57-0.77-1.1-1.22-1.59c-0.41-0.46-0.88-0.86-1.38-1.23
		c-0.55-0.42-1.14-0.78-1.77-1.08c-1.3-0.63-2.71-0.97-4.14-1.05c-0.15-0.01-0.3-0.01-0.46-0.01
		C126.79,89.88,126.26,89.93,125.74,90 M127.26,91c0.42,0,0.84,0.03,1.26,0.08c0.41,0.06,0.82,0.14,1.22,0.25
		c0.41,0.1,0.81,0.25,1.2,0.41c0.77,0.34,1.48,0.76,2.14,1.27c0.63,0.51,1.2,1.08,1.7,1.72c0.53,0.71,0.96,1.47,1.31,2.28
		c0.28,0.73,0.49,1.48,0.61,2.26c0.11,0.86,0.11,1.72,0,2.58c-0.13,0.83-0.35,1.64-0.66,2.42c0,0,0,0,0,0
		c-0.16,0.35-0.33,0.7-0.53,1.04c-0.2,0.35-0.43,0.68-0.68,1c-0.52,0.66-1.11,1.25-1.77,1.77c-0.34,0.26-0.7,0.49-1.07,0.71
		c-0.38,0.22-0.77,0.41-1.17,0.58c-0.34,0.14-0.69,0.26-1.04,0.36c-0.46,0.14-0.94,0.22-1.41,0.29c0.04-0.01,0.09-0.01,0.13-0.02
		c-0.42,0.05-0.83,0.08-1.25,0.08c-0.4,0-0.8-0.02-1.2-0.06c-0.86-0.12-1.69-0.34-2.49-0.66c-0.37-0.16-0.73-0.34-1.08-0.54
		c-0.4-0.23-0.78-0.49-1.15-0.77c0.04,0.02,0.07,0.05,0.1,0.07c-0.66-0.52-1.25-1.11-1.77-1.76c-0.5-0.66-0.92-1.38-1.25-2.13
		c-0.15-0.38-0.28-0.75-0.39-1.14c-0.12-0.42-0.2-0.85-0.26-1.29c-0.1-0.82-0.1-1.64-0.01-2.47c0.06-0.45,0.15-0.88,0.26-1.32
		c0.12-0.43,0.27-0.85,0.44-1.26c0.33-0.73,0.74-1.41,1.22-2.05c0.51-0.64,1.09-1.22,1.73-1.73c0.66-0.49,1.38-0.91,2.14-1.24
		c0.78-0.31,1.57-0.53,2.4-0.65c-0.02,0-0.04,0-0.06,0.01c0.02,0,0.04,0,0.06-0.01c0.03,0,0.06-0.01,0.08-0.01
		c-0.03,0-0.05,0.01-0.08,0.01C126.39,91.02,126.82,91,127.26,91 M117.76,99.23c0,0.01,0,0.02,0,0.03
		C117.76,99.25,117.76,99.24,117.76,99.23 M117.71,99.29l0,0.03C117.7,99.32,117.7,99.31,117.71,99.29
		C117.71,99.3,117.71,99.3,117.71,99.29 M117.71,101.82c0,0.02,0,0.03,0.01,0.05c0,0,0-0.01,0-0.01
		C117.72,101.85,117.72,101.83,117.71,101.82 M117.77,101.85c0,0.02,0,0.04,0.01,0.06C117.77,101.89,117.77,101.87,117.77,101.85
		 M118.37,104.1c0.02,0.04,0.03,0.08,0.05,0.11C118.4,104.18,118.39,104.14,118.37,104.1 M130.93,109.33l-0.04,0.02
		C130.9,109.34,130.92,109.33,130.93,109.33 M125.97,110c0.01,0,0.02,0,0.04,0C126,110,125.98,110,125.97,110 M128.48,110.06
		C128.48,110.06,128.47,110.06,128.48,110.06c-0.01,0-0.02,0-0.03,0L128.48,110.06z M125.96,110.06c0.01,0,0.01,0,0.02,0
		C125.97,110.07,125.96,110.06,125.96,110.06L125.96,110.06z M125.95,91.07C125.94,91.07,125.94,91.07,125.95,91.07
		C125.94,91.07,125.95,91.07,125.95,91.07C125.95,91.07,125.95,91.07,125.95,91.07"/>
	<path d="M108.57,97.21c-0.98,0.19-1.94,0.54-2.79,1.07c-0.22,0.14-0.29,0.43-0.15,0.65c0.14,0.22,0.43,0.29,0.65,0.15
		c0.21-0.13,0.43-0.25,0.65-0.36c0.73-0.33,1.5-0.55,2.29-0.69c-0.04,0.01-0.08,0.02-0.12,0.02c1-0.17,2.01-0.21,3.01-0.13
		c0.81,0.08,1.61,0.25,2.38,0.51c0.55,0.21,1.06,0.46,1.54,0.8c0.25,0.2,0.48,0.41,0.71,0.64c0.2,0.21,0.56,0.18,0.75-0.02
		c0.2-0.21,0.18-0.55-0.02-0.75c-0.68-0.67-1.55-1.14-2.43-1.48c-1.03-0.39-2.09-0.57-3.18-0.65c-0.26-0.02-0.52-0.03-0.78-0.03
		C110.24,96.95,109.4,97.05,108.57,97.21"/>
	<path d="M83.59,96.71c-0.1,0.02-0.18,0.07-0.23,0.15c-0.11,0.16-0.07,0.39,0.09,0.5c0.14,0.09,0.28,0.18,0.42,0.27
		c0.02,0.11,0.1,0.21,0.21,0.26c0.27,0.11,0.54,0.21,0.82,0.31c0.07,0.04,0.15,0.08,0.22,0.12c0.1,0.05,0.19,0.09,0.31,0.07
		c0.11-0.02,0.2-0.08,0.26-0.17c0.06-0.09,0.09-0.2,0.06-0.3c-0.03-0.15-0.13-0.25-0.26-0.31c-0.28-0.13-0.55-0.25-0.83-0.39
		c-0.01-0.01-0.02-0.01-0.04-0.02c0,0,0,0,0,0c0,0-0.01,0-0.01-0.01c-0.25-0.14-0.5-0.28-0.76-0.42c-0.07-0.04-0.13-0.06-0.21-0.06
		C83.64,96.7,83.62,96.7,83.59,96.71"/>
	<path d="M145.62,93.79c-0.33,0.14-0.66,0.29-0.98,0.44c-0.38,0.18-0.76,0.38-1.14,0.57c-0.76,0.41-1.51,0.84-2.24,1.3
		c-0.71,0.45-1.41,0.91-2.1,1.39c-0.69,0.48-1.37,0.98-2.03,1.5c-0.14,0.11-0.17,0.34-0.09,0.49c0.09,0.19,0.36,0.3,0.55,0.18
		c0.61-0.36,1.22-0.71,1.83-1.07c0.66-0.39,1.33-0.79,1.99-1.19c1.32-0.8,2.63-1.63,3.92-2.48c0.1-0.07,0.17-0.17,0.16-0.29
		c0.14-0.08,0.29-0.15,0.44-0.23c0.17-0.09,0.24-0.3,0.16-0.47c-0.06-0.13-0.18-0.19-0.31-0.19
		C145.73,93.75,145.67,93.76,145.62,93.79 M139.88,98.03c-0.02,0.01-0.03,0.02-0.05,0.03l0.03-0.02
		C139.86,98.04,139.87,98.03,139.88,98.03"/>
	<path d="M145.46,93.96c-0.22,0.16-0.45,0.33-0.68,0.48c0.02-0.01,0.04-0.03,0.06-0.04c-1.15,0.77-2.37,1.43-3.62,2.02
		c-1.3,0.61-2.64,1.14-3.94,1.74c-0.23,0.11-0.32,0.41-0.21,0.63c0.05,0.11,0.16,0.2,0.27,0.24c0.12,0.04,0.23,0.02,0.35-0.03
		c1.43-0.6,2.81-1.31,4.16-2.08c1.37-0.78,2.7-1.61,3.96-2.56c0.12-0.09,0.11-0.28,0.02-0.38c-0.05-0.06-0.12-0.09-0.19-0.09
		C145.58,93.89,145.51,93.92,145.46,93.96"/>
	<path d="M145.07,93.77c-0.13,0.1-0.27,0.2-0.41,0.29c0.01-0.01,0.02-0.01,0.03-0.02c-1.23,0.83-2.52,1.56-3.84,2.23
		c-0.66,0.34-1.34,0.66-2.01,1c-0.33,0.16-0.66,0.33-0.98,0.51c-0.3,0.16-0.59,0.34-0.87,0.54c-0.06,0.05-0.1,0.11-0.12,0.18
		c-0.03,0.11-0.02,0.22,0.02,0.32c0.08,0.16,0.28,0.27,0.46,0.22c0.75-0.2,1.45-0.55,2.12-0.91c0.72-0.39,1.4-0.83,2.08-1.27
		c1.32-0.85,2.59-1.79,3.86-2.71c0.11-0.08,0.11-0.27,0.02-0.37c-0.05-0.06-0.12-0.08-0.18-0.08
		C145.19,93.71,145.13,93.73,145.07,93.77 M144.63,94.08c0.01-0.01,0.02-0.02,0.03-0.02C144.65,94.07,144.64,94.08,144.63,94.08"/>
	<path d="M83.22,96.47c-0.09,0.17-0.02,0.37,0.14,0.46c0.71,0.41,1.45,0.77,2.24,1.01c0.18,0.05,0.38-0.08,0.42-0.26
		c0.02-0.09,0.01-0.18-0.04-0.26c-0.05-0.09-0.13-0.13-0.21-0.16c-0.16-0.05-0.32-0.11-0.47-0.17c-0.27-0.11-0.54-0.22-0.8-0.34
		c-0.28-0.13-0.54-0.28-0.81-0.43c-0.05-0.03-0.1-0.04-0.16-0.04C83.4,96.29,83.28,96.36,83.22,96.47 M85.3,97.11
		c0.01,0,0.02,0.01,0.02,0.01C85.32,97.12,85.31,97.12,85.3,97.11"/>
	<path d="M83.3,97.31c-0.07,0.13-0.02,0.3,0.11,0.37c0.63,0.33,1.26,0.68,1.91,0.97c0.13,0.06,0.29,0.03,0.36-0.11
		c0.07-0.13,0.02-0.29-0.11-0.36c-0.63-0.34-1.27-0.65-1.91-0.98c-0.04-0.02-0.09-0.03-0.13-0.03
		C83.44,97.17,83.34,97.22,83.3,97.31"/>
	<path d="M72.15,152.29c-0.66,1.05-1.28,2.12-1.86,3.21c-0.18,0.34-0.09,0.77,0.25,0.97c0.33,0.19,0.78,0.08,0.97-0.25
		c0.61-1.08,1.25-2.13,1.92-3.18c0.22-0.34,0.07-0.82-0.27-1.02c-0.12-0.07-0.24-0.1-0.37-0.1
		C72.55,151.92,72.3,152.06,72.15,152.29"/>
	<path d="M77.21,151.05c-0.2,0.34-0.07,0.75,0.25,0.96c1.09,0.7,2.16,1.43,3.18,2.21c-0.02-0.01-0.03-0.02-0.04-0.04
		c0.02,0.01,0.03,0.03,0.05,0.04c0.01,0.01,0.02,0.02,0.03,0.02c-0.01-0.01-0.02-0.02-0.03-0.02c0.06,0.05,0.13,0.1,0.19,0.15
		c0.15,0.11,0.29,0.2,0.48,0.2c0.18,0,0.36-0.07,0.48-0.2c0.25-0.25,0.29-0.73,0-0.96c-1.14-0.96-2.37-1.82-3.63-2.62
		c-0.1-0.06-0.22-0.1-0.34-0.1C77.59,150.7,77.34,150.83,77.21,151.05 M80.65,154.22C80.65,154.22,80.65,154.22,80.65,154.22
		C80.65,154.22,80.65,154.22,80.65,154.22C80.65,154.22,80.65,154.22,80.65,154.22"/>
	<path d="M86.3,153.2c-0.82,1.29-1.72,2.52-2.61,3.77c-0.16,0.22-0.04,0.55,0.18,0.67c0.11,0.07,0.25,0.08,0.38,0.05
		c0.13-0.04,0.21-0.12,0.29-0.22c0.89-1.24,1.8-2.47,2.62-3.76c0.15-0.23,0.05-0.54-0.17-0.68c-0.08-0.05-0.16-0.07-0.25-0.07
		C86.56,152.95,86.4,153.04,86.3,153.2"/>
	<path d="M91.22,149.83c-0.14,0.14-0.23,0.34-0.23,0.55c0,0.23,0.09,0.38,0.23,0.55c0.97,1.21,2.09,2.28,3.21,3.34
		c0.31,0.29,0.79,0.3,1.09,0c0.3-0.3,0.3-0.8,0-1.1c-1.11-1.08-2.23-2.14-3.2-3.34c-0.12-0.15-0.36-0.23-0.55-0.23
		C91.57,149.6,91.37,149.68,91.22,149.83"/>
	<path d="M96.72,158.74c-0.72,1.09-1.47,2.15-2.25,3.2c-0.19,0.25-0.1,0.66,0.11,0.87c0.13,0.13,0.32,0.21,0.51,0.21
		c0.17,0,0.4-0.07,0.51-0.21c0.85-1.07,1.65-2.18,2.4-3.32c0.22-0.34,0.07-0.82-0.27-1.01c-0.12-0.07-0.24-0.1-0.37-0.1
		C97.11,158.37,96.87,158.51,96.72,158.74"/>
	<path d="M87.69,161.89c-0.26,0.15-0.4,0.55-0.21,0.81c0.87,1.23,1.82,2.39,2.86,3.47c0.23,0.24,0.62,0.23,0.85,0
		c0.23-0.23,0.22-0.61,0-0.85c-0.73-0.77-1.43-1.56-2.08-2.4c-0.21-0.27-0.41-0.55-0.61-0.82c-0.09-0.13-0.2-0.23-0.36-0.27
		c-0.05-0.01-0.1-0.02-0.16-0.02C87.89,161.81,87.78,161.84,87.69,161.89 M89.06,162.86c0.01,0.01,0.02,0.02,0.02,0.03
		C89.07,162.88,89.07,162.87,89.06,162.86"/>
	<path d="M79.57,161.79c-0.73,1.37-1.52,2.7-2.31,4.02c-0.15,0.25-0.05,0.59,0.2,0.73c0.25,0.15,0.58,0.06,0.73-0.19
		c0.79-1.32,1.56-2.67,2.28-4.04c0.13-0.25,0.07-0.57-0.19-0.71c-0.08-0.04-0.17-0.07-0.26-0.07
		C79.83,161.53,79.66,161.62,79.57,161.79"/>
	<path d="M68.93,161.53c-0.19,0.19-0.2,0.52,0,0.71c0.88,0.82,1.73,1.67,2.57,2.54c0.2,0.2,0.54,0.2,0.74,0c0.2-0.2,0.2-0.54,0-0.74
		c-0.84-0.86-1.71-1.7-2.6-2.51c-0.1-0.09-0.23-0.14-0.36-0.14C69.16,161.38,69.03,161.43,68.93,161.53"/>
	<path d="M66.93,169.76c-0.12,0.13-0.19,0.29-0.19,0.46c0,0.18,0.07,0.32,0.19,0.46c1.02,1.22,2.02,2.45,3.05,3.65
		c0.22,0.26,0.65,0.23,0.88,0c0.12-0.11,0.18-0.27,0.18-0.44c0-0.18-0.07-0.3-0.18-0.44c-1.01-1.23-1.99-2.48-3-3.7
		c-0.11-0.13-0.27-0.19-0.44-0.19C67.23,169.56,67.05,169.63,66.93,169.76"/>
	<path d="M76.2,171.4c-0.7,1.5-1.47,2.97-2.16,4.48c-0.06,0.13-0.09,0.25-0.05,0.39c0.04,0.13,0.12,0.24,0.23,0.3
		c0.12,0.07,0.26,0.09,0.39,0.05c0.08-0.02,0.16-0.07,0.23-0.13c0.06-0.07,0.11-0.14,0.13-0.23c0.1-0.23,0.19-0.47,0.29-0.7
		c0.54-1.25,1.16-2.47,1.72-3.71c0.05-0.12,0.08-0.22,0.05-0.35c-0.04-0.11-0.11-0.21-0.21-0.27c-0.07-0.04-0.15-0.06-0.23-0.06
		C76.43,171.18,76.27,171.25,76.2,171.4 M75.26,175.57c-0.01,0.02-0.02,0.04-0.02,0.06C75.25,175.61,75.25,175.59,75.26,175.57"/>
	<path d="M82.69,169.42c-0.24,0.25-0.22,0.62,0,0.87c1.18,1.3,2.27,2.69,3.41,4.04c0.23,0.27,0.67,0.23,0.9,0
		c0.12-0.12,0.18-0.28,0.18-0.45c0-0.18-0.07-0.32-0.18-0.45c-1.13-1.35-2.25-2.71-3.44-4c-0.11-0.12-0.27-0.18-0.43-0.18
		C82.97,169.25,82.81,169.31,82.69,169.42"/>
	<path d="M92.7,172.25c-0.96,1.61-1.82,3.27-2.76,4.89c-0.16,0.27-0.06,0.63,0.21,0.79c0.26,0.15,0.64,0.07,0.79-0.21
		c0.87-1.66,1.73-3.32,2.68-4.93c0.15-0.25,0.06-0.59-0.19-0.73c-0.08-0.05-0.18-0.07-0.27-0.07
		C92.98,171.98,92.8,172.08,92.7,172.25"/>
	<path d="M99.28,169.11c-0.24,0.24-0.25,0.66,0,0.9c1.48,1.38,3.03,2.67,4.64,3.89c0.1,0.06,0.2,0.09,0.32,0.09
		c0.17,0,0.33-0.07,0.45-0.18c0.12-0.12,0.18-0.28,0.18-0.45c0-0.15-0.06-0.35-0.18-0.45c-1.55-1.2-3.07-2.46-4.5-3.8
		c-0.13-0.12-0.29-0.18-0.46-0.18C99.57,168.93,99.41,168.99,99.28,169.11"/>
	<path d="M110.23,167.32c-0.19,0.05-0.31,0.17-0.43,0.33c-0.64,0.87-1.21,1.79-1.71,2.75c-0.18,0.34-0.09,0.75,0.25,0.95
		c0.32,0.19,0.77,0.08,0.95-0.25c0.52-0.95,1.1-1.86,1.74-2.73c0.11-0.14,0.12-0.38,0.07-0.55c-0.05-0.18-0.17-0.33-0.32-0.43
		c-0.11-0.07-0.24-0.1-0.36-0.1C110.36,167.29,110.29,167.3,110.23,167.32"/>
	<path d="M105.58,178c-0.14,0.23-0.05,0.51,0.17,0.66c0.56,0.37,1.09,0.77,1.63,1.18c-0.04-0.03-0.07-0.05-0.11-0.08
		c0.58,0.45,1.14,0.91,1.7,1.38c0.12,0.1,0.24,0.17,0.4,0.17c0.15,0,0.29-0.06,0.4-0.17c0.11-0.1,0.17-0.25,0.17-0.39
		c0-0.14-0.06-0.31-0.17-0.4c-1.12-0.91-2.32-1.73-3.53-2.51c-0.07-0.05-0.15-0.07-0.23-0.07
		C105.84,177.76,105.67,177.85,105.58,178"/>
	<path d="M101.69,178.45c-1.24,1.21-2.17,2.7-3.03,4.2c-0.14,0.25-0.06,0.57,0.19,0.72c0.25,0.14,0.57,0.05,0.72-0.19
		c0.53-0.89,1.09-1.76,1.72-2.59c0.38-0.47,0.78-0.92,1.21-1.34c0.22-0.22,0.22-0.59,0-0.8c-0.11-0.11-0.25-0.16-0.4-0.16
		C101.95,178.29,101.8,178.34,101.69,178.45"/>
	<path d="M91.04,179.87c-0.21,0.13-0.33,0.45-0.17,0.67c0.8,1.12,1.61,2.23,2.48,3.3c0.14,0.17,0.42,0.18,0.6,0.08
		c0.11-0.07,0.19-0.17,0.23-0.3c0.03-0.11,0.03-0.29-0.05-0.38c-0.31-0.4-0.63-0.8-0.94-1.21c0,0,0,0,0,0
		c-0.02-0.03-0.04-0.05-0.06-0.08c-0.01-0.01-0.01-0.02-0.02-0.02c0,0,0,0,0,0c-0.48-0.62-0.94-1.25-1.4-1.88
		c-0.08-0.11-0.16-0.19-0.29-0.22c-0.04-0.01-0.09-0.02-0.14-0.02C91.19,179.81,91.11,179.83,91.04,179.87 M93.12,181.96
		c0.02,0.03,0.04,0.05,0.06,0.07c-0.02-0.03-0.05-0.06-0.07-0.1C93.11,181.94,93.12,181.95,93.12,181.96"/>
	<path d="M83.54,177.92c-0.46,1.01-1.03,1.95-1.69,2.84c-0.03,0.05-0.07,0.09-0.1,0.14c-0.08,0.1-0.14,0.19-0.14,0.32
		c0,0.12,0.05,0.24,0.14,0.32c0.09,0.08,0.2,0.13,0.32,0.13c0.08,0,0.16-0.02,0.23-0.06c0.07-0.04,0.13-0.1,0.16-0.16
		c0.73-0.96,1.34-1.98,1.84-3.08c0.05-0.11,0.08-0.22,0.05-0.34c-0.03-0.11-0.11-0.21-0.21-0.27c-0.07-0.04-0.15-0.06-0.23-0.06
		C83.77,177.7,83.61,177.77,83.54,177.92"/>
	<path d="M103.29,161.89c-0.09,0.09-0.13,0.2-0.13,0.32c0,0.13,0.05,0.22,0.13,0.32c0.58,0.74,1.24,1.41,1.96,2
		c0.1,0.08,0.19,0.13,0.32,0.13c0.12,0,0.24-0.05,0.32-0.13c0.16-0.16,0.19-0.48,0-0.64c-0.73-0.6-1.38-1.27-1.96-2.01
		c-0.07-0.09-0.21-0.14-0.32-0.14C103.49,161.75,103.38,161.8,103.29,161.89"/>
	<path d="M113.15,174.9c-0.2,0.2-0.19,0.51,0,0.71c0.97,1.03,2.02,1.98,3.16,2.83c0.16,0.13,0.43,0.06,0.57-0.07
		c0.17-0.17,0.2-0.5,0-0.66c-1.06-0.88-2.07-1.8-3.02-2.8c-0.09-0.1-0.22-0.15-0.35-0.15C113.37,174.76,113.24,174.81,113.15,174.9"
		/>
	<path d="M121,168.41c-0.14,0.04-0.23,0.13-0.31,0.24c-0.99,1.38-1.97,2.78-2.91,4.2c-0.16,0.24-0.05,0.59,0.19,0.73
		c0.26,0.15,0.57,0.05,0.73-0.19c0.91-1.44,1.9-2.83,2.89-4.21c0.16-0.23,0.04-0.57-0.19-0.71c-0.08-0.05-0.17-0.07-0.26-0.07
		C121.09,168.39,121.04,168.4,121,168.41"/>
	<path d="M122.4,164.55c-0.2,0.35-0.07,0.79,0.26,1c1.28,0.79,2.54,1.63,3.84,2.38c0.35,0.2,0.81,0.08,1.02-0.27
		c0.2-0.35,0.08-0.8-0.27-1.01c-1.29-0.78-2.57-1.57-3.86-2.36c-0.11-0.07-0.23-0.1-0.36-0.1
		C122.79,164.19,122.54,164.33,122.4,164.55"/>
	<path d="M129.98,159.23c-0.82,1.02-1.55,2.1-2.14,3.27c-0.18,0.34-0.09,0.77,0.25,0.97c0.33,0.19,0.79,0.08,0.97-0.26
		c0.51-0.94,1.09-1.83,1.74-2.68c0,0-0.01,0.01-0.01,0.02c0.08-0.1,0.15-0.19,0.23-0.29c0.13-0.16,0.21-0.31,0.21-0.52
		c0-0.2-0.08-0.38-0.21-0.52s-0.32-0.21-0.52-0.21C130.33,159.02,130.1,159.09,129.98,159.23"/>
	<path d="M135.48,154.61c-0.13,0.04-0.25,0.13-0.32,0.25c-0.07,0.13-0.09,0.28-0.05,0.42c0.04,0.14,0.13,0.23,0.25,0.32
		c1.33,0.98,2.68,1.96,4.04,2.89c0.25,0.17,0.61,0.05,0.76-0.2c0.16-0.28,0.05-0.59-0.2-0.76c-1.36-0.94-2.71-1.89-4.05-2.87
		c-0.07-0.05-0.17-0.07-0.26-0.07C135.58,154.59,135.53,154.59,135.48,154.61"/>
	<path d="M142.23,151.43c-0.51,0.46-0.98,0.94-1.43,1.46c-0.48,0.56-0.94,1.16-1.32,1.8c-0.21,0.34-0.08,0.81,0.27,1.01
		c0.35,0.21,0.8,0.08,1.01-0.26c0.3-0.49,0.6-0.96,0.95-1.42c-0.04,0.05-0.07,0.09-0.11,0.14c0.49-0.63,1.04-1.21,1.63-1.75
		c0.28-0.25,0.26-0.72,0-0.98c-0.13-0.14-0.3-0.2-0.48-0.2C142.55,151.23,142.37,151.3,142.23,151.43"/>
	<path d="M136.86,148.58c-0.21,0.35-0.09,0.85,0.28,1.05c1.01,0.55,1.98,1.16,2.9,1.86c0.26,0.2,0.69,0.1,0.9-0.12
		c0.14-0.14,0.22-0.33,0.22-0.53c0-0.18-0.07-0.41-0.22-0.53c-0.96-0.75-1.96-1.43-3.03-2.01c-0.12-0.07-0.26-0.1-0.39-0.1
		C137.26,148.2,137.01,148.33,136.86,148.58"/>
	<path d="M148.24,147.31c-0.75,0.85-1.43,1.76-2.02,2.73c-0.18,0.29-0.07,0.69,0.22,0.86c0.31,0.18,0.67,0.06,0.86-0.23
		c0.33-0.51,0.68-1.01,1.04-1.5c0.25-0.32,0.52-0.64,0.79-0.96c0.23-0.26,0.26-0.64,0-0.9c-0.12-0.12-0.29-0.19-0.46-0.19
		C148.52,147.12,148.35,147.18,148.24,147.31 M148.44,149.04c-0.01,0.02-0.03,0.03-0.04,0.05
		C148.41,149.08,148.43,149.06,148.44,149.04"/>
	<path d="M152.04,149.15c-0.06,0.1-0.07,0.23-0.04,0.34c0.03,0.12,0.1,0.2,0.2,0.27c1.07,0.76,2.26,1.34,3.52,1.7
		c0.25,0.07,0.51-0.09,0.58-0.33c0.07-0.25-0.08-0.51-0.33-0.58c-0.48-0.13-0.95-0.3-1.42-0.49c-0.67-0.3-1.3-0.66-1.9-1.08
		c-0.06-0.04-0.14-0.06-0.21-0.06C152.29,148.93,152.12,149.02,152.04,149.15 M154.5,150.05c0.01,0,0.02,0.01,0.04,0.01
		C154.52,150.06,154.51,150.05,154.5,150.05"/>
	<path d="M151.37,152.11c-1.21,1.46-2.38,2.95-3.42,4.54c-0.19,0.29-0.06,0.71,0.23,0.88c0.31,0.18,0.7,0.07,0.88-0.23
		c0.61-0.99,1.29-1.93,2-2.85c0.39-0.49,0.78-0.98,1.18-1.47c0.11-0.13,0.18-0.26,0.18-0.44c0-0.16-0.07-0.32-0.18-0.44
		c-0.12-0.12-0.29-0.18-0.46-0.18C151.63,151.93,151.47,151.98,151.37,152.11 M151,154.54c-0.01,0.01-0.02,0.02-0.03,0.03
		C150.99,154.56,151,154.54,151,154.54"/>
	<path d="M154.65,154.76c-0.14,0.14-0.21,0.32-0.21,0.52c0,0.21,0.09,0.36,0.21,0.52c0.87,1.12,1.77,2.22,2.76,3.24
		c0.27,0.28,0.73,0.27,1.01,0c0.29-0.29,0.25-0.72,0-1.01c-0.94-1.07-1.86-2.14-2.74-3.27c-0.11-0.14-0.34-0.21-0.52-0.21
		C154.97,154.54,154.78,154.62,154.65,154.76"/>
	<path d="M158.5,162.15c-0.73,1.06-1.47,2.11-2.21,3.17c-0.16,0.22-0.04,0.55,0.18,0.68c0.25,0.14,0.53,0.04,0.68-0.18
		c0.72-1.06,1.45-2.13,2.19-3.18c0.15-0.21,0.04-0.53-0.17-0.66c-0.08-0.05-0.16-0.07-0.24-0.07
		C158.76,161.91,158.6,162,158.5,162.15"/>
	<path d="M149.67,160.69c-0.26,0.26-0.25,0.68,0,0.94c1.03,1.05,2.19,1.94,3.48,2.63c0.3,0.16,0.68,0.08,0.86-0.22
		c0.17-0.29,0.07-0.69-0.23-0.86c-0.54-0.31-1.05-0.65-1.55-1.03c-0.58-0.45-1.12-0.94-1.64-1.46c-0.13-0.13-0.3-0.2-0.47-0.2
		C149.97,160.5,149.8,160.56,149.67,160.69"/>
	<path d="M144.73,160.76c-0.76,1.21-1.54,2.4-2.35,3.57c-0.14,0.2-0.04,0.5,0.16,0.61c0.1,0.06,0.23,0.08,0.34,0.05
		c0.12-0.04,0.2-0.11,0.27-0.21c0.82-1.16,1.59-2.37,2.35-3.57c0.13-0.2,0.05-0.49-0.16-0.61c-0.07-0.04-0.14-0.06-0.22-0.06
		C144.96,160.54,144.81,160.62,144.73,160.76"/>
	<path d="M135.2,162.34c-0.15,0.04-0.28,0.14-0.36,0.28c-0.08,0.14-0.1,0.31-0.06,0.46c0.04,0.16,0.15,0.26,0.27,0.36
		c1.08,0.8,2.19,1.55,3.34,2.25c0.28,0.17,0.66,0.06,0.82-0.21c0.17-0.29,0.06-0.64-0.21-0.82c-1.14-0.71-2.25-1.46-3.34-2.26
		c-0.08-0.06-0.19-0.08-0.3-0.08C135.31,162.32,135.25,162.33,135.2,162.34"/>
	<path d="M133.96,167.62c-0.7,1.06-1.38,2.13-2.11,3.16c-0.19,0.27-0.05,0.68,0.22,0.83c0.3,0.18,0.65,0.06,0.83-0.22
		c0.69-1.07,1.41-2.11,2.11-3.16c0.18-0.28,0.05-0.67-0.21-0.83c-0.1-0.06-0.2-0.08-0.3-0.08
		C134.28,167.32,134.08,167.43,133.96,167.62"/>
	<path d="M124.52,172.25c-0.22,0.22-0.25,0.64,0,0.86c1.07,0.91,2.17,1.78,3.28,2.64c0.13,0.1,0.24,0.17,0.41,0.17
		c0.15,0,0.3-0.06,0.41-0.17c0.21-0.21,0.25-0.62,0-0.82c-1.07-0.9-2.18-1.77-3.25-2.67c-0.13-0.11-0.25-0.18-0.42-0.18
		C124.79,172.07,124.63,172.14,124.52,172.25"/>
	<path d="M124.29,177.93c-0.83,1.56-1.63,3.14-2.66,4.58c-0.18,0.25-0.04,0.62,0.2,0.76c0.13,0.07,0.29,0.09,0.43,0.05
		c0.15-0.04,0.24-0.13,0.33-0.25c1.05-1.43,1.88-2.99,2.71-4.55c0.15-0.28,0.07-0.64-0.21-0.8c-0.09-0.05-0.19-0.08-0.3-0.08
		C124.6,177.64,124.39,177.74,124.29,177.93"/>
	<path d="M114.92,181.42c-0.23,0.23-0.22,0.6,0,0.84c0.96,1.02,2,1.96,3.11,2.81c0.09,0.05,0.18,0.08,0.28,0.08
		c0.15,0,0.3-0.06,0.4-0.16c0.2-0.21,0.24-0.61,0-0.8c-1.05-0.86-2.04-1.78-2.96-2.76c-0.11-0.12-0.26-0.17-0.41-0.17
		C115.19,181.25,115.03,181.31,114.92,181.42"/>
	<path d="M108.55,184.78c-0.07,0.1-0.14,0.2-0.21,0.29c-0.3,0.38-0.64,0.72-1.01,1.03c-0.25,0.19-0.51,0.35-0.78,0.49
		c-0.25,0.14-0.32,0.47-0.19,0.71c0.15,0.25,0.46,0.32,0.71,0.19c0.46-0.25,0.88-0.55,1.27-0.89c0.43-0.38,0.79-0.83,1.09-1.31
		c0.14-0.23,0.05-0.56-0.18-0.7c-0.08-0.05-0.16-0.07-0.25-0.07C108.82,184.53,108.65,184.62,108.55,184.78"/>
	<path d="M132.75,179.12c-0.11,0.2-0.04,0.43,0.14,0.55c0.54,0.35,1.05,0.72,1.57,1.09c0.57,0.41,1.12,0.85,1.68,1.27
		c0.09,0.07,0.25,0.07,0.36,0.05c0.11-0.04,0.21-0.11,0.27-0.21c0.06-0.11,0.08-0.23,0.05-0.36c-0.04-0.13-0.11-0.2-0.21-0.27
		c-1.07-0.81-2.2-1.54-3.32-2.25c-0.06-0.04-0.13-0.06-0.19-0.06C132.96,178.93,132.82,179,132.75,179.12"/>
	<path d="M138.94,173.5c-0.6,1.05-1.24,2.08-1.91,3.1c-0.15,0.23-0.05,0.55,0.18,0.69c0.24,0.14,0.54,0.05,0.69-0.18
		c0.66-1.02,1.28-2.06,1.88-3.12c0.13-0.23,0.06-0.53-0.18-0.67c-0.08-0.04-0.16-0.06-0.24-0.06
		C139.19,173.26,139.02,173.35,138.94,173.5"/>
	<path d="M143.54,170.76c-0.19,0.32-0.06,0.68,0.23,0.88c0.35,0.24,0.7,0.49,1.03,0.75l0,0c0.67,0.53,1.31,1.1,1.94,1.69
		c0.26,0.25,0.67,0.26,0.93,0c0.25-0.25,0.25-0.67,0-0.93c-0.98-0.98-2.09-1.84-3.24-2.62c-0.09-0.06-0.2-0.09-0.31-0.09
		C143.88,170.44,143.65,170.57,143.54,170.76"/>
	<path d="M150.36,167.32c-0.48,0.91-0.99,1.81-1.54,2.68c-0.16,0.26-0.05,0.63,0.21,0.78c0.28,0.16,0.61,0.05,0.78-0.2
		c0.57-0.86,1.09-1.75,1.57-2.67c0.14-0.28,0.07-0.63-0.21-0.8c-0.09-0.05-0.19-0.07-0.29-0.07
		C150.66,167.03,150.45,167.13,150.36,167.32"/>
	<path d="M155.81,170.21c-0.16,0.04-0.3,0.15-0.38,0.3c-0.09,0.14-0.11,0.33-0.06,0.49c0.05,0.18,0.16,0.28,0.29,0.38
		c0.99,0.74,2,1.46,3.07,2.07c0.3,0.17,0.7,0.07,0.88-0.23c0.18-0.31,0.07-0.69-0.23-0.88c-1.05-0.66-2.08-1.32-3.07-2.07
		c-0.08-0.06-0.2-0.09-0.32-0.09C155.93,170.19,155.87,170.19,155.81,170.21"/>
	<path d="M154.67,173.74c-0.12,0.04-0.2,0.11-0.27,0.21c-0.32,0.45-0.65,0.9-0.98,1.33c-0.51,0.65-1.04,1.29-1.59,1.91
		c-0.16,0.18-0.18,0.46,0,0.64c0.17,0.17,0.48,0.19,0.64,0c0.97-1.09,1.86-2.24,2.7-3.43c0.14-0.2,0.04-0.5-0.16-0.61
		c-0.07-0.04-0.15-0.06-0.22-0.06C154.75,173.73,154.71,173.73,154.67,173.74"/>
	<path d="M141.75,176.72c-0.12,0.12-0.18,0.28-0.18,0.45c0,0.15,0.06,0.35,0.18,0.45c1.08,0.86,2.18,1.69,3.34,2.45
		c0.28,0.19,0.68,0.06,0.85-0.22c0.18-0.31,0.05-0.66-0.22-0.85c-0.79-0.54-1.56-1.11-2.33-1.69c0,0,0,0,0,0
		c-0.25-0.19-0.5-0.39-0.75-0.59c-0.14-0.11-0.26-0.18-0.44-0.18C142.03,176.53,141.87,176.6,141.75,176.72 M143.26,177.21
		c0.02,0.02,0.04,0.03,0.06,0.05L143.26,177.21z"/>
	<path d="M148.01,179.23c-0.11,0.33-0.23,0.66-0.36,0.98c0.02-0.03,0.03-0.07,0.04-0.1c-0.16,0.38-0.33,0.74-0.52,1.11
		c-0.1,0.2-0.05,0.44,0.14,0.56c0.19,0.11,0.45,0.05,0.56-0.14c0.39-0.7,0.69-1.43,0.94-2.18c0.07-0.22-0.08-0.46-0.29-0.52
		c-0.04-0.01-0.07-0.02-0.11-0.02C148.23,178.92,148.07,179.05,148.01,179.23"/>
</g>
</svg>
