<?xml version="1.0" encoding="utf-8"?>
<!-- Generator: Adobe Illustrator 23.1.0, SVG Export Plug-In . SVG Version: 6.00 Build 0)  -->
<svg version="1.1" id="Capa_1" xmlns="http://www.w3.org/2000/svg" xmlns:xlink="http://www.w3.org/1999/xlink" x="0px" y="0px"
	 viewBox="0 0 226.77 226.77" style="enable-background:new 0 0 226.77 226.77;" xml:space="preserve">
<g>
	<path d="M77.02,147.75c0.07,0,0.14,0,0.21,0c-0.07-0.01-0.14-0.03-0.21-0.04V147.75z"/>
	<path d="M77.03,148.28c0.11,0.01,0.22,0.02,0.33,0.03c-0.05-0.01-0.11-0.02-0.16-0.03c0.02,0,0.04,0.01,0.06,0.01
		c-0.08-0.01-0.15-0.02-0.23-0.03V148.28z"/>
	<path d="M142.38,150.13l0.09,0.01c-0.02,0-0.05-0.01-0.07-0.01H142.38z"/>
	<path d="M142.55,150.15c-0.01,0-0.02,0-0.04-0.01C142.53,150.15,142.54,150.15,142.55,150.15"/>
	<path d="M117.24,95.02c-0.15,0.04-0.21,0.19-0.19,0.33c0.49,2.47,1.15,4.89,1.76,7.33c0.66,2.61,1.29,5.24,1.65,7.91
		c0-0.04-0.01-0.07-0.01-0.1c0.12,0.89,0.2,1.78,0.25,2.67c0.04,0.87,0.05,1.76-0.06,2.63c-0.06,0.36-0.15,0.7-0.28,1.04
		c-0.1,0.24-0.23,0.45-0.38,0.66c-0.13,0.16-0.28,0.31-0.44,0.44c-0.2,0.15-0.41,0.27-0.63,0.37c-0.38,0.15-0.78,0.25-1.19,0.31
		c-1.02,0.13-2.05,0.08-3.07,0.01c-0.56-0.04-1.12-0.09-1.68-0.13c-0.72-0.06-1.44-0.11-2.16-0.16c-0.27-0.02-0.49,0.24-0.49,0.49
		c0,0.13,0.05,0.26,0.14,0.35c0.1,0.1,0.21,0.13,0.35,0.14c0.63,0.08,1.26,0.14,1.89,0.2c0.56,0.05,1.13,0.12,1.69,0.16
		c0.99,0.09,1.98,0.15,2.97,0.06c0.85-0.07,1.7-0.26,2.43-0.71c0.32-0.2,0.61-0.46,0.85-0.75c0.29-0.35,0.49-0.75,0.65-1.18
		c0.16-0.46,0.23-0.94,0.28-1.42c0.07-0.63,0.04-1.27,0.01-1.91c-0.06-1.3-0.23-2.59-0.46-3.86c-0.24-1.38-0.55-2.73-0.88-4.09
		c-0.33-1.38-0.7-2.74-1.07-4.11c-0.58-2.15-1.17-4.31-1.6-6.5c-0.03-0.12-0.15-0.2-0.27-0.2
		C117.29,95.01,117.27,95.01,117.24,95.02 M120.66,115.68c0,0.02-0.01,0.03-0.01,0.05C120.65,115.71,120.65,115.7,120.66,115.68
		 M120.35,116.84c-0.01,0.03-0.02,0.06-0.04,0.09C120.33,116.9,120.34,116.87,120.35,116.84"/>
	<path d="M110.01,170.41c0,0.55,0.45,1,1,1c0.55,0,1-0.45,1-1c0-0.55-0.45-1-1-1C110.46,169.41,110.01,169.87,110.01,170.41"/>
	<path d="M110.03,176.03c0,0.55,0.45,1,1,1c0.55,0,1-0.45,1-1c0-0.55-0.45-1-1-1C110.48,175.03,110.03,175.48,110.03,176.03"/>
	<path d="M110.14,183.05c0,0.55,0.45,1,1,1c0.55,0,1-0.45,1-1c0-0.55-0.45-1-1-1C110.59,182.05,110.14,182.51,110.14,183.05"/>
	<path d="M110.16,188.31c0,0.55,0.45,1,1,1c0.55,0,1-0.45,1-1c0-0.55-0.45-1-1-1C110.61,187.31,110.16,187.76,110.16,188.31"/>
	<path d="M77.83,35.01c-1.29,0-2.57,0.19-3.78,0.55c-0.76,0.23-1.55,0.58-2.38,1.07c-0.68,0.4-1.34,0.92-2.02,1.59
		c-1.19,1.19-2.06,2.81-2.51,4.67c-0.21,0.87-0.3,1.86-0.27,3.02c0.02,1.06,0.17,2.16,0.47,3.37c1.01,4.14,3.59,7.99,7.06,10.56
		c1.77,1.31,3.77,2.22,5.79,2.63c0.55,0.11,1.13,0.19,1.72,0.22c-0.57,0.42-1.21,1.01-1.94,1.78c-0.77,0.8-1.54,1.72-2.42,2.91
		c-3.09,4.13-5.04,9.26-5.66,14.82c-0.28,2.52-0.23,5.2,0.14,7.97c0.29,2.17,0.78,4.37,1.47,6.53l-0.09-0.05
		c-0.19-0.03-0.36-0.05-0.54-0.05c-0.1,0-0.2,0-0.29,0.01c-0.25,0.02-0.48,0.1-0.68,0.17c-0.19,0.06-0.39,0.16-0.63,0.32
		c-0.44,0.28-0.84,0.66-1.22,1.15c-0.3,0.38-0.57,0.84-0.85,1.46c-0.23,0.49-0.41,1.06-0.58,1.8c-0.24,1.14-0.22,2.4,0.06,3.75
		c0.25,1.17,0.72,2.38,1.41,3.59c0.61,1.09,1.4,2.15,2.34,3.15c0.87,0.93,1.83,1.76,2.87,2.46c0.53,0.36,1.1,0.66,1.71,0.9
		c0.61,0.24,1.27,0.4,1.98,0.47c0.16,0.01,0.31,0.02,0.47,0.02c0.21,0,0.43-0.01,0.65-0.03c-0.02,1.04-0.03,2.09-0.05,3.13l0,0.37
		c-0.02,1.37-0.04,2.93-0.01,4.42c0.05,2.7,0.31,5.03,0.77,7.13c0.54,2.45,1.48,4.7,2.8,6.7c2.41,3.67,6.22,6.65,11.31,8.88
		c-0.06,0.19-0.12,0.39-0.19,0.59c-0.09,0.2-0.19,0.39-0.32,0.56c-0.19,0.23-0.38,0.42-0.6,0.59c-0.26,0.18-0.55,0.35-0.91,0.52
		c-0.71,0.3-1.52,0.5-2.53,0.64c-0.88,0.11-1.86,0.16-3.05,0.16c-0.61,0-1.23-0.01-1.84-0.03l-0.66-0.03l-0.66-0.03l-0.98-0.04
		c-0.41-0.02-0.83-0.03-1.24-0.03c-0.2,0-0.39,0-0.58,0.01c-1.23,0.04-2.47,0.21-3.3,0.33c-1.17,0.16-2.29,0.41-3.34,0.72
		c-1.06,0.31-2.1,0.74-3.08,1.26c-0.95,0.51-1.86,1.16-2.69,1.95c-0.69,0.65-1.34,1.45-1.94,2.39c-0.58,0.92-1.01,1.93-1.36,2.8
		c-0.72,1.79-1.28,3.83-1.73,6.25c-0.42,2.26-0.66,4.56-0.71,6.83c-0.05,2.42,0.12,4.49,0.52,6.32c0.02,0.11,0.09,0.21,0.19,0.29
		c0.02,0.11,0.09,0.22,0.19,0.3c7.6,5.81,17.21,9.63,29.39,11.69c4.94,0.84,10.16,1.34,15.96,1.53c1.67,0.05,3.34,0.08,4.98,0.08
		c4.12,0,8.18-0.18,12.09-0.53c6.12-0.55,11.96-1.64,17.35-3.23c2.82-0.83,5.6-1.83,8.26-2.99c1.28-0.55,2.59-1.17,4-1.9l0.45-0.23
		c0.45-0.24,0.89-0.47,1.35-0.7c0.64-0.33,1.29-0.66,1.92-1.01c0.93-0.52,1.98-1.19,2.69-2.16c0.11-0.15,0.14-0.36,0.06-0.55
		c0.39-1.61,0.67-3.33,0.86-5.25c0.22-2.05,0.27-4.15,0.15-6.24c-0.12-2.24-0.44-4.36-0.95-6.3c-0.55-2.08-1.35-3.91-2.36-5.44
		c-0.53-0.81-1.14-1.54-1.82-2.18c-0.29-0.28-0.64-0.56-1.07-0.88c-0.34-0.25-0.65-0.46-0.97-0.63c-1.07-0.57-2.29-0.79-3.46-0.94
		c-1.45-0.19-2.96-0.22-4.36-0.23l-0.75,0c-0.95,0-1.9,0.01-2.85,0.02l-1.31,0.02h-0.98c-0.88,0-1.76-0.01-2.64-0.03
		c-1.25-0.04-2.33-0.12-3.3-0.24c-1.29-0.18-2.29-0.43-3.16-0.79c-0.4-0.17-0.75-0.37-1.09-0.61c-0.26-0.21-0.46-0.4-0.63-0.61
		c-0.15-0.2-0.28-0.42-0.39-0.67c-0.09-0.22-0.15-0.47-0.19-0.75l0.13-0.04l0.14-0.06c2.32-1.02,4.43-2.33,6.26-3.9
		c0.93-0.81,1.82-1.73,2.7-2.83c0.85-1.07,1.59-2.18,2.19-3.3c1.1-2,1.92-4.35,2.45-6.99c0.83-4.13,0.85-8.39,0.88-12.51l0.01-0.7
		c0-0.69,0.01-1.38,0.02-2.07c0.01-0.7,0.02-1.34,0.05-1.94c0.03,0,0.07,0,0.1,0c0.43,0,0.87-0.06,1.32-0.17
		c0.55-0.14,1.1-0.36,1.67-0.68c0.92-0.51,1.82-1.26,2.75-2.29c0.77-0.86,1.45-1.85,2.02-2.95c0.45-0.85,0.79-1.78,1.05-2.85
		c0.27-1.12,0.39-2.23,0.36-3.31c-0.02-1.14-0.23-2.19-0.62-3.11c-0.41-0.96-1.1-1.77-1.95-2.28c-0.65-0.39-1.42-0.6-2.22-0.6
		c-0.21,0-0.42,0.01-0.63,0.04c-0.35,0.04-0.69,0.14-1.03,0.29c0.14-0.7,0.26-1.43,0.37-2.16l0.01-0.13
		c0.06-0.23,0.12-0.47,0.17-0.71l0.08-0.37c0.2-0.94,0.35-1.8,0.45-2.64c0.07-0.38,0.13-0.76,0.17-1.15l0.05-0.29l0.06-0.31
		l0.02-0.12c0.05-0.24,0.09-0.49,0.14-0.73c0.33-1.79,0.53-3.39,0.63-4.9c0.11-1.7,0.05-3.34-0.19-4.87l-0.02-0.11l-0.05-0.29
		c-0.06-0.7-0.14-1.34-0.25-1.88c-0.2-1.09-0.5-1.96-0.93-2.66c-0.48-0.8-1.14-1.35-1.9-1.58c-0.27-0.09-0.58-0.14-0.91-0.14
		c-0.17,0-0.35,0.02-0.54,0.04c-0.12-0.11-0.28-0.21-0.46-0.3c-0.01-0.76-0.06-1.5-0.14-2.27c-0.05-0.52-0.12-1-0.22-1.47
		c-0.1-0.47-0.25-0.98-0.46-1.56c-0.91-2.44-3.11-4.18-4.88-5.57c-2.61-2.06-5.3-3.69-7.99-4.85c-1.44-0.63-2.92-1.1-4.4-1.4
		c-0.78-0.16-1.52-0.27-2.21-0.32c-0.34-0.03-0.68-0.04-1.01-0.04c-0.46,0-0.93,0.02-1.39,0.04L123,52.12
		c-0.6,0.03-1.12,0.05-1.65,0.05c-0.67,0-1.26-0.04-1.82-0.11c-0.85-0.16-1.72-0.44-2.72-0.89c-0.68-0.32-1.35-0.68-1.96-1.01
		l-0.14-0.08l-0.17-0.09c-0.59-0.32-1.17-0.64-1.77-0.94c-1.38-0.69-2.77-1.29-4.15-1.8c-1.46-0.54-2.97-0.94-4.51-1.19
		c-0.81-0.14-1.66-0.21-2.54-0.21c-0.69,0-1.37,0.05-2.02,0.13c-1.24,0.16-2.52,0.57-3.93,1.25c-0.37,0.18-0.73,0.37-1.09,0.59
		c-0.62-1.73-1.52-3.35-2.66-4.81c-0.74-0.96-1.59-1.86-2.53-2.69c-0.22-0.2-0.46-0.39-0.71-0.58c-0.33-0.33-0.67-0.65-1.03-0.96
		c-0.73-0.64-1.58-1.23-2.59-1.82c-1.64-0.95-3.54-1.58-5.49-1.83C78.99,35.05,78.42,35.01,77.83,35.01 M114.6,78.48
		c0.17,0,0.34,0,0.51-0.01c2.08-0.09,3.91-0.57,5.45-1.43c1.35-0.75,2.52-1.88,3.37-3.26c0.2,0.21,0.5,0.43,0.92,0.69
		c0.66,0.42,1.38,0.75,1.99,1.03c1.22,0.56,2.58,1.03,4.17,1.45c1.64,0.42,3.18,0.64,4.57,0.64c0.66,0,1.39-0.09,2.21-0.28
		l0.48-0.12c0.51-0.13,1.06-0.26,1.61-0.34c0.17-0.02,0.35-0.02,0.53-0.02c0.02,0.05,0.03,0.12,0.03,0.17
		c0.07,0.34,0.13,0.63,0.2,0.93l0.11,0.53c0.25,1.2,0.43,2.42,0.55,3.72c0.17,2.02,0.21,3.91,0.12,5.62
		c-0.03,0.48-0.06,0.97-0.09,1.45l-0.02,0.29l-0.02,0.29c-0.04,0.68-0.08,1.36-0.11,2.04c-0.06,1.82,0.01,3.2,0.24,4.48
		c0.12,0.64,0.31,1.26,0.56,1.84c-0.14,2.39-0.37,4.79-0.67,7.12l0.01,0.11c-0.76,5.4-1.84,9.62-3.39,13.31
		c-0.76,1.74-1.77,3.44-3,5.06c-0.66,0.83-1.36,1.63-2.1,2.36c-0.39,0.38-0.79,0.75-1.2,1.11c-0.2,0.17-0.4,0.34-0.6,0.5l-0.33,0.27
		l-0.24-0.31c-0.26-0.29-0.54-0.55-0.82-0.81c-0.54-0.48-1.15-0.96-1.81-1.41c-1.27-0.87-2.65-1.53-4.11-1.95
		c-0.6-0.18-1.29-0.31-2.1-0.4c-0.38-0.04-0.75-0.06-1.13-0.06c-0.39,0-0.78,0.02-1.17,0.06c-0.69,0.06-1.41,0.21-2.15,0.43
		c-0.66,0.2-1.35,0.48-2.12,0.87c0.01-0.02-0.01-0.04-0.06-0.07c-1.46-0.79-2.96-1.31-4.46-1.54c-0.59-0.1-1.24-0.15-1.94-0.15
		c-0.91,0-1.82,0.09-2.71,0.26c-1.54,0.29-3.04,0.88-4.37,1.71c-0.65,0.41-1.27,0.89-1.84,1.44c-0.28,0.27-0.55,0.56-0.81,0.9
		c-0.28,0.35-0.49,0.66-0.67,0.98l-0.06-0.07c-0.58-0.39-1.29-0.88-2-1.43c-1.83-1.42-3.52-3.13-5.04-5.08
		c-0.71-0.92-1.32-1.83-1.87-2.78c-0.51-0.87-0.98-1.82-1.41-2.81c-1.02-2.46-1.7-5.19-2.16-8.56c-0.21-1.58-0.36-3.2-0.47-4.42
		c0.03-0.75,0.07-1.49,0.12-2.22c0.07-1.26,0.14-2.53,0.18-3.79c0.06-2.18-0.01-3.93-0.23-5.52c-0.13-0.92-0.29-1.83-0.45-2.74
		c-0.08-0.43-0.15-0.85-0.23-1.28c0.09,0.01,0.18,0.01,0.25,0.01c0.13,0,0.23-0.01,0.34-0.03c0.54-0.09,1.04-0.3,1.47-0.61
		c0.44-0.32,0.83-0.75,1.18-1.31l0.17-0.1c0.19-0.12,0.33-0.2,0.45-0.29c0.42-0.31,0.78-0.71,1.1-1.23
		c0.26-0.43,0.48-0.95,0.67-1.59c0.17-0.56,0.29-1.16,0.39-1.95c0.08-0.67,0.13-1.29,0.15-1.88c0.41,0.28,0.94,0.53,1.56,0.74
		c0.74,0.25,1.55,0.4,2.49,0.46c0.2,0.01,0.4,0.02,0.61,0.02c0.61,0,1.26-0.05,1.99-0.16c0.82-0.13,1.64-0.34,2.52-0.66
		c0.9-0.32,1.7-0.68,2.43-1.11c0.76-0.42,1.48-0.92,2.15-1.48c0.41-0.33,0.8-0.71,1.2-1.14c0.36,0.46,0.88,0.87,1.29,1.18
		c0.67,0.5,1.5,0.95,2.56,1.37c0.82,0.33,1.75,0.59,2.84,0.77C113.12,78.42,113.86,78.48,114.6,78.48 M148.31,98.66
		c0.11-0.53,0.21-1.05,0.3-1.58c0.08-0.43,0.15-0.85,0.22-1.28c0.22-0.12,0.45-0.22,0.7-0.31c0.29-0.09,0.58-0.14,0.89-0.16
		c0.34,0,0.64,0.03,0.92,0.09c0.26,0.06,0.53,0.16,0.83,0.3c0.28,0.16,0.52,0.34,0.76,0.54c0.25,0.25,0.47,0.52,0.67,0.83
		c0.21,0.36,0.38,0.73,0.53,1.17c0.2,0.65,0.31,1.35,0.34,2.13c0.03,1.03-0.08,2.12-0.32,3.24c-0.13,0.56-0.27,1.04-0.45,1.53
		c-0.16,0.46-0.37,0.96-0.66,1.51c-0.54,0.98-1.18,1.88-1.91,2.67c-0.6,0.64-1.21,1.17-1.88,1.62c-0.62,0.39-1.18,0.66-1.78,0.85
		c-0.4,0.12-0.87,0.21-1.32,0.24l0.03-0.34c0.02-0.35,0.04-0.69,0.07-1.02c0.1-1.26,0.24-2.59,0.45-4.19
		c0.09-0.67,0.18-1.34,0.27-2.01l0.07-0.51l0.18-1.27c0.07,0.28,0.16,0.55,0.24,0.83c0.09,0.31,0.16,0.67,0.22,1.11
		c0.05,0.42,0.07,0.8,0.07,1.17c0,0.39-0.03,0.81-0.09,1.29c-0.03,0.23-0.07,0.45-0.11,0.66c-0.02,0.16,0.05,0.29,0.19,0.33h0
		c0.2,0,0.31-0.07,0.33-0.19c0.1-0.5,0.16-0.96,0.19-1.41c0.04-0.53,0.04-1.09-0.02-1.7c-0.04-0.5-0.14-1.02-0.29-1.58
		c-0.12-0.44-0.3-0.89-0.53-1.35c0.13-0.31,0.23-0.62,0.29-0.84c0.13-0.45,0.25-0.9,0.36-1.35c0.14-0.16,0.28-0.32,0.43-0.48
		c0.17-0.17,0.35-0.32,0.54-0.47c0.24-0.18,0.5-0.35,0.76-0.51c0.27-0.16,0.54-0.3,0.82-0.43c0.06-0.02,0.1-0.07,0.12-0.14
		c0.02-0.07,0.02-0.16-0.02-0.23c-0.03-0.06-0.09-0.1-0.16-0.12c-0.02,0-0.03,0-0.05,0c-0.1,0-0.13,0.01-0.16,0.02
		c-0.33,0.16-0.65,0.33-0.96,0.51c-0.29,0.17-0.55,0.37-0.81,0.57C148.5,98.49,148.4,98.57,148.31,98.66 M79.8,115.15
		c-0.43,0-0.88-0.04-1.32-0.13c-0.57-0.14-1.13-0.36-1.72-0.67c-0.98-0.56-1.87-1.22-2.8-2.08c-1.07-1.01-1.99-2.11-2.74-3.27
		c-0.63-1.01-1.09-2-1.43-3.03c-0.25-0.81-0.39-1.59-0.45-2.39c-0.03-0.72,0.03-1.44,0.18-2.15c0.16-0.66,0.4-1.3,0.7-1.89
		c0.25-0.45,0.52-0.83,0.82-1.18c0.23-0.23,0.45-0.42,0.67-0.57c0.2-0.12,0.39-0.21,0.58-0.28c0.16-0.05,0.33-0.08,0.5-0.09
		c0.22,0,0.4,0.02,0.57,0.06c0.15,0.04,0.29,0.09,0.43,0.16c0.04,0.16,0.11,0.34,0.17,0.51c0.3,0.83,0.65,1.7,1.03,2.58
		c-0.15-0.11-0.32-0.18-0.5-0.25c-0.39-0.14-0.79-0.2-1.13-0.23c-0.1-0.01-0.2-0.01-0.31-0.01c-0.27,0-0.54,0.03-0.87,0.08
		c-0.08,0.01-0.15,0.08-0.17,0.14c-0.04,0.06-0.05,0.15-0.03,0.23c0.02,0.07,0.06,0.13,0.14,0.18c0.04,0.03,0.08,0.04,0.15,0.04
		l0.16-0.02c0.21-0.03,0.34-0.04,0.48-0.04c0.26,0,0.41,0.02,0.55,0.03c0.13,0.02,0.28,0.06,0.43,0.09
		c0.16,0.04,0.31,0.09,0.46,0.15l0.1,0.04c0.19,0.09,0.35,0.17,0.5,0.26c0.18,0.1,0.33,0.22,0.49,0.34c0.44,0.88,0.93,1.84,1.47,2.8
		c-0.2,1.16-0.23,2.27-0.08,3.29c0.04,0.31,0.1,0.61,0.17,0.91c0.08,0.33,0.19,0.66,0.34,1.01c0.11,0.26,0.23,0.51,0.36,0.74
		c0.18,0.31,0.38,0.59,0.56,0.82c0.04,0.05,0.13,0.08,0.19,0.08c0.07,0,0.14-0.03,0.19-0.08c0.05-0.05,0.07-0.12,0.07-0.19
		c0-0.07-0.02-0.13-0.07-0.19c0,0-0.01-0.01-0.07-0.09c-0.15-0.2-0.29-0.4-0.41-0.62c-0.13-0.21-0.23-0.44-0.33-0.67
		c-0.1-0.24-0.2-0.52-0.28-0.82c-0.08-0.3-0.15-0.62-0.21-1.05c-0.05-0.46-0.07-0.89-0.07-1.32c0-0.37,0.03-0.75,0.07-1.13
		c0.65,1.2,1.45,2.44,2.34,3.7l0.02,0.2c0.25,1.81,0.36,3.67,0.38,6.02l-0.11-0.01H79.8z M109.19,128.8
		c2.39-0.57,4.37-1.09,6.25-2.05c0.65,0.45,1.36,0.87,2.17,1.27c0.84,0.42,1.65,0.78,2.54,1.16l0.44,0.19
		c1.59,0.69,3.19,1.38,4.63,2.29c0.34,0.22,0.67,0.46,1,0.7l0.1,0.05c-0.15,0.26-0.27,0.48-0.39,0.69c-0.12,0.2-0.26,0.38-0.39,0.55
		c-0.31,0.36-0.63,0.66-1.01,0.94c-0.47,0.33-0.99,0.61-1.55,0.83c-0.6,0.21-1.17,0.35-1.79,0.42c-0.23,0.02-0.47,0.03-0.71,0.03
		c-0.34,0-0.69-0.03-1.04-0.08c-0.46-0.09-0.89-0.21-1.31-0.39c-0.39-0.2-0.69-0.38-0.92-0.58c-0.22-0.19-0.43-0.41-0.64-0.68
		c-0.17-0.24-0.31-0.5-0.44-0.81c-0.14-0.38-0.23-0.78-0.27-1.23c-0.01-0.1-0.09-0.19-0.16-0.23c-0.06-0.04-0.12-0.05-0.19-0.05
		c-0.58-0.29-1.18-0.44-1.82-0.45c-0.06,0-0.13,0-0.19,0c-0.09,0-0.19,0-0.29,0c-0.19,0.01-0.35,0.04-0.52,0.07
		c-0.26,0.04-0.53,0.11-0.87,0.26c-0.15,0.06-0.25,0.2-0.26,0.34c-0.03,0.07-0.03,0.16-0.02,0.23c0.03,0.12,0.05,0.23,0.05,0.34
		c0,0.14,0,0.36-0.02,0.59c-0.01,0.08-0.02,0.15-0.04,0.22c-0.03,0.14-0.08,0.27-0.13,0.4c-0.14,0.28-0.3,0.53-0.48,0.74l0.12-0.04
		l-0.17,0.13c-0.14,0.13-0.3,0.27-0.48,0.41c-0.17,0.11-0.35,0.21-0.54,0.29c-0.24,0.09-0.5,0.16-0.8,0.21
		c-0.19,0.02-0.37,0.03-0.54,0.03c-0.27,0-0.53-0.02-0.8-0.05c-0.8-0.14-1.64-0.39-2.55-0.78c-1.31-0.6-2.46-1.3-3.49-2.12
		c-0.3-0.26-0.61-0.53-0.89-0.82c0.54-0.37,1.13-0.71,1.85-1.05c1.93-0.89,4.06-1.38,5.95-1.82l0.42-0.1
		c-0.04,0.02-0.06,0.05-0.08,0.09c-0.03,0.07-0.03,0.15,0,0.22c0.02,0.06,0.07,0.11,0.13,0.13c0.29,0.11,0.59,0.22,0.89,0.32
		c0.34,0.11,0.71,0.21,1.19,0.31c0.7,0.15,1.46,0.23,2.32,0.25l0.19,0c1.42,0,2.91-0.29,4.32-0.83c0.14-0.05,0.21-0.2,0.16-0.33
		c-0.04-0.1-0.14-0.17-0.25-0.17c-0.36,0.12-0.64,0.22-0.91,0.3c-0.32,0.1-0.64,0.18-0.96,0.25c-0.52,0.11-1.03,0.18-1.55,0.22
		c-0.28,0.02-0.56,0.04-0.84,0.04c-0.24,0-0.48-0.01-0.71-0.02c-0.48-0.03-0.97-0.09-1.51-0.19c-0.45-0.08-0.92-0.2-1.53-0.4
		c-0.16-0.06-0.38-0.14-0.59-0.23C109.24,128.81,109.22,128.8,109.19,128.8 M112.9,161.54c-0.23,0-0.47-0.01-0.71-0.02
		c-1.06-0.08-2.14-0.3-3.19-0.66c-1.25-0.44-2.56-1.11-3.89-1.98c-2.19-1.47-4.28-3.36-6.78-6.14c-1.26-1.41-2.45-2.84-3.54-4.18
		c0.49-0.48,0.81-1.08,0.96-1.76c4.23,1.76,8.99,2.88,14.11,3.33c1.34,0.11,2.71,0.17,4.09,0.17c0.97,0,1.97-0.03,2.96-0.08
		c2.54-0.14,5.05-0.46,7.45-0.96c2.18-0.45,4.28-1.08,6.23-1.86c0.02,0.24,0.08,0.5,0.19,0.75c0.18,0.46,0.46,0.88,0.82,1.27
		c0.06,0.06,0.13,0.13,0.19,0.18c-0.44,0.31-0.87,0.68-1.28,1.04c-0.52,0.46-1.04,0.93-1.56,1.4l-1.17,1.08l-0.36,0.33
		c-0.5,0.46-1,0.92-1.51,1.38c-1.14,1.02-2.29,1.97-3.44,2.82c-1.33,0.99-2.54,1.78-3.72,2.4l-0.09,0.06l0-0.01
		c-1.09,0.54-2.24,0.95-3.33,1.2C114.53,161.46,113.71,161.54,112.9,161.54 M102.43,169.37c-0.38-0.45-0.75-0.96-1.19-1.66
		c-0.47-0.75-0.91-1.52-1.34-2.29l-0.09-0.16c-1.01-1.78-2.19-3.89-3.3-6.05c-1.71-3.34-3-6.38-3.98-9.3
		c0.69-0.21,1.26-0.5,1.73-0.86c1.15,1.43,2.69,3.29,4.29,5.03c1.85,2,3.5,3.53,5.2,4.8c0.95,0.71,1.9,1.31,2.82,1.79
		c0.94,0.5,1.94,0.91,2.99,1.22c0.98,0.29,2.05,0.45,3.18,0.48l0.35,0h0.15c-1.08,0.85-1.94,1.94-2.76,2.99
		c-0.48,0.61-0.94,1.19-1.43,1.75c-0.53,0.62-1.11,1.22-1.72,1.77c-0.59,0.53-1.12,0.91-1.66,1.21c-0.3,0.14-0.57,0.24-0.85,0.31
		c-0.17,0.03-0.35,0.04-0.54,0.04c-0.17-0.02-0.34-0.05-0.49-0.1c-0.2-0.07-0.39-0.17-0.57-0.28
		C102.96,169.91,102.7,169.68,102.43,169.37L102.43,169.37z M123.03,170.13c-0.16,0-0.32-0.01-0.48-0.02
		c-0.14-0.02-0.28-0.05-0.41-0.08c-0.17-0.04-0.34-0.1-0.5-0.17c-0.4-0.18-0.8-0.42-1.23-0.74c-1.25-0.98-2.28-2.23-3.31-3.54
		l-0.53-0.67l-0.23-0.29c-0.25-0.32-0.5-0.64-0.75-0.96c-0.39-0.49-0.75-0.93-1.16-1.36c0.47-0.02,1-0.11,1.65-0.27
		c1.34-0.33,2.73-0.93,4.24-1.83c1.39-0.82,2.83-1.81,4.4-3.02c1.39-1.06,2.76-2.2,4.08-3.39c0.66-0.59,1.31-1.2,1.95-1.82
		c0.6-0.58,1.21-1.19,1.77-1.83c0.1,0.08,0.22,0.15,0.35,0.22c0.5,0.28,1.07,0.5,1.72,0.7c-0.34,1.36-0.81,2.76-1.46,4.29
		c-0.45,1.05-0.98,2.16-1.49,3.23l-0.12,0.24l-0.34,0.72c-0.2,0.42-0.4,0.84-0.59,1.27c-0.21,0.45-0.41,0.9-0.61,1.36
		c-0.88,1.95-1.78,3.84-3.03,5.51c-0.54,0.68-0.99,1.16-1.47,1.54c-0.35,0.27-0.72,0.49-1.09,0.65c-0.32,0.13-0.63,0.21-0.95,0.26
		C123.3,170.12,123.17,170.13,123.03,170.13 M86.84,150.67c0.73,0,1.37-0.02,1.96-0.06c1.11-0.08,2-0.2,2.8-0.39
		c0.45,1.42,1.01,2.88,1.65,4.35c0.53,1.24,1.15,2.54,1.95,4.09c1.46,2.85,3.18,5.76,4.44,7.88c0.53,0.9,1.13,1.91,1.84,2.82
		c0.6,0.77,1.16,1.26,1.77,1.55c0.28,0.14,0.61,0.23,0.94,0.25c0.06,0,0.13,0,0.19,0c0.29,0,0.6-0.05,0.93-0.14
		c0.44-0.13,0.84-0.36,1.14-0.55c0.54-0.33,1.03-0.73,1.46-1.12c0.5-0.44,1.02-0.95,1.59-1.57c0.5-0.55,0.97-1.12,1.44-1.69
		c0.47-0.58,0.93-1.15,1.41-1.71c0.4-0.47,0.84-0.94,1.39-1.49c-0.05,3.84-0.03,8.02,0.04,13.96c0.03,2.32,0.06,4.63,0.09,6.95
		c0.02,1.19,0.03,2.38,0.05,3.57c0.01,0.58,0.02,1.15,0.04,1.73c0.02,0.66,0.03,1.25,0.07,1.84c0.01,0.1,0.04,0.18,0.1,0.25
		l-0.89-0.03c-2.93,0-5.84-0.09-8.64-0.27c-5.43-0.35-10.61-1.05-15.39-2.08c-0.82-0.18-1.63-0.37-2.43-0.57l-0.04-1.37l-0.01-0.18
		c-0.06-1.66-0.11-3.32-0.14-4.97c-0.06-2.89-0.08-5.96-0.07-9.95l0.01-2.43l0.01-2.43c0.02-4.4,0.05-9.87-0.08-15.04
		c-0.01-0.4-0.02-0.8-0.03-1.21l0.21,0.01L86.84,150.67z M123.03,171.01c0.55,0,1.1-0.11,1.63-0.32c0.71-0.28,1.39-0.75,2.07-1.44
		c0.28-0.28,0.55-0.6,0.86-1c0.28-0.36,0.56-0.77,0.86-1.25c0.46-0.73,0.89-1.55,1.42-2.65c0.41-0.86,0.78-1.73,1.15-2.61l0.14-0.31
		c0.2-0.46,0.39-0.91,0.6-1.37l0.42-0.91l0.1-0.21c0.28-0.62,0.56-1.24,0.83-1.86c0.45-1.06,0.83-2.02,1.15-2.91
		c0.34-0.95,0.63-1.96,0.86-3c0.38,0.11,0.82,0.21,1.36,0.29c1.29,0.22,2.7,0.35,4.59,0.43c0.43,0.02,0.85,0.03,1.27,0.04
		l-0.06,1.25c-0.05,1.7-0.1,3.41-0.14,5.11c-0.07,3.25-0.14,6.51-0.17,9.77c-0.08,7.52,0.03,13.72,0.34,19.5
		c-6.46,1.86-13.55,2.98-21.65,3.42l-0.12,0.03c-2.36,0.09-4.22,0.14-5.87,0.16c0.07-0.03,0.11-0.11,0.11-0.22
		c0.07-1.06,0.07-2.15,0.08-3.2v-0.18c0.01-1.19,0-2.38-0.01-3.57c-0.02-2.31-0.05-4.61-0.09-6.92l-0.02-1.32l0-0.28
		c-0.07-3.9-0.14-7.93-0.15-11.91l0.13,0.2l0.66,0.86l0.4,0.52l0.16,0.21c0.49,0.64,0.98,1.28,1.49,1.91
		c0.59,0.72,1.38,1.64,2.34,2.42c0.39,0.32,0.78,0.58,1.16,0.79c0.42,0.23,0.86,0.39,1.32,0.47
		C122.5,170.99,122.77,171.01,123.03,171.01 M73.86,152.2c0.98-0.4,2.02-0.71,3.18-0.96c-0.02,3.62-0.08,7.31-0.13,10.89l0,0.19
		c-0.1,7.48-0.21,15.2,0.16,22.79c-1.7-0.72-3.32-1.47-4.8-2.24l-0.1-0.05c-2.63-1.38-5.12-2.96-7.4-4.68
		c0.02-0.05,0.01-0.12,0-0.18l-0.03-0.11c-0.38-3.15-0.34-6.45,0.14-10.11c0.47-3.36,1.19-6.2,2.21-8.68
		c0.53-1.23,1.09-2.22,1.73-3.08c0.6-0.77,1.29-1.47,2.06-2.09C71.81,153.21,72.79,152.65,73.86,152.2L73.86,152.2z M151.78,184.18
		l0-0.13l0-0.16c-0.04-1.65-0.07-3.31-0.11-4.96l-0.02-1.24c-0.02-1.24-0.05-2.49-0.07-3.73l-0.01-1.24
		c-0.02-1.28-0.03-2.5-0.04-3.74l-0.02-2.84c-0.02-2.38-0.04-4.74-0.08-7.1c-0.04-2.3-0.08-4.6-0.13-6.9l0.46,0.06l0.85,0.1
		c0.7,0.1,1.75,0.27,2.72,0.64c0.59,0.25,1.1,0.61,1.48,0.91c0.65,0.53,1.23,1.12,1.77,1.79c0.68,0.91,1.28,1.96,1.78,3.13
		l-0.02-0.14c0.73,1.84,1.25,3.89,1.57,6.26c0.22,1.79,0.32,3.69,0.29,5.64c-0.03,1.85-0.16,3.69-0.39,5.48
		c-0.12,0.9-0.28,1.82-0.46,2.72c-0.01,0.06-0.02,0.11-0.02,0.17l-0.11,0.08c-0.19,0.14-0.38,0.29-0.57,0.43
		c-0.34,0.24-0.67,0.48-1.02,0.71c-1,0.64-2.07,1.2-3.01,1.7l-0.1,0.05c-1.26,0.68-2.44,1.28-3.61,1.83
		C152.52,183.85,152.15,184.02,151.78,184.18"/>
	<path d="M99.63,98.57l-0.16,0l-0.16,0c-0.74,0.01-1.52,0.08-2.37,0.22c-0.75,0.12-1.51,0.3-2.24,0.53
		c-0.69,0.22-1.32,0.48-1.88,0.79c-0.57,0.31-1.04,0.67-1.4,1.07c-0.06,0.06-0.12,0.14-0.12,0.26c0,0.1,0.03,0.19,0.1,0.27
		c0.07,0.07,0.16,0.12,0.26,0.12c0.09,0,0.21-0.03,0.27-0.1c0.18-0.21,0.4-0.41,0.68-0.62c0.51-0.35,1.05-0.63,1.7-0.89
		c0.57-0.22,1.27-0.42,1.99-0.57c-0.07,0.12-0.12,0.25-0.17,0.38c-0.1,0.29-0.18,0.61-0.25,1.04c-0.12,0.73-0.11,1.51,0.03,2.32
		c0.13,0.73,0.39,1.37,0.77,1.91c0.18,0.26,0.42,0.5,0.71,0.69c0.24,0.17,0.54,0.29,0.91,0.37c0.15,0.03,0.31,0.05,0.48,0.05
		c0.19,0,0.38-0.02,0.56-0.05c0.41-0.06,0.8-0.2,1.14-0.42c0.33-0.21,0.6-0.47,0.83-0.8c0.2-0.28,0.37-0.64,0.5-1.08
		c0.21-0.69,0.3-1.5,0.26-2.47c-0.03-0.7-0.11-1.4-0.25-2.11c0.66,0.14,1.25,0.31,1.79,0.55c0.36,0.17,0.71,0.37,1.01,0.61
		c0.2,0.17,0.39,0.37,0.56,0.59c0.13,0.19,0.25,0.4,0.34,0.63l0.03,0.11c0.05,0.15,0.18,0.25,0.32,0.25
		c0.16-0.03,0.24-0.09,0.29-0.17c0.04-0.07,0.06-0.16,0.03-0.24c-0.08-0.29-0.2-0.56-0.34-0.81c-0.13-0.23-0.31-0.46-0.54-0.69
		c-0.38-0.39-0.88-0.72-1.56-1.02c-0.57-0.25-1.21-0.43-2.03-0.56C101.07,98.62,100.38,98.57,99.63,98.57 M99.48,100.07
		C99.48,100.07,99.47,100.07,99.48,100.07c0.03-0.19,0.08-0.37,0.15-0.55c0.02-0.06,0.05-0.12,0.08-0.17
		c0.14-0.02,0.27-0.02,0.4-0.02c0.11,0,0.23,0,0.34,0.01c0.04,0.18,0.07,0.35,0.1,0.54c0.02,0.2,0.03,0.4,0.01,0.6
		c-0.03,0.12-0.05,0.21-0.08,0.31c-0.03,0.07-0.06,0.12-0.1,0.17c-0.02,0.03-0.05,0.06-0.08,0.08c-0.03,0.02-0.06,0.04-0.09,0.05
		l-0.15,0.03l-0.11-0.02l-0.18-0.08c-0.05-0.05-0.09-0.09-0.13-0.13c-0.04-0.06-0.07-0.12-0.1-0.19c-0.03-0.07-0.05-0.14-0.06-0.22
		C99.46,100.34,99.46,100.22,99.48,100.07L99.48,100.07L99.48,100.07z"/>
	<path d="M108.02,128.47c-0.05,0.13,0.02,0.27,0.14,0.32c0.25,0.11,0.49,0.21,0.74,0.31c0.13,0.05,0.27-0.02,0.32-0.14
		c0.05-0.13-0.02-0.27-0.14-0.32c-0.25-0.1-0.49-0.2-0.74-0.31c-0.03-0.01-0.06-0.02-0.09-0.02
		C108.16,128.31,108.06,128.37,108.02,128.47"/>
	<path d="M107.68,128.5c-0.05,0.13,0.02,0.27,0.14,0.32c0.49,0.22,0.99,0.42,1.5,0.59c0.13,0.04,0.27-0.01,0.33-0.14
		c0.05-0.12-0.01-0.29-0.14-0.33c-0.51-0.17-1.02-0.36-1.5-0.59c-0.03-0.01-0.06-0.02-0.09-0.02
		C107.82,128.34,107.72,128.41,107.68,128.5"/>
	<path d="M107.61,128.41c-0.05,0.13,0.02,0.27,0.14,0.32c0.23,0.1,0.45,0.2,0.68,0.3c0.13,0.05,0.28-0.02,0.32-0.14
		c0.05-0.13-0.01-0.27-0.14-0.32c-0.23-0.09-0.46-0.2-0.69-0.3c-0.03-0.01-0.06-0.02-0.09-0.02
		C107.75,128.25,107.65,128.32,107.61,128.41"/>
	<path d="M129.89,97.8c-0.75,0-1.44,0.05-2.1,0.16c-0.82,0.13-1.47,0.31-2.03,0.56c-0.68,0.3-1.18,0.63-1.56,1.02
		c-0.22,0.23-0.4,0.46-0.54,0.69c-0.14,0.25-0.26,0.52-0.35,0.81c-0.02,0.08-0.01,0.16,0.04,0.24c0.05,0.08,0.12,0.14,0.21,0.16
		c0.01,0,0.02,0,0.03,0c0.2,0,0.32-0.1,0.37-0.24l0.04-0.11c0.09-0.22,0.21-0.44,0.34-0.63c0.17-0.22,0.35-0.42,0.56-0.59
		c0.3-0.24,0.64-0.45,1.01-0.61c0.54-0.24,1.13-0.41,1.81-0.54c-0.15,0.69-0.24,1.4-0.26,2.1c-0.04,0.98,0.05,1.78,0.26,2.47
		c0.14,0.45,0.3,0.8,0.51,1.08c0.24,0.33,0.51,0.6,0.84,0.8c0.33,0.21,0.73,0.35,1.14,0.42c0.18,0.03,0.37,0.05,0.56,0.05
		c0.17,0,0.33-0.01,0.48-0.05c0.37-0.08,0.67-0.2,0.91-0.37c0.28-0.19,0.52-0.43,0.71-0.69c0.38-0.54,0.64-1.18,0.77-1.92
		c0.14-0.8,0.15-1.58,0.03-2.32c-0.07-0.43-0.15-0.75-0.25-1.04c-0.05-0.14-0.1-0.27-0.16-0.4c0.71,0.17,1.41,0.37,2.07,0.62
		c0.56,0.22,1.1,0.5,1.57,0.82c0.32,0.24,0.54,0.44,0.72,0.65c0.06,0.07,0.18,0.1,0.27,0.1c0.11,0,0.2-0.05,0.27-0.12
		c0.07-0.07,0.1-0.17,0.1-0.27c0-0.12-0.06-0.2-0.12-0.26c-0.36-0.4-0.83-0.76-1.4-1.07c-0.56-0.31-1.2-0.57-1.89-0.79
		c-0.73-0.23-1.48-0.41-2.24-0.54c-0.86-0.14-1.63-0.21-2.37-0.22l-0.16,0L129.89,97.8z M131.5,100.38l-0.04-0.01
		c-0.03-0.01-0.07-0.01-0.1-0.03c-0.04-0.02-0.09-0.04-0.13-0.08c-0.04-0.03-0.08-0.07-0.12-0.12c-0.05-0.07-0.09-0.14-0.12-0.21
		c-0.04-0.11-0.07-0.22-0.09-0.33c-0.02-0.21-0.02-0.43,0.01-0.68c0.02-0.12,0.05-0.25,0.08-0.37c0.21,0.02,0.44,0.04,0.66,0.06
		l0.1,0.01c0.15,0.33,0.21,0.56,0.25,0.79c0.01,0.13,0.01,0.26,0,0.39c-0.02,0.08-0.04,0.16-0.06,0.23
		c-0.03,0.06-0.06,0.11-0.09,0.15c-0.02,0.03-0.05,0.05-0.08,0.07l-0.09,0.07l0-0.01l-0.1,0.04v-0.01L131.5,100.38L131.5,100.38z"/>
	<path d="M107.14,89.17h-0.02c-0.92,0.06-1.84,0.09-2.76,0.13c-0.86,0.04-1.73,0.07-2.59,0.12c-0.73,0.04-1.46,0.1-2.18,0.17
		c-1.66,0.15-3.25,0.38-4.75,0.69c-1.72,0.35-3.05,0.78-4.21,1.34c-0.56,0.27-1.01,0.56-1.4,0.87c-0.42,0.34-0.74,0.71-0.99,1.14
		c-0.23,0.39-0.35,0.85-0.37,1.35c-0.01,0.27,0.04,0.54,0.09,0.76c0.04,0.19,0.12,0.37,0.2,0.55l0.06,0.14
		c0.06,0.23,0.19,0.32,0.32,0.32c0.04,0,0.07-0.01,0.1-0.02c0.58-0.2,1.15-0.41,1.73-0.59c0.59-0.19,1.18-0.36,1.78-0.53
		c1.13-0.32,2.35-0.6,3.72-0.86l0,0c1.91-0.35,3.94-0.62,6.19-0.83c1.95-0.18,3.99-0.28,6.25-0.32c0.16-0.02,0.24-0.05,0.3-0.11
		c0.06-0.06,0.12-0.16,0.12-0.26c-0.02-0.31-0.06-0.62-0.11-0.93c-0.05-0.33-0.14-0.66-0.24-0.98c-0.2-0.65-0.5-1.29-0.88-1.92
		c-0.06-0.09-0.14-0.16-0.24-0.19C107.24,89.19,107.19,89.17,107.14,89.17 M88.76,95.92L88.76,95.92c0.27-0.11,0.53-0.22,0.8-0.33
		c-0.27,0.12-0.54,0.24-0.8,0.36c0,0,0,0,0-0.01C88.77,95.95,88.77,95.93,88.76,95.92L88.76,95.92z"/>
	<path d="M89.13,95.2c-0.07,0.02-0.13,0.05-0.2,0.07c-0.08,0.04-0.16,0.09-0.25,0.13c-0.22,0.12-0.29,0.42-0.16,0.63
		c0.13,0.22,0.41,0.29,0.63,0.16c0.04-0.02,0.07-0.04,0.1-0.06c0.11,0.01,0.23-0.03,0.32-0.11c0.05-0.04,0.1-0.09,0.14-0.15
		l0.06-0.14c0.07-0.16-0.04-0.42-0.2-0.49l-0.14-0.06c-0.04-0.01-0.07-0.01-0.1-0.01C89.26,95.18,89.2,95.19,89.13,95.2"/>
	<path d="M108.03,129.98c0.02-0.02,0.03-0.04,0.04-0.07c0.02-0.04,0.02-0.08,0.01-0.13L108.03,129.98z"/>
	<path d="M122.64,88.01h0.02c0.87,0.05,1.73,0.09,2.6,0.13c0.82,0.03,1.63,0.07,2.45,0.12c0.69,0.04,1.38,0.1,2.06,0.17
		c1.56,0.15,3.07,0.38,4.49,0.68c1.62,0.35,2.88,0.77,3.97,1.33c0.53,0.27,0.96,0.55,1.32,0.86c0.4,0.34,0.7,0.71,0.93,1.13
		c0.22,0.39,0.33,0.84,0.35,1.34c0.01,0.27-0.04,0.54-0.09,0.76c-0.04,0.19-0.11,0.37-0.19,0.54l-0.05,0.14
		c-0.06,0.22-0.18,0.31-0.31,0.31c-0.03,0-0.07,0-0.1-0.02c-0.54-0.2-1.09-0.4-1.63-0.59c-0.56-0.19-1.12-0.36-1.68-0.52
		c-1.07-0.31-2.22-0.59-3.51-0.86l0,0c-1.8-0.35-3.72-0.62-5.85-0.82c-1.84-0.17-3.77-0.28-5.9-0.32c-0.15-0.02-0.23-0.05-0.29-0.11
		c-0.06-0.06-0.12-0.16-0.11-0.26c0.02-0.31,0.06-0.62,0.1-0.93c0.05-0.33,0.14-0.65,0.23-0.97c0.19-0.64,0.47-1.28,0.83-1.9
		c0.05-0.09,0.13-0.16,0.22-0.19C122.54,88.02,122.59,88.01,122.64,88.01 M139.99,94.72L139.99,94.72c-0.25-0.11-0.5-0.22-0.76-0.33
		c0.26,0.11,0.51,0.24,0.75,0.36c0,0,0,0,0-0.01C139.98,94.74,139.99,94.72,139.99,94.72L139.99,94.72z"/>
	<path d="M139.65,94c0.06,0.02,0.12,0.05,0.18,0.07c0.08,0.04,0.16,0.08,0.24,0.13c0.21,0.12,0.27,0.42,0.15,0.63
		c-0.12,0.22-0.39,0.29-0.6,0.16c-0.03-0.02-0.06-0.04-0.1-0.06c-0.11,0.01-0.22-0.03-0.3-0.11c-0.05-0.04-0.1-0.09-0.13-0.15
		c-0.02-0.05-0.04-0.09-0.05-0.14c-0.07-0.16,0.04-0.42,0.19-0.49c0.04-0.02,0.09-0.04,0.13-0.06c0.03-0.01,0.07-0.01,0.1-0.01
		C139.52,93.98,139.58,93.99,139.65,94"/>
	<path d="M121.8,128.56c-0.02-0.02-0.03-0.04-0.04-0.07c-0.01-0.04-0.02-0.08-0.01-0.13L121.8,128.56z"/>
</g>
</svg>
